<svg xmlns="http://www.w3.org/2000/svg" width="503" height="443" viewBox="0 0 503 443" fill="none"><circle cx="93.5" cy="333.5" r="28.5" fill="#FF5252"></circle><path d="M54.9495 -1.71661e-05C24.6023 130.729 100.09 259.94 223.556 288.602C347.023 317.263 471.713 234.521 502.061 103.792L54.9495 -1.71661e-05Z" fill="#FFF8DE"></path><g clip-path="url(#clip0_671_202)"><path d="M283.31 263.513H229.4V376.264H283.31V263.513Z" fill="#4CB7D8"></path><path d="M94 304.493V150.039C94 146.515 95.4024 143.135 97.8987 140.643C100.395 138.151 103.781 136.751 107.311 136.751H407.298C410.828 136.751 414.214 138.151 416.711 140.643C419.207 143.135 420.609 146.515 420.609 150.039V304.493H94Z" fill="#4CB7D8"></path><path d="M420.608 304.493V329.245C420.608 334.392 417.2 338.567 413.01 338.567H101.612C97.4074 338.567 94.0137 334.392 94.0137 329.245V304.493H420.608Z" fill="#3AA1C9"></path><path d="M101.645 297.8V150.437C101.645 146.576 104.901 143.444 108.902 143.444H405.706C409.715 143.444 412.964 146.576 412.964 150.437V297.8H101.645Z" fill="#DCF4FF"></path><path d="M183.432 379.478C182.516 374.151 186.102 369.831 191.439 369.831H321.176C326.517 369.831 331.586 374.165 332.501 379.478H183.435H183.432Z" fill="#3AA1C9"></path><path d="M101.613 338.953H412.998C417.412 338.953 421.001 334.598 421.001 329.245V150.039C420.997 146.413 419.552 142.936 416.983 140.372C414.415 137.808 410.932 136.365 407.299 136.361V137.142C410.723 137.148 414.004 138.51 416.424 140.927C418.844 143.345 420.205 146.622 420.208 150.039V329.245C420.208 334.168 416.952 338.177 412.972 338.177H101.613V338.953Z" fill="#21111D"></path><path d="M173.326 310.319L172.693 310.771L180.084 321.075L180.717 320.623L173.326 310.319Z" fill="#21111D"></path><path d="M175.559 316.137L174.93 316.601L182.36 326.654L182.989 326.191L175.559 316.137Z" fill="#21111D"></path><path d="M267.02 340.751L266.342 341.138L270.04 347.598L270.719 347.211L267.02 340.751Z" fill="#21111D"></path><path d="M268.26 342.45L267.588 342.848L270.959 348.523L271.631 348.125L268.26 342.45Z" fill="#21111D"></path><path d="M101.254 298.161H412.971V297.381H102.035V150.437C102.035 146.796 105.114 143.834 108.91 143.834V143.054C104.691 143.054 101.261 146.366 101.261 150.437L101.254 298.161Z" fill="#21111D"></path><path d="M312.41 121.044C312.41 121.044 316.028 107.506 319.357 106.087C322.686 104.667 326.369 107.044 326.369 107.044C326.369 107.044 329.918 102.211 332.335 102.67C333.025 102.797 333.668 103.107 334.197 103.568C334.725 104.029 335.119 104.623 335.338 105.289C335.338 105.289 339.611 105.744 340.042 109.262C340.042 109.262 343.399 110.074 343.359 112.83C343.359 112.83 345.092 113.614 344.98 116.951C344.98 116.951 339.213 128.206 330.736 132.193C322.259 136.181 312.41 121.044 312.41 121.044Z" fill="#FE9F73"></path><path d="M238.608 297.396L239.693 202.209L237.389 189.983L181.475 208.624C181.475 208.624 183.193 248.86 186.822 297.396H238.608Z" fill="#351B2E"></path><path d="M195.679 297.396L201.96 230.259L212.587 181.253L140.311 209.816C140.311 209.816 139.794 249.347 140.673 297.396H195.679Z" fill="#49263E"></path><path d="M297.898 52.9999L352.988 144.611L348.403 148.089L304.776 67.3534L297.898 52.9999Z" fill="#49263E"></path><path d="M325.964 106.751C325.964 106.751 328.402 104.241 329.864 103.501C331.326 102.76 340.045 118.757 340.045 118.757L341.308 122.73C341.308 122.73 340.19 124.822 339.47 124.735C338.75 124.648 336.575 122.983 336.575 122.983L336.011 120.816L335.128 120.57L333.981 119.512L333.413 117.782L332.179 118.291L330.443 117.605L329.64 115.991L329.278 115.832L324.107 107.524L325.964 106.751Z" fill="#FE9F73"></path><path d="M329.141 116.124C328.37 116.124 327.483 115.597 326.564 115.041C325.93 114.636 325.263 114.284 324.571 113.99C322.538 113.188 321.608 113.534 321.6 113.542C321.532 113.565 321.456 113.562 321.389 113.534C321.323 113.505 321.269 113.453 321.239 113.386C321.212 113.318 321.213 113.243 321.241 113.175C321.27 113.108 321.323 113.054 321.391 113.025C321.434 113.025 322.501 112.57 324.788 113.469C325.509 113.772 326.204 114.135 326.865 114.553C328.312 115.413 329.22 115.907 329.832 115.232C330.099 114.951 330.302 114.616 330.427 114.249C330.552 113.883 330.595 113.493 330.555 113.108C330.4 111.396 328.779 109.204 326.213 107.253C323.066 104.852 320.298 106.04 320.179 106.09C320.11 106.121 320.032 106.123 319.962 106.097C319.891 106.07 319.835 106.016 319.804 105.948C319.773 105.879 319.771 105.801 319.798 105.731C319.825 105.661 319.878 105.605 319.947 105.574C320.077 105.516 323.131 104.191 326.557 106.806C329.278 108.879 330.939 111.161 331.116 113.058C331.165 113.52 331.114 113.986 330.966 114.427C330.819 114.867 330.579 115.271 330.262 115.611C330.125 115.774 329.953 115.904 329.759 115.993C329.565 116.082 329.354 116.126 329.141 116.124Z" fill="#F07162"></path><path d="M330.118 111.317C330.047 111.317 329.979 111.291 329.926 111.245C329.873 111.191 329.844 111.119 329.844 111.044C329.844 110.969 329.873 110.897 329.926 110.844L335.162 105.101C335.182 105.065 335.211 105.034 335.245 105.01C335.279 104.986 335.318 104.97 335.359 104.963C335.4 104.956 335.442 104.958 335.482 104.969C335.522 104.98 335.559 105 335.591 105.027C335.622 105.055 335.647 105.088 335.664 105.126C335.681 105.164 335.689 105.205 335.689 105.247C335.688 105.288 335.678 105.329 335.659 105.366C335.64 105.404 335.614 105.436 335.581 105.462L330.346 111.208C330.319 111.243 330.284 111.27 330.245 111.289C330.205 111.308 330.162 111.317 330.118 111.317Z" fill="#F07162"></path><path d="M335.833 121C335.423 121.002 335.025 120.862 334.708 120.603C334.216 120.317 333.826 119.885 333.592 119.367C333.358 118.849 333.291 118.271 333.402 117.713C333.418 117.64 333.463 117.576 333.526 117.536C333.59 117.496 333.667 117.482 333.74 117.498C333.813 117.515 333.877 117.559 333.918 117.623C333.958 117.686 333.972 117.763 333.955 117.836C333.622 119.331 334.965 120.115 335.041 120.151C335.193 120.278 335.372 120.368 335.565 120.414C335.757 120.46 335.958 120.462 336.151 120.419C338.963 119.884 343.091 112.762 343.134 112.689C343.153 112.657 343.177 112.628 343.207 112.606C343.236 112.583 343.27 112.566 343.306 112.556C343.342 112.547 343.38 112.544 343.417 112.549C343.454 112.554 343.489 112.566 343.522 112.585C343.586 112.622 343.634 112.684 343.653 112.756C343.673 112.829 343.663 112.906 343.626 112.971C343.453 113.274 339.321 120.393 336.26 120.975C336.119 120.997 335.976 121.005 335.833 121Z" fill="#F07162"></path><path d="M332.035 118.508C331.455 118.523 330.888 118.336 330.432 117.977C329.802 117.405 329.406 116.62 329.322 115.774C329.318 115.737 329.322 115.7 329.333 115.665C329.344 115.629 329.362 115.597 329.386 115.568C329.41 115.54 329.439 115.517 329.472 115.5C329.505 115.483 329.541 115.473 329.578 115.47C329.616 115.467 329.653 115.471 329.688 115.482C329.724 115.493 329.757 115.511 329.786 115.535C329.814 115.559 329.838 115.588 329.855 115.621C329.872 115.654 329.883 115.69 329.886 115.727C329.886 115.727 329.998 116.908 330.79 117.533C331.027 117.705 331.298 117.827 331.584 117.889C331.871 117.951 332.167 117.953 332.455 117.894C334.517 117.612 338.454 111.443 339.8 109.088C339.837 109.023 339.899 108.976 339.971 108.956C340.044 108.936 340.121 108.946 340.187 108.984C340.252 109.021 340.3 109.083 340.319 109.155C340.339 109.228 340.329 109.305 340.292 109.37C340.089 109.731 335.291 118.078 332.531 118.454C332.367 118.484 332.201 118.502 332.035 118.508Z" fill="#F07162"></path><path d="M242.197 274.236L242.53 273.803L240.79 176.283C240.79 176.283 272.919 197.795 282.546 198.207C292.174 198.619 331.984 139.63 331.984 139.63C323.594 120.404 305.934 117.742 305.934 117.742L273.06 153.716L234.534 118.844C229.4 115.731 189.923 115.059 189.923 115.059C189.923 115.059 144.99 114.037 139.852 117.15C134.715 120.263 115.828 171.526 112.894 194.776C109.959 218.025 112.894 233.087 130.684 235.835L137.153 235.972L137.652 274.236C137.652 274.236 173.508 282.291 242.19 274.236H242.197Z" fill="#AAC9F8"></path><path d="M305.923 117.746L273.049 153.72L234.534 118.844C232.606 117.674 225.829 116.85 218.119 116.276L194.963 171.317L160.03 115.059C147.79 115.171 142.515 115.539 139.852 117.15C134.718 120.263 115.828 171.526 112.894 194.776C109.959 218.025 112.894 233.087 130.684 235.835L137.153 235.972L137.652 274.236C137.652 274.236 173.508 282.291 242.19 274.236L242.523 273.803L240.783 176.283C240.783 176.283 272.911 197.795 282.539 198.207C292.167 198.619 331.977 139.63 331.977 139.63C323.605 120.408 305.923 117.746 305.923 117.746Z" fill="#FF5252"></path><path d="M227.042 182.235H187.753C185.361 182.235 183.422 184.171 183.422 186.559V238.468C183.422 240.856 185.361 242.792 187.753 242.792H227.042C229.434 242.792 231.373 240.856 231.373 238.468V186.559C231.373 184.171 229.434 182.235 227.042 182.235Z" fill="#49263E"></path><path d="M219.566 179.945H197.231C196.623 179.945 196.04 180.187 195.609 180.616C195.179 181.046 194.938 181.628 194.938 182.235H221.86C221.86 181.628 221.618 181.046 221.188 180.616C220.758 180.187 220.174 179.945 219.566 179.945Z" fill="#D6E8F4"></path><path d="M232.52 213.413C237.701 208.858 232.27 208.089 232.27 208.089C234.803 205.358 234.213 204.087 233.283 203.498C232.944 203.292 232.56 203.167 232.164 203.135C231.768 203.102 231.369 203.162 231 203.311C228.616 204.235 221.354 207.081 216.919 209.126C213.764 208.902 214.769 203.596 216.195 200.876C216.919 199.475 216.973 197.16 213.55 199.489C210.753 201.396 206.549 207.666 206.549 207.666L188.969 205.98L191.588 230.179C191.588 230.179 211.654 229.901 214.679 229.879C217.704 229.858 227.831 226.416 230.888 223.739C236.438 218.917 232.947 218.683 232.947 218.683C238.218 213.124 232.52 213.413 232.52 213.413Z" fill="#FE9F73"></path><path d="M225.917 212.084C225.84 212.089 225.764 212.071 225.699 212.03C225.634 211.99 225.584 211.931 225.555 211.86C225.537 211.816 225.527 211.768 225.527 211.721C225.527 211.673 225.537 211.626 225.556 211.582C225.574 211.538 225.601 211.498 225.635 211.464C225.669 211.431 225.71 211.404 225.754 211.387C228.355 210.303 232.02 207.818 232.06 207.775C232.139 207.722 232.236 207.703 232.33 207.721C232.423 207.739 232.506 207.793 232.559 207.871C232.613 207.95 232.634 208.046 232.617 208.139C232.6 208.233 232.547 208.316 232.469 208.371C232.317 208.475 228.703 210.939 226.029 212.04C225.994 212.06 225.956 212.075 225.917 212.084Z" fill="#F07162"></path><path d="M226.278 216.667C226.23 216.675 226.182 216.673 226.135 216.662C226.088 216.652 226.044 216.631 226.005 216.603C225.926 216.547 225.872 216.461 225.856 216.366C225.841 216.27 225.864 216.172 225.92 216.093C225.977 216.014 226.063 215.961 226.159 215.945C228.34 215.315 230.414 214.359 232.309 213.11C232.388 213.054 232.486 213.033 232.581 213.05C232.676 213.067 232.761 213.121 232.816 213.2C232.871 213.279 232.893 213.377 232.876 213.471C232.859 213.566 232.805 213.65 232.725 213.705C230.765 215.007 228.616 215.999 226.354 216.649L226.278 216.667Z" fill="#F07162"></path><path d="M227.505 221.829C227.424 221.832 227.345 221.809 227.28 221.762C227.214 221.716 227.166 221.649 227.143 221.572C227.129 221.527 227.124 221.479 227.129 221.431C227.133 221.384 227.147 221.338 227.17 221.296C227.192 221.254 227.223 221.217 227.26 221.187C227.297 221.157 227.339 221.134 227.385 221.121C229.297 220.491 231.098 219.569 232.725 218.386C232.763 218.357 232.807 218.336 232.853 218.324C232.899 218.312 232.947 218.309 232.995 218.315C233.042 218.322 233.088 218.337 233.129 218.361C233.17 218.385 233.207 218.417 233.236 218.455C233.265 218.493 233.286 218.536 233.298 218.582C233.31 218.629 233.313 218.677 233.307 218.724C233.3 218.771 233.285 218.817 233.261 218.858C233.237 218.899 233.205 218.935 233.167 218.964C231.472 220.202 229.591 221.164 227.595 221.814L227.505 221.829Z" fill="#F07162"></path><path d="M147.004 201.432L146.273 200.569L153.43 194.53L156.162 161.406L157.294 161.5L154.523 195.09L147.004 201.432Z" fill="#21111D"></path><path d="M137.142 236.536L130.596 236.395C121.866 235.044 116.269 230.728 113.483 223.19C111.07 216.653 110.704 207.601 112.329 194.707L113.454 194.848C110.14 221.131 115.144 232.845 130.734 235.268L137.167 235.405L137.142 236.536Z" fill="#21111D"></path><path d="M181.587 196.574L199.276 197.705C199.276 197.705 202.851 208.967 198.552 231.797C198.136 234.011 197.257 237.804 197.257 237.804C197.257 237.804 179.297 239.23 176.478 233.408C174.705 229.749 178.577 213.951 178.577 213.951L181.587 196.574Z" fill="#FF424D"></path><path d="M197.695 238.382L137.139 236.536L137.171 235.405L196.816 237.211C197.669 233.69 203.129 209.982 198.874 198.236L153.941 195.365L154.01 194.234L199.674 197.152L199.804 197.492C204.765 210.328 198.093 236.81 197.807 237.945L197.695 238.382Z" fill="#21111D"></path><path d="M273.446 163.342L272.506 153.994L235.21 120.22C232.479 117.746 227.164 117.713 227.109 117.713V116.579C227.352 116.579 232.898 116.612 235.974 119.382L273.602 153.449L274.586 163.23L273.446 163.342Z" fill="#21111D"></path><path d="M273.468 154.103L272.629 153.341L305.709 117.135L306.013 117.186C306.19 117.215 323.677 120.267 332.494 139.395L331.463 139.868C323.532 122.662 308.426 118.848 306.136 118.36L273.468 154.103Z" fill="#21111D"></path><path d="M199.259 278.162H198.264V277.028C212.443 277.18 237.723 274.204 241.608 273.738L240.201 166.914H241.337L242.755 274.753L242.252 274.814C241.985 274.832 214.813 278.162 199.259 278.162Z" fill="#21111D"></path><path d="M179.152 136.213C173.461 132.685 169.298 127.159 167.48 120.722L168.566 120.415C170.305 126.581 174.294 131.874 179.746 135.252L179.152 136.213Z" fill="#21111D"></path><path d="M183.512 74.4074C183.512 74.4074 191.522 71.005 198.636 73.4466C200.644 74.1457 202.384 75.4529 203.613 77.1861C204.842 78.9192 205.499 80.992 205.492 83.1155V87.3667L183.584 78.0228C183.584 78.0228 180.118 79.659 180.397 79.1605C180.675 78.6621 183.512 74.4074 183.512 74.4074Z" fill="#FE9F73"></path><path d="M205.488 82.6387V100.568C205.488 100.568 205.756 106.975 200.141 107.792L201.19 116.341C201.381 117.881 201.028 119.439 200.192 120.747C199.356 122.055 198.089 123.031 196.609 123.507C194.894 124.049 193.105 124.325 191.305 124.323C184.89 124.323 181.413 119.519 180.878 117.099C180.343 114.679 181.963 103.219 181.963 103.219L181.775 97.5954L182.499 75.7437L205.488 82.6387Z" fill="#FE9F73"></path><path d="M189.994 91.0905C189.96 91.0915 189.927 91.0856 189.895 91.0732C189.863 91.0607 189.834 91.0421 189.81 91.0183C189.764 90.9694 189.738 90.9048 189.738 90.8377C189.738 90.7706 189.764 90.706 189.81 90.6571C189.846 90.621 193.522 86.8646 196.883 89.5735C196.936 89.619 196.968 89.6829 196.974 89.7518C196.98 89.8207 196.959 89.8893 196.916 89.9431C196.872 89.9969 196.809 90.0317 196.74 90.0402C196.672 90.0488 196.602 90.0304 196.547 89.9889C193.569 87.5942 190.331 90.8918 190.193 91.0363C190.166 91.0582 190.134 91.0743 190.099 91.0836C190.065 91.0929 190.03 91.0953 189.994 91.0905Z" fill="#21111D"></path><path d="M201.016 89.4904C200.977 89.4898 200.939 89.4811 200.904 89.465C200.869 89.4488 200.838 89.4255 200.813 89.3965C200.771 89.3437 200.751 89.2772 200.757 89.2103C200.762 89.1434 200.792 89.0809 200.842 89.0353C200.95 88.9414 203.501 86.7635 205.111 88.1468C205.161 88.1919 205.192 88.2545 205.198 88.3217C205.203 88.3889 205.182 88.4555 205.14 88.508C205.095 88.5573 205.032 88.5877 204.965 88.593C204.898 88.5984 204.831 88.5783 204.778 88.5369C203.516 87.4534 201.229 89.4038 201.207 89.4254C201.154 89.4713 201.086 89.4947 201.016 89.4904Z" fill="#21111D"></path><path d="M195.401 92.1704C195.401 92.3292 195.354 92.4843 195.266 92.6163C195.177 92.7482 195.052 92.851 194.905 92.9116C194.758 92.9721 194.596 92.9878 194.44 92.9566C194.284 92.9253 194.141 92.8486 194.029 92.7361C193.917 92.6236 193.841 92.4804 193.81 92.3246C193.779 92.1688 193.796 92.0075 193.857 91.8611C193.918 91.7146 194.022 91.5896 194.155 91.502C194.287 91.4143 194.443 91.3679 194.602 91.3686C194.707 91.3686 194.811 91.3893 194.909 91.4297C195.006 91.47 195.094 91.5292 195.168 91.6037C195.243 91.6782 195.302 91.7666 195.342 91.8638C195.381 91.9611 195.402 92.0653 195.401 92.1704Z" fill="black"></path><path d="M203.929 91.3686C203.929 91.5273 203.883 91.6827 203.795 91.8151C203.707 91.9474 203.582 92.0507 203.435 92.112C203.289 92.1732 203.127 92.1896 202.971 92.1591C202.815 92.1285 202.671 92.0525 202.559 91.9405C202.446 91.8285 202.369 91.6856 202.338 91.53C202.307 91.3743 202.322 91.2129 202.383 91.0662C202.444 90.9195 202.547 90.794 202.679 90.7058C202.811 90.6175 202.966 90.5704 203.125 90.5704C203.231 90.5699 203.335 90.5902 203.433 90.6301C203.53 90.67 203.619 90.7287 203.693 90.8029C203.768 90.8771 203.827 90.9652 203.867 91.0623C203.908 91.1594 203.929 91.2635 203.929 91.3686Z" fill="black"></path><path d="M183.512 74.1256C183.512 74.1256 176.721 73.8005 174.995 79.7348C173.269 85.6691 176.211 88.8005 176.269 90.5704C176.327 92.3402 175.129 104.259 183.505 103.371L185.77 83.6789L182.861 75.8376L183.512 74.1256Z" fill="#21111D"></path><path d="M184.759 96.6112C187.382 96.1843 189.162 93.7155 188.734 91.097C188.306 88.4785 185.833 86.7019 183.21 87.1289C180.587 87.5558 178.808 90.0245 179.235 92.643C179.663 95.2615 182.136 97.0381 184.759 96.6112Z" fill="#FE9F73"></path><path d="M183.61 94.8359C183.175 94.8247 182.755 94.6724 182.414 94.4019C182.074 94.1315 181.83 93.7577 181.721 93.337C181.583 92.939 181.582 92.506 181.72 92.1077C181.858 91.7094 182.126 91.3689 182.481 91.141C182.864 90.9014 183.31 90.7819 183.761 90.798C184.213 90.8141 184.649 90.965 185.014 91.2313C184.846 90.7319 184.501 90.3107 184.044 90.0466C183.096 89.5265 181.92 89.9058 181.906 89.9094C181.889 89.915 181.872 89.9174 181.855 89.9162C181.838 89.9151 181.821 89.9105 181.805 89.9028C181.79 89.895 181.776 89.8843 181.765 89.8712C181.753 89.858 181.745 89.8428 181.739 89.8263C181.733 89.8097 181.73 89.7921 181.731 89.7744C181.732 89.7567 181.737 89.7394 181.744 89.7235C181.752 89.7077 181.763 89.6935 181.777 89.682C181.79 89.6705 181.806 89.6618 181.823 89.6565C182.597 89.4143 183.435 89.4697 184.171 89.8119C184.488 90.0001 184.761 90.2538 184.972 90.5559C185.183 90.858 185.327 91.2015 185.394 91.5636L185.509 92.0259L185.169 91.69C185.122 91.6431 183.979 90.5306 182.637 91.3686C182.334 91.5682 182.107 91.8624 181.991 92.205C181.874 92.5476 181.875 92.9191 181.993 93.2612C182.083 93.6271 182.291 93.9533 182.585 94.1896C182.88 94.4258 183.243 94.559 183.621 94.5687H183.65C183.685 94.5687 183.719 94.5827 183.744 94.6078C183.77 94.6329 183.784 94.6669 183.784 94.7023C183.784 94.7377 183.77 94.7717 183.744 94.7968C183.719 94.8219 183.685 94.8359 183.65 94.8359H183.61Z" fill="#F07162"></path><path d="M187.123 102.334C187.123 102.334 187.485 113.054 200.915 114.08L200.141 107.774C200.141 107.774 191.443 109.518 187.123 102.334Z" fill="#F07162"></path><path d="M198.231 97.5737C198.203 97.5729 198.176 97.5635 198.153 97.5467C198.13 97.5299 198.113 97.5066 198.104 97.4798C198.099 97.4632 198.097 97.4457 198.098 97.4282C198.099 97.4108 198.104 97.3938 198.112 97.3783C198.121 97.3628 198.132 97.3491 198.145 97.338C198.159 97.3269 198.174 97.3186 198.191 97.3137L200.872 96.4288L200.026 90.1189C200.023 90.1018 200.024 90.0843 200.028 90.0676C200.033 90.0508 200.04 90.0351 200.051 90.0213C200.061 90.0075 200.074 89.996 200.089 89.9873C200.104 89.9786 200.121 89.973 200.138 89.9708C200.155 89.9683 200.173 89.9692 200.191 89.9737C200.208 89.9782 200.224 89.986 200.238 89.9967C200.252 90.0075 200.264 90.021 200.273 90.0364C200.282 90.0517 200.288 90.0687 200.29 90.0864L201.165 96.5877L198.271 97.5412L198.231 97.5737Z" fill="#F07162"></path><path d="M181.76 104.729L182.693 95.6884L184.94 95.9376V104.989L181.76 104.729Z" fill="#FE9F73"></path><path d="M184.768 73.9486C184.768 73.9486 183.194 77.7013 185.777 83.9571C188.36 90.2128 179.152 81.6238 179.152 81.6238C179.152 81.6238 179.789 72.4642 184.768 73.9486Z" fill="#21111D"></path><path d="M339.8 124.919H339.753C338.193 124.652 337.086 124.045 336.457 123.113C335.991 122.409 335.812 121.553 335.957 120.722C335.975 120.649 336.02 120.585 336.083 120.545C336.147 120.504 336.224 120.49 336.298 120.505C336.37 120.522 336.434 120.566 336.474 120.629C336.514 120.692 336.527 120.768 336.511 120.841C336.405 121.526 336.555 122.226 336.934 122.806C337.473 123.601 338.454 124.121 339.847 124.359C339.914 124.374 339.974 124.413 340.015 124.469C340.056 124.524 340.075 124.593 340.07 124.661C340.064 124.73 340.033 124.794 339.984 124.842C339.934 124.891 339.869 124.919 339.8 124.923V124.919Z" fill="#F07162"></path><path d="M185.776 83.9571C185.776 83.9571 206.214 82.7471 207.484 77.9686C208.754 73.1901 203.939 73.0637 203.939 73.0637C203.939 73.0637 204.84 66.2698 198.663 68.2816C192.487 70.2934 181.051 70.0298 177.823 75.7437C174.596 81.4577 185.776 83.9571 185.776 83.9571Z" fill="#21111D"></path><path d="M383.618 384.658C383.618 384.658 371.642 414.741 381.686 437.495L151.434 439.424L130.188 437.495L111.461 425.912V408.185L116.667 393.514L133.672 384.643L383.618 384.658Z" fill="white"></path><path d="M140.651 442.35H389.409C389.803 442.364 390.196 442.298 390.564 442.157C390.931 442.016 391.267 441.803 391.551 441.53C391.834 441.257 392.059 440.929 392.213 440.567C392.367 440.205 392.447 439.816 392.447 439.422C392.447 439.029 392.367 438.64 392.213 438.278C392.059 437.916 391.834 437.588 391.551 437.315C391.267 437.042 390.931 436.829 390.564 436.688C390.196 436.547 389.803 436.481 389.409 436.495H140.651C125.632 436.495 113.417 425.179 113.417 411.27C113.417 397.361 125.632 386.045 140.651 386.045H389.409C390.188 386.045 390.934 385.736 391.484 385.187C392.035 384.637 392.344 383.892 392.344 383.115C392.344 382.339 392.035 381.594 391.484 381.044C390.934 380.495 390.188 380.186 389.409 380.186H140.651C122.398 380.186 107.549 394.132 107.549 411.27C107.549 428.408 122.398 442.35 140.651 442.35Z" fill="#49263E"></path><path d="M258.157 411.934H380.235C380.321 411.934 380.406 411.918 380.485 411.885C380.564 411.852 380.635 411.804 380.696 411.744C380.756 411.684 380.804 411.612 380.837 411.533C380.87 411.454 380.887 411.37 380.887 411.284C380.887 411.199 380.87 411.114 380.837 411.036C380.804 410.957 380.756 410.885 380.696 410.825C380.635 410.764 380.564 410.716 380.485 410.684C380.406 410.651 380.321 410.634 380.235 410.634H258.157C257.984 410.634 257.819 410.703 257.697 410.825C257.574 410.947 257.506 411.112 257.506 411.284C257.506 411.457 257.574 411.622 257.697 411.744C257.819 411.866 257.984 411.934 258.157 411.934Z" fill="#AAC9F8"></path><path d="M122.366 411.934H240.967C241.14 411.934 241.306 411.866 241.428 411.744C241.55 411.622 241.619 411.457 241.619 411.284C241.619 411.112 241.55 410.947 241.428 410.825C241.306 410.703 241.14 410.634 240.967 410.634H122.366C122.281 410.634 122.196 410.651 122.117 410.684C122.038 410.716 121.966 410.764 121.906 410.825C121.845 410.885 121.797 410.957 121.764 411.036C121.732 411.114 121.715 411.199 121.715 411.284C121.715 411.37 121.732 411.454 121.764 411.533C121.797 411.612 121.845 411.684 121.906 411.744C121.966 411.804 122.038 411.852 122.117 411.885C122.196 411.918 122.281 411.934 122.366 411.934Z" fill="#AAC9F8"></path><path d="M125.554 423.579H186.403C186.575 423.579 186.741 423.511 186.863 423.389C186.985 423.267 187.054 423.101 187.054 422.929C187.054 422.756 186.985 422.591 186.863 422.469C186.741 422.347 186.575 422.279 186.403 422.279H125.554C125.381 422.279 125.215 422.347 125.093 422.469C124.971 422.591 124.902 422.756 124.902 422.929C124.902 423.101 124.971 423.267 125.093 423.389C125.215 423.511 125.381 423.579 125.554 423.579Z" fill="#AAC9F8"></path><path d="M195.332 423.579H380.235C380.408 423.579 380.574 423.511 380.696 423.389C380.818 423.267 380.886 423.101 380.886 422.929C380.886 422.756 380.818 422.591 380.696 422.469C380.574 422.347 380.408 422.279 380.235 422.279H195.35C195.178 422.279 195.012 422.347 194.89 422.469C194.768 422.591 194.699 422.756 194.699 422.929C194.699 423.101 194.768 423.267 194.89 423.389C195.012 423.511 195.178 423.579 195.35 423.579H195.332Z" fill="#AAC9F8"></path><path d="M140.648 442.996H389.41C390.361 442.996 391.273 442.619 391.946 441.948C392.618 441.277 392.996 440.366 392.996 439.417C392.996 438.468 392.618 437.557 391.946 436.886C391.273 436.215 390.361 435.838 389.41 435.838C389.238 435.838 389.072 435.906 388.95 436.028C388.828 436.15 388.759 436.315 388.759 436.488C388.759 436.66 388.828 436.826 388.95 436.947C389.072 437.069 389.238 437.138 389.41 437.138C389.718 437.126 390.024 437.176 390.312 437.284C390.599 437.393 390.861 437.559 391.083 437.772C391.305 437.985 391.481 438.24 391.602 438.522C391.722 438.804 391.784 439.108 391.784 439.415C391.784 439.722 391.722 440.026 391.602 440.308C391.481 440.591 391.305 440.846 391.083 441.058C390.861 441.271 390.599 441.437 390.312 441.546C390.024 441.655 389.718 441.705 389.41 441.692H140.648C122.757 441.692 108.201 428.043 108.201 411.263C108.201 394.482 122.757 380.833 140.648 380.833H389.41C389.718 380.821 390.024 380.87 390.312 380.979C390.599 381.088 390.861 381.254 391.083 381.467C391.305 381.679 391.481 381.935 391.602 382.217C391.722 382.499 391.784 382.803 391.784 383.11C391.784 383.417 391.722 383.721 391.602 384.003C391.481 384.286 391.305 384.541 391.083 384.753C390.861 384.966 390.599 385.132 390.312 385.241C390.024 385.35 389.718 385.4 389.41 385.387C389.238 385.387 389.072 385.456 388.95 385.578C388.828 385.7 388.759 385.865 388.759 386.037C388.759 386.21 388.828 386.375 388.95 386.497C389.072 386.619 389.238 386.688 389.41 386.688C390.361 386.688 391.273 386.31 391.946 385.639C392.618 384.968 392.996 384.058 392.996 383.108C392.996 382.159 392.618 381.249 391.946 380.577C391.273 379.906 390.361 379.529 389.41 379.529H140.648C122.04 379.529 106.898 393.763 106.898 411.263C106.898 428.762 122.04 442.996 140.648 442.996Z" fill="#21111D"></path><path d="M314.475 399.604C314.475 399.604 322.308 419.086 317.793 433.432L311.429 423.611C311.429 423.611 307.087 428.816 304.417 433.432C304.417 433.432 299.554 401.395 290.133 399.604H314.475Z" fill="#4CB7D8"></path><path d="M125.554 400.254H380.235C380.408 400.254 380.573 400.185 380.696 400.063C380.818 399.941 380.886 399.776 380.886 399.604C380.886 399.431 380.818 399.266 380.696 399.144C380.573 399.022 380.408 398.953 380.235 398.953H125.554C125.381 398.953 125.215 399.022 125.093 399.144C124.971 399.266 124.902 399.431 124.902 399.604C124.902 399.776 124.971 399.941 125.093 400.063C125.215 400.185 125.381 400.254 125.554 400.254Z" fill="#AAC9F8"></path><path d="M400.373 158.845V256.607H327.443V174.932L343.146 158.845H400.373Z" fill="white"></path><path d="M327.443 174.965L343.052 158.845V174.965H327.443Z" fill="#3AA1C9"></path><path d="M350.168 171.024H381.986C382.095 171.024 382.202 171.003 382.302 170.961C382.403 170.92 382.494 170.859 382.57 170.782C382.647 170.705 382.708 170.614 382.749 170.513C382.79 170.413 382.811 170.306 382.811 170.197C382.811 169.979 382.724 169.769 382.569 169.615C382.415 169.46 382.205 169.374 381.986 169.374H350.168C349.949 169.374 349.739 169.46 349.584 169.615C349.428 169.769 349.341 169.978 349.34 170.197C349.34 170.416 349.427 170.627 349.583 170.782C349.738 170.937 349.949 171.024 350.168 171.024Z" fill="#3AA1C9"></path><path d="M345.831 177.41H386.324C386.543 177.41 386.753 177.323 386.908 177.169C387.062 177.014 387.149 176.805 387.149 176.587C387.15 176.478 387.129 176.371 387.087 176.27C387.046 176.17 386.985 176.079 386.909 176.002C386.832 175.925 386.741 175.864 386.641 175.822C386.54 175.781 386.433 175.759 386.324 175.759H345.831C345.611 175.759 345.4 175.847 345.245 176.002C345.089 176.157 345.002 176.367 345.002 176.587C345.003 176.805 345.091 177.015 345.246 177.169C345.401 177.323 345.611 177.41 345.831 177.41Z" fill="#3AA1C9"></path><path d="M335.085 192.674H393.759C393.979 192.673 394.189 192.585 394.344 192.43C394.499 192.275 394.587 192.066 394.588 191.847C394.587 191.628 394.499 191.418 394.344 191.264C394.189 191.11 393.979 191.023 393.759 191.023H335.085C334.866 191.023 334.656 191.11 334.501 191.264C334.347 191.419 334.26 191.628 334.26 191.847C334.26 192.065 334.347 192.275 334.501 192.43C334.656 192.585 334.866 192.673 335.085 192.674Z" fill="#3AA1C9"></path><path d="M335.085 199.89H393.759C393.979 199.89 394.189 199.803 394.344 199.649C394.499 199.495 394.587 199.285 394.588 199.067C394.587 198.848 394.499 198.638 394.344 198.483C394.189 198.328 393.979 198.24 393.759 198.24H335.085C334.866 198.24 334.656 198.328 334.501 198.483C334.347 198.638 334.26 198.848 334.26 199.067C334.26 199.285 334.347 199.494 334.501 199.649C334.656 199.803 334.866 199.89 335.085 199.89Z" fill="#3AA1C9"></path><path d="M335.085 207.11H393.759C393.979 207.109 394.189 207.022 394.344 206.867C394.499 206.712 394.587 206.502 394.588 206.283C394.587 206.064 394.499 205.855 394.344 205.701C394.189 205.546 393.979 205.46 393.759 205.46H335.085C334.866 205.46 334.656 205.546 334.501 205.701C334.347 205.855 334.26 206.065 334.26 206.283C334.26 206.502 334.347 206.712 334.501 206.867C334.656 207.022 334.866 207.109 335.085 207.11Z" fill="#3AA1C9"></path><path d="M335.085 221.547H393.759C393.979 221.547 394.19 221.46 394.345 221.304C394.501 221.149 394.588 220.939 394.588 220.72C394.587 220.501 394.499 220.291 394.344 220.137C394.189 219.983 393.979 219.896 393.759 219.896H335.085C334.866 219.896 334.656 219.983 334.501 220.137C334.347 220.292 334.26 220.501 334.26 220.72C334.259 220.828 334.28 220.936 334.322 221.036C334.363 221.136 334.423 221.227 334.5 221.304C334.577 221.381 334.668 221.442 334.768 221.484C334.869 221.525 334.976 221.547 335.085 221.547Z" fill="#3AA1C9"></path><path d="M335.085 228.763H393.759C393.979 228.763 394.189 228.677 394.344 228.522C394.499 228.368 394.587 228.158 394.588 227.94C394.587 227.721 394.499 227.512 394.344 227.357C394.189 227.203 393.979 227.116 393.759 227.116H335.085C334.866 227.116 334.656 227.203 334.501 227.357C334.347 227.512 334.26 227.721 334.26 227.94C334.26 228.158 334.347 228.368 334.501 228.522C334.656 228.677 334.866 228.763 335.085 228.763Z" fill="#3AA1C9"></path><path d="M335.085 247.328H393.759C393.979 247.327 394.189 247.24 394.344 247.085C394.499 246.93 394.587 246.72 394.588 246.501C394.587 246.282 394.499 246.073 394.344 245.918C394.189 245.764 393.979 245.677 393.759 245.677H335.085C334.866 245.677 334.656 245.764 334.501 245.919C334.347 246.073 334.26 246.283 334.26 246.501C334.26 246.72 334.347 246.93 334.501 247.085C334.656 247.24 334.866 247.327 335.085 247.328Z" fill="#3AA1C9"></path><path d="M185.354 87.3667L186.233 91.0905L187.123 89.978C187.123 89.978 188.87 84.6325 187.666 82.0645C186.461 79.4965 181.627 83.1878 181.627 83.1878L185.354 87.3667Z" fill="#21111D"></path><path d="M180.9 112.874L192.793 121.239L200.753 113.527L205.492 115.55L201.342 129.257L193.136 124.229L185.51 129.257L175.256 115.059L180.9 112.874Z" fill="#EDFCFB"></path><path d="M412.967 270.361H102.035V297.396H412.967V270.361Z" fill="#FEC786"></path><path d="M377.025 287.687H116.732C116.558 287.687 116.385 287.654 116.224 287.587C116.063 287.521 115.917 287.424 115.793 287.301C115.67 287.178 115.572 287.032 115.505 286.872C115.439 286.711 115.404 286.539 115.404 286.365C115.404 286.013 115.544 285.676 115.793 285.428C116.042 285.179 116.38 285.039 116.732 285.039H377.025C377.199 285.039 377.372 285.074 377.533 285.14C377.694 285.207 377.84 285.305 377.963 285.428C378.086 285.551 378.183 285.697 378.25 285.858C378.316 286.019 378.35 286.191 378.35 286.365C378.35 286.539 378.315 286.71 378.249 286.871C378.182 287.031 378.085 287.177 377.962 287.3C377.839 287.422 377.693 287.52 377.532 287.586C377.371 287.653 377.199 287.687 377.025 287.687Z" fill="white"></path><path d="M259.046 287.687H116.732C116.558 287.687 116.385 287.654 116.224 287.587C116.063 287.521 115.917 287.424 115.793 287.301C115.67 287.178 115.572 287.032 115.505 286.872C115.439 286.711 115.404 286.539 115.404 286.365C115.404 286.013 115.544 285.676 115.793 285.428C116.042 285.179 116.38 285.039 116.732 285.039H259.046C259.399 285.039 259.736 285.179 259.985 285.428C260.234 285.676 260.374 286.013 260.374 286.365C260.374 286.539 260.34 286.711 260.273 286.872C260.206 287.032 260.108 287.178 259.985 287.301C259.862 287.424 259.715 287.521 259.554 287.587C259.393 287.654 259.221 287.687 259.046 287.687Z" fill="#EF3A4C"></path><path d="M259.735 288.94C261.155 288.94 262.307 287.79 262.307 286.372C262.307 284.954 261.155 283.804 259.735 283.804C258.314 283.804 257.162 284.954 257.162 286.372C257.162 287.79 258.314 288.94 259.735 288.94Z" fill="#D82540"></path><path d="M389.556 280.373H387.41V292.787H389.556V280.373Z" fill="#EF3A4C"></path><path d="M395.345 280.373H393.199V292.787H395.345V280.373Z" fill="#EF3A4C"></path><path d="M201.768 99.824C201.684 99.8023 196.178 99.3219 196.178 99.3219C196.178 99.3219 196.724 101.644 198.772 101.825C200.82 102.005 201.768 99.824 201.768 99.824Z" fill="#FBFDFC"></path></g><defs><clipPath id="clip0_671_202"><rect width="327" height="390" fill="white" transform="translate(94 52.9999)"></rect></clipPath></defs></svg>