<svg xmlns="http://www.w3.org/2000/svg" width="61" height="61" viewBox="0 0 61 61" fill="none"><circle cx="30.5" cy="30.5" r="30.5" fill="#2DDD7E"></circle><path d="M22.5968 43V38.975L30.3318 30.855C31.3118 29.7817 32.0118 28.8483 32.4318 28.055C32.8752 27.2383 33.0968 26.4217 33.0968 25.605C33.0968 23.505 31.8018 22.455 29.2118 22.455C28.2085 22.455 27.2052 22.6533 26.2018 23.05C25.1985 23.4233 24.2185 24.0067 23.2618 24.8L21.5118 20.81C22.5385 19.9233 23.7985 19.2233 25.2918 18.71C26.8085 18.1967 28.3602 17.94 29.9468 17.94C32.7002 17.94 34.8002 18.5583 36.2468 19.795C37.7168 21.0083 38.4518 22.7467 38.4518 25.01C38.4518 26.5033 38.1018 27.9383 37.4018 29.315C36.7252 30.6683 35.6052 32.1383 34.0418 33.725L29.2818 38.555H39.3618V43H22.5968Z" fill="white"></path></svg>