<svg xmlns="http://www.w3.org/2000/svg" width="61" height="61" viewBox="0 0 61 61" fill="none"><circle cx="30.5" cy="30.5" r="30.5" fill="#F48C06"></circle><path d="M29.9118 43.385C28.1852 43.385 26.5402 43.14 24.9768 42.65C23.4135 42.16 22.1302 41.495 21.1268 40.655L22.8418 36.56C24.9185 38.1 27.2052 38.87 29.7018 38.87C32.5485 38.87 33.9718 37.8083 33.9718 35.685C33.9718 33.725 32.6418 32.745 29.9818 32.745H25.8518V28.37H29.4568C30.6235 28.37 31.5452 28.1017 32.2218 27.565C32.8985 27.0283 33.2368 26.2817 33.2368 25.325C33.2368 23.4117 31.9885 22.455 29.4918 22.455C27.1585 22.455 25.0818 23.2367 23.2618 24.8L21.5468 20.81C22.5735 19.9 23.8335 19.2 25.3268 18.71C26.8202 18.1967 28.3718 17.94 29.9818 17.94C32.6418 17.94 34.7185 18.535 36.2118 19.725C37.7052 20.915 38.4518 22.5483 38.4518 24.625C38.4518 25.9083 38.1252 27.04 37.4718 28.02C36.8185 29 35.9085 29.7117 34.7418 30.155C36.1418 30.5517 37.2268 31.2867 37.9968 32.36C38.7902 33.41 39.1868 34.6817 39.1868 36.175C39.1868 38.415 38.3585 40.1767 36.7018 41.46C35.0452 42.7433 32.7818 43.385 29.9118 43.385Z" fill="white"></path></svg>