<svg xmlns="http://www.w3.org/2000/svg" width="61" height="61" viewBox="0 0 61 61" fill="none"><circle cx="30.5" cy="30.5" r="30.5" fill="#664EFF"></circle><path d="M30.5418 43.385C28.9085 43.385 27.3102 43.14 25.7468 42.65C24.2068 42.1367 22.9585 41.4717 22.0018 40.655L23.7168 36.56C25.8168 38.1 28.0568 38.87 30.4368 38.87C31.7668 38.87 32.7935 38.5433 33.5168 37.89C34.2635 37.2367 34.6368 36.3617 34.6368 35.265C34.6368 34.145 34.2752 33.2467 33.5518 32.57C32.8518 31.8933 31.8952 31.555 30.6818 31.555C28.9318 31.555 27.4385 32.22 26.2018 33.55H22.7018V18.325H38.3118V22.77H27.9168V28.3C29.0602 27.5533 30.4368 27.18 32.0468 27.18C33.6102 27.18 34.9752 27.5183 36.1418 28.195C37.3085 28.8483 38.2185 29.77 38.8718 30.96C39.5252 32.15 39.8518 33.5267 39.8518 35.09C39.8518 36.7467 39.4785 38.1933 38.7318 39.43C37.9852 40.6667 36.9118 41.635 35.5118 42.335C34.1118 43.035 32.4552 43.385 30.5418 43.385Z" fill="white"></path></svg>