<svg xmlns="http://www.w3.org/2000/svg" width="504" height="439" viewBox="0 0 504 439" fill="none"><path d="M336 168C336 260.784 260.784 336 168 336C75.2162 336 0 260.784 0 168C0 75.2162 75.2162 0 168 0C260.784 0 336 75.2162 336 168Z" fill="#EBFAFF"></path><g clip-path="url(#clip0_684_203)"><path d="M503.435 245.393H311.041V384.349H503.435V245.393Z" fill="white"></path><path d="M504.012 384.914H310.477V244.783H504.012V384.914ZM311.607 383.784H502.882V245.913H311.607V383.784Z" fill="#EBEBEB"></path><path d="M321.439 359.351L342.889 359.069L364.339 358.922L407.239 358.786L450.139 358.911L471.589 359.069L493.039 359.351L471.589 359.623L450.139 359.781L407.239 359.916L364.339 359.781L342.889 359.623L321.439 359.351Z" fill="#EBEBEB"></path><path d="M321.439 347.485L342.889 347.214L364.339 347.056L407.239 346.92L450.139 347.045L471.589 347.203L493.039 347.485L471.589 347.757L450.139 347.915L407.239 348.051L364.339 347.915L342.889 347.757L321.439 347.485Z" fill="#EBEBEB"></path><path d="M321.439 335.619L342.889 335.348L364.339 335.19L407.239 335.054L450.139 335.19L471.589 335.337L493.039 335.619L471.589 335.891L450.139 336.049L407.239 336.185L364.339 336.049L342.889 335.891L321.439 335.619Z" fill="#EBEBEB"></path><path d="M321.439 323.754L342.889 323.482L364.339 323.324L407.239 323.188L450.139 323.324L471.589 323.482L493.039 323.754L471.589 324.036L450.139 324.183L407.239 324.319L364.339 324.183L342.889 324.025L321.439 323.754Z" fill="#EBEBEB"></path><path d="M321.439 311.888L342.889 311.616L364.339 311.458L407.239 311.323L450.139 311.458L471.589 311.616L493.039 311.888L471.589 312.17L450.139 312.328L407.239 312.453L364.339 312.317L342.889 312.159L321.439 311.888Z" fill="#EBEBEB"></path><path d="M321.439 300.022L342.889 299.75L364.339 299.592L407.239 299.457L450.139 299.592L471.589 299.75L493.039 300.022L471.589 300.304L450.139 300.462L407.239 300.587L364.339 300.451L342.889 300.304L321.439 300.022Z" fill="#EBEBEB"></path><path d="M321.439 288.156L342.889 287.885L364.339 287.726L407.239 287.591L450.139 287.726L471.589 287.885L493.039 288.156L471.589 288.438L450.139 288.597L407.239 288.721L364.339 288.585L342.889 288.438L321.439 288.156Z" fill="#EBEBEB"></path><path d="M321.439 276.29L342.889 276.019L364.339 275.86L407.239 275.725L450.139 275.86L471.589 276.019L493.039 276.29L471.589 276.572L450.139 276.731L407.239 276.855L364.339 276.731L342.889 276.572L321.439 276.29Z" fill="#EBEBEB"></path><path d="M321.439 264.424L342.889 264.153L364.339 263.994L407.239 263.859L450.139 263.994L471.589 264.153L493.039 264.424L471.589 264.706L450.139 264.865L407.239 264.989L364.339 264.865L342.889 264.706L321.439 264.424Z" fill="#EBEBEB"></path><path d="M329.452 354.549L329.203 353.452L351.455 348.39L372.747 327.506L381.325 333.212L398.311 316.227L407.657 321.821L413.715 316.758L430.655 334.625L452.896 307.887L471.374 327.539L492.813 317.753L493.276 318.77L471.103 328.907L452.942 309.594L430.701 336.32L413.624 318.307L407.759 323.2L398.492 317.651L381.472 334.659L372.883 328.952L352.021 349.418L329.452 354.549Z" fill="#455A64"></path><path d="M351.772 350.966C353.015 350.966 354.021 349.959 354.021 348.717C354.021 347.475 353.015 346.468 351.772 346.468C350.53 346.468 349.523 347.475 349.523 348.717C349.523 349.959 350.53 350.966 351.772 350.966Z" fill="#455A64"></path><path d="M374.849 328.398C374.849 328.845 374.716 329.282 374.468 329.654C374.219 330.025 373.866 330.315 373.453 330.486C373.04 330.657 372.586 330.702 372.147 330.615C371.709 330.528 371.306 330.312 370.99 329.996C370.674 329.68 370.459 329.278 370.372 328.839C370.284 328.401 370.329 327.946 370.5 327.533C370.671 327.12 370.961 326.767 371.333 326.519C371.704 326.271 372.141 326.138 372.588 326.138C373.188 326.138 373.763 326.376 374.187 326.8C374.611 327.224 374.849 327.799 374.849 328.398Z" fill="#455A64"></path><path d="M398.593 319.369C399.835 319.369 400.842 318.362 400.842 317.12C400.842 315.878 399.835 314.871 398.593 314.871C397.351 314.871 396.344 315.878 396.344 317.12C396.344 318.362 397.351 319.369 398.593 319.369Z" fill="#455A64"></path><path d="M409.974 322.601C409.974 323.048 409.841 323.485 409.593 323.856C409.344 324.228 408.991 324.518 408.578 324.689C408.165 324.86 407.711 324.905 407.272 324.818C406.834 324.73 406.431 324.515 406.115 324.199C405.799 323.883 405.584 323.48 405.497 323.042C405.409 322.603 405.454 322.149 405.625 321.736C405.796 321.323 406.086 320.97 406.458 320.721C406.829 320.473 407.266 320.341 407.713 320.341C408.313 320.341 408.888 320.579 409.312 321.003C409.736 321.426 409.974 322.001 409.974 322.601Z" fill="#455A64"></path><path d="M413.692 319.945C414.934 319.945 415.941 318.938 415.941 317.696C415.941 316.454 414.934 315.447 413.692 315.447C412.45 315.447 411.443 316.454 411.443 317.696C411.443 318.938 412.45 319.945 413.692 319.945Z" fill="#455A64"></path><path d="M452.716 310.984C453.958 310.984 454.965 309.977 454.965 308.735C454.965 307.493 453.958 306.486 452.716 306.486C451.474 306.486 450.467 307.493 450.467 308.735C450.467 309.977 451.474 310.984 452.716 310.984Z" fill="#455A64"></path><path d="M471.565 330.15C472.807 330.15 473.814 329.143 473.814 327.901C473.814 326.659 472.807 325.652 471.565 325.652C470.323 325.652 469.316 326.659 469.316 327.901C469.316 329.143 470.323 330.15 471.565 330.15Z" fill="#455A64"></path><path d="M495.288 318.566C495.288 319.013 495.156 319.45 494.907 319.822C494.659 320.194 494.306 320.483 493.893 320.654C493.48 320.826 493.025 320.87 492.587 320.783C492.148 320.696 491.746 320.481 491.43 320.165C491.114 319.848 490.898 319.446 490.811 319.007C490.724 318.569 490.769 318.114 490.94 317.701C491.111 317.288 491.4 316.935 491.772 316.687C492.144 316.439 492.581 316.306 493.028 316.306C493.627 316.306 494.202 316.544 494.626 316.968C495.05 317.392 495.288 317.967 495.288 318.566Z" fill="#455A64"></path><path d="M432.87 335.292C432.87 335.739 432.738 336.176 432.489 336.547C432.241 336.919 431.888 337.209 431.475 337.38C431.062 337.551 430.607 337.596 430.169 337.508C429.73 337.421 429.328 337.206 429.012 336.89C428.696 336.574 428.48 336.171 428.393 335.733C428.306 335.294 428.351 334.84 428.522 334.427C428.693 334.014 428.982 333.661 429.354 333.412C429.726 333.164 430.163 333.031 430.61 333.031C431.209 333.031 431.784 333.27 432.208 333.693C432.632 334.117 432.87 334.692 432.87 335.292Z" fill="#455A64"></path><path d="M329.744 354.232L328.908 353.475L352.63 327.528L362.247 332.579L387.607 306.802L394.614 312.543L406.582 302.237L429.422 318.679L434.485 312.916L447.403 324.827L466.355 307.989L478.504 318.374L492.891 314.498L493.185 315.583L478.222 319.617L466.367 309.492L447.392 326.353L434.576 314.532L429.603 320.194L406.65 303.672L394.637 314.023L387.687 308.328L362.462 333.969L352.878 328.929L329.744 354.232Z" fill="#263238"></path><path d="M354.835 328.613C354.835 329.06 354.702 329.497 354.454 329.869C354.206 330.24 353.853 330.53 353.44 330.701C353.027 330.872 352.572 330.917 352.134 330.83C351.695 330.742 351.293 330.527 350.976 330.211C350.66 329.895 350.445 329.492 350.358 329.054C350.271 328.615 350.315 328.161 350.486 327.748C350.658 327.335 350.947 326.982 351.319 326.734C351.691 326.485 352.128 326.353 352.575 326.353C353.174 326.353 353.749 326.591 354.173 327.015C354.597 327.439 354.835 328.014 354.835 328.613Z" fill="#263238"></path><path d="M362.226 335.405C363.468 335.405 364.475 334.398 364.475 333.156C364.475 331.914 363.468 330.907 362.226 330.907C360.983 330.907 359.977 331.914 359.977 333.156C359.977 334.398 360.983 335.405 362.226 335.405Z" fill="#263238"></path><path d="M389.597 307.718C389.597 308.165 389.464 308.602 389.216 308.973C388.967 309.345 388.614 309.635 388.201 309.806C387.788 309.977 387.334 310.022 386.896 309.934C386.457 309.847 386.054 309.632 385.738 309.316C385.422 309 385.207 308.597 385.12 308.159C385.032 307.72 385.077 307.266 385.248 306.853C385.419 306.44 385.709 306.087 386.081 305.838C386.452 305.59 386.889 305.458 387.336 305.458C387.936 305.458 388.511 305.696 388.935 306.12C389.359 306.543 389.597 307.118 389.597 307.718Z" fill="#263238"></path><path d="M397.147 313.198C397.147 313.645 397.015 314.082 396.767 314.454C396.518 314.826 396.165 315.115 395.752 315.287C395.339 315.458 394.885 315.502 394.446 315.415C394.008 315.328 393.605 315.113 393.289 314.797C392.973 314.481 392.758 314.078 392.67 313.639C392.583 313.201 392.628 312.746 392.799 312.333C392.97 311.921 393.26 311.567 393.631 311.319C394.003 311.071 394.44 310.938 394.887 310.938C395.487 310.938 396.062 311.176 396.485 311.6C396.909 312.024 397.147 312.599 397.147 313.198Z" fill="#263238"></path><path d="M406.64 305.197C407.882 305.197 408.889 304.191 408.889 302.949C408.889 301.707 407.882 300.7 406.64 300.7C405.398 300.7 404.391 301.707 404.391 302.949C404.391 304.191 405.398 305.197 406.64 305.197Z" fill="#263238"></path><path d="M429.366 321.618C430.608 321.618 431.615 320.611 431.615 319.369C431.615 318.127 430.608 317.12 429.366 317.12C428.124 317.12 427.117 318.127 427.117 319.369C427.117 320.611 428.124 321.618 429.366 321.618Z" fill="#263238"></path><path d="M436.509 313.786C436.509 314.233 436.376 314.67 436.128 315.042C435.88 315.413 435.527 315.703 435.114 315.874C434.7 316.045 434.246 316.09 433.808 316.003C433.369 315.916 432.966 315.7 432.65 315.384C432.334 315.068 432.119 314.665 432.032 314.227C431.944 313.789 431.989 313.334 432.16 312.921C432.331 312.508 432.621 312.155 432.993 311.907C433.365 311.658 433.802 311.526 434.249 311.526C434.848 311.526 435.423 311.764 435.847 312.188C436.271 312.612 436.509 313.187 436.509 313.786Z" fill="#263238"></path><path d="M447.122 327.901C448.364 327.901 449.371 326.894 449.371 325.652C449.371 324.41 448.364 323.403 447.122 323.403C445.88 323.403 444.873 324.41 444.873 325.652C444.873 326.894 445.88 327.901 447.122 327.901Z" fill="#263238"></path><path d="M466.515 311.549C467.757 311.549 468.764 310.542 468.764 309.3C468.764 308.058 467.757 307.051 466.515 307.051C465.273 307.051 464.266 308.058 464.266 309.3C464.266 310.542 465.273 311.549 466.515 311.549Z" fill="#263238"></path><path d="M480.72 319.03C480.72 319.477 480.587 319.914 480.339 320.285C480.09 320.657 479.738 320.947 479.324 321.118C478.911 321.289 478.457 321.334 478.019 321.246C477.58 321.159 477.177 320.944 476.861 320.628C476.545 320.312 476.33 319.909 476.243 319.471C476.155 319.032 476.2 318.578 476.371 318.165C476.542 317.752 476.832 317.399 477.204 317.15C477.575 316.902 478.012 316.77 478.46 316.77C479.059 316.77 479.634 317.008 480.058 317.432C480.482 317.855 480.72 318.43 480.72 319.03Z" fill="#263238"></path><path d="M495.288 314.871C495.288 315.318 495.156 315.755 494.907 316.127C494.659 316.498 494.306 316.788 493.893 316.959C493.48 317.13 493.025 317.175 492.587 317.088C492.148 317.001 491.746 316.785 491.43 316.469C491.114 316.153 490.898 315.75 490.811 315.312C490.724 314.874 490.769 314.419 490.94 314.006C491.111 313.593 491.4 313.24 491.772 312.992C492.144 312.743 492.581 312.611 493.028 312.611C493.627 312.611 494.202 312.849 494.626 313.273C495.05 313.697 495.288 314.272 495.288 314.871Z" fill="#263238"></path><path d="M330.13 353.848L329.564 352.864L358.394 336.32L373.866 343.281L382.342 340.434L391.247 345.937L409.646 332.433L416.992 338.377L424.79 336.049L437.526 343.247L457.631 333.653L470.368 343.191L492.711 327.121L493.378 328.036L470.357 344.592L457.507 334.975L437.492 344.524L424.654 337.269L416.743 339.631L409.612 333.856L391.304 347.304L382.195 341.677L373.809 344.491L358.462 337.586L330.13 353.848Z" fill="#FFC727"></path><path d="M360.677 336.942C360.677 337.389 360.544 337.826 360.296 338.197C360.047 338.569 359.694 338.859 359.281 339.03C358.868 339.201 358.414 339.246 357.976 339.158C357.537 339.071 357.134 338.856 356.818 338.54C356.502 338.224 356.287 337.821 356.2 337.383C356.112 336.944 356.157 336.49 356.328 336.077C356.499 335.664 356.789 335.311 357.161 335.062C357.532 334.814 357.969 334.681 358.417 334.681C359.016 334.681 359.591 334.92 360.015 335.343C360.439 335.767 360.677 336.342 360.677 336.942Z" fill="#FFC727"></path><path d="M373.831 346.061C375.073 346.061 376.08 345.055 376.08 343.813C376.08 342.571 375.073 341.564 373.831 341.564C372.589 341.564 371.582 342.571 371.582 343.813C371.582 345.055 372.589 346.061 373.831 346.061Z" fill="#FFC727"></path><path d="M382.296 343.7C383.538 343.7 384.545 342.693 384.545 341.451C384.545 340.209 383.538 339.202 382.296 339.202C381.054 339.202 380.047 340.209 380.047 341.451C380.047 342.693 381.054 343.7 382.296 343.7Z" fill="#FFC727"></path><path d="M393.655 346.457C393.655 346.904 393.523 347.341 393.274 347.713C393.026 348.084 392.673 348.374 392.26 348.545C391.847 348.716 391.393 348.761 390.954 348.674C390.516 348.586 390.113 348.371 389.797 348.055C389.481 347.739 389.265 347.336 389.178 346.898C389.091 346.459 389.136 346.005 389.307 345.592C389.478 345.179 389.768 344.826 390.139 344.578C390.511 344.329 390.948 344.197 391.395 344.197C391.994 344.197 392.569 344.435 392.993 344.859C393.417 345.283 393.655 345.858 393.655 346.457Z" fill="#FFC727"></path><path d="M419.026 338.682C419.026 339.129 418.894 339.566 418.645 339.938C418.397 340.309 418.044 340.599 417.631 340.77C417.218 340.941 416.764 340.986 416.325 340.899C415.887 340.812 415.484 340.596 415.168 340.28C414.852 339.964 414.636 339.561 414.549 339.123C414.462 338.685 414.507 338.23 414.678 337.817C414.849 337.404 415.139 337.051 415.51 336.803C415.882 336.554 416.319 336.422 416.766 336.422C417.366 336.422 417.941 336.66 418.364 337.084C418.788 337.508 419.026 338.083 419.026 338.682Z" fill="#FFC727"></path><path d="M439.663 343.688C439.663 344.135 439.531 344.572 439.282 344.944C439.034 345.316 438.681 345.605 438.268 345.777C437.855 345.948 437.4 345.992 436.962 345.905C436.523 345.818 436.121 345.603 435.805 345.287C435.489 344.971 435.273 344.568 435.186 344.129C435.099 343.691 435.144 343.236 435.315 342.823C435.486 342.41 435.775 342.057 436.147 341.809C436.519 341.561 436.956 341.428 437.403 341.428C438.002 341.428 438.577 341.666 439.001 342.09C439.425 342.514 439.663 343.089 439.663 343.688Z" fill="#FFC727"></path><path d="M472.944 343.688C472.944 344.135 472.812 344.572 472.563 344.944C472.315 345.316 471.962 345.605 471.549 345.777C471.136 345.948 470.682 345.992 470.243 345.905C469.805 345.818 469.402 345.603 469.086 345.287C468.77 344.971 468.554 344.568 468.467 344.129C468.38 343.691 468.425 343.236 468.596 342.823C468.767 342.41 469.057 342.057 469.428 341.809C469.8 341.561 470.237 341.428 470.684 341.428C471.284 341.428 471.858 341.666 472.282 342.09C472.706 342.514 472.944 343.089 472.944 343.688Z" fill="#FFC727"></path><path d="M409.487 335.292C410.729 335.292 411.736 334.285 411.736 333.043C411.736 331.801 410.729 330.794 409.487 330.794C408.245 330.794 407.238 331.801 407.238 333.043C407.238 334.285 408.245 335.292 409.487 335.292Z" fill="#FFC727"></path><path d="M424.88 339.202C426.122 339.202 427.129 338.195 427.129 336.953C427.129 335.711 426.122 334.704 424.88 334.704C423.638 334.704 422.631 335.711 422.631 336.953C422.631 338.195 423.638 339.202 424.88 339.202Z" fill="#FFC727"></path><path d="M457.384 336.433C458.626 336.433 459.633 335.426 459.633 334.184C459.633 332.942 458.626 331.935 457.384 331.935C456.142 331.935 455.135 332.942 455.135 334.184C455.135 335.426 456.142 336.433 457.384 336.433Z" fill="#FFC727"></path><path d="M495.288 327.573C495.288 328.02 495.156 328.457 494.907 328.829C494.659 329.201 494.306 329.49 493.893 329.661C493.48 329.832 493.025 329.877 492.587 329.79C492.148 329.703 491.746 329.487 491.43 329.171C491.114 328.855 490.898 328.453 490.811 328.014C490.724 327.576 490.769 327.121 490.94 326.708C491.111 326.295 491.4 325.942 491.772 325.694C492.144 325.446 492.581 325.313 493.028 325.313C493.627 325.313 494.202 325.551 494.626 325.975C495.05 326.399 495.288 326.974 495.288 327.573Z" fill="#FFC727"></path><path d="M327.451 258.864L327.677 286.867L327.824 314.871L327.971 370.878L327.451 370.347L368.283 370.336L409.115 370.392L449.958 370.562L490.79 370.878L449.958 371.183L409.115 371.353L368.283 371.421L327.451 371.398H326.92V370.878L327.078 314.871L327.225 286.867L327.451 258.864Z" fill="#EBEBEB"></path><path d="M347.759 397.424C347.76 401.912 346.128 406.246 343.168 409.62C340.209 412.993 336.123 415.175 331.673 415.758C327.223 416.341 322.713 415.286 318.984 412.789C315.255 410.293 312.561 406.525 311.405 402.189C310.249 397.852 310.71 393.244 312.701 389.222C314.693 385.201 318.079 382.041 322.229 380.331C326.378 378.622 331.008 378.481 335.254 379.933C339.5 381.385 343.073 384.333 345.307 388.225C346.913 391.025 347.758 394.196 347.759 397.424Z" fill="#263238"></path><path d="M345.353 388.225L329.305 397.424V378.936C332.561 378.933 335.76 379.791 338.578 381.422C341.396 383.053 343.733 385.4 345.353 388.225Z" fill="#FFC727"></path><path d="M341.845 399.596C343.053 392.635 338.388 386.013 331.427 384.806C324.465 383.598 317.843 388.262 316.636 395.224C315.428 402.185 320.093 408.807 327.054 410.014C334.016 411.222 340.638 406.557 341.845 399.596Z" fill="white"></path><path d="M334.581 394.587H323.936V396.09H334.581V394.587Z" fill="#263238"></path><path d="M337.215 398.769H321.291V400.272H337.215V398.769Z" fill="#A6A6A6"></path><path d="M399.508 397.424C399.509 398.332 399.441 399.239 399.305 400.136C398.597 404.866 396.083 409.137 392.291 412.052C388.498 414.966 383.724 416.297 378.971 415.764C374.218 415.231 369.857 412.876 366.805 409.193C363.752 405.511 362.247 400.789 362.605 396.02C362.962 391.251 365.155 386.806 368.723 383.621C372.29 380.435 376.954 378.757 381.733 378.938C386.512 379.12 391.035 381.148 394.35 384.596C397.665 388.043 399.514 392.641 399.508 397.424Z" fill="#263238"></path><path d="M399.508 397.424C399.509 398.332 399.441 399.239 399.305 400.136L381.008 397.424V378.936C383.438 378.931 385.844 379.406 388.09 380.334C390.336 381.261 392.377 382.623 394.095 384.34C395.814 386.058 397.177 388.098 398.106 390.343C399.035 392.588 399.511 394.994 399.508 397.424Z" fill="#FFC727"></path><path d="M385.919 409.277C392.439 406.555 395.518 399.063 392.796 392.543C390.074 386.024 382.581 382.945 376.061 385.667C369.541 388.389 366.463 395.881 369.185 402.4C371.907 408.92 379.399 411.999 385.919 409.277Z" fill="white"></path><path d="M386.331 394.587H375.686V396.09H386.331V394.587Z" fill="#263238"></path><path d="M388.976 398.769H373.053V400.272H388.976V398.769Z" fill="#A6A6A6"></path><path d="M451.585 397.424C451.579 401.906 449.944 406.233 446.984 409.597C444.023 412.962 439.94 415.136 435.495 415.713C431.051 416.29 426.548 415.23 422.827 412.732C419.105 410.235 416.42 406.469 415.27 402.137C414.121 397.805 414.586 393.203 416.579 389.189C418.572 385.175 421.957 382.022 426.103 380.32C430.249 378.617 434.873 378.48 439.112 379.935C443.351 381.389 446.917 384.336 449.144 388.225C450.747 391.026 451.588 394.197 451.585 397.424Z" fill="#263238"></path><path d="M451.584 397.424C451.586 401.165 450.452 404.818 448.333 407.901C446.215 410.984 443.211 413.352 439.718 414.692L433.084 397.424V378.936C435.514 378.931 437.921 379.406 440.166 380.334C442.412 381.261 444.453 382.623 446.172 384.34C447.89 386.058 449.253 388.098 450.182 390.343C451.111 392.588 451.587 394.994 451.584 397.424Z" fill="#FFC727"></path><path d="M433.119 410.228C440.185 410.228 445.912 404.501 445.912 397.435C445.912 390.37 440.185 384.643 433.119 384.643C426.054 384.643 420.326 390.37 420.326 397.435C420.326 404.501 426.054 410.228 433.119 410.228Z" fill="white"></path><path d="M438.443 394.587H427.797V396.09H438.443V394.587Z" fill="#263238"></path><path d="M441.076 398.769H425.152V400.272H441.076V398.769Z" fill="#A6A6A6"></path><path d="M503.447 397.424C503.447 401.912 501.816 406.246 498.856 409.62C495.896 412.993 491.81 415.175 487.361 415.758C482.911 416.341 478.401 415.286 474.672 412.789C470.942 410.293 468.249 406.525 467.093 402.189C465.937 397.852 466.397 393.244 468.389 389.222C470.38 385.201 473.766 382.041 477.916 380.331C482.066 378.622 486.695 378.481 490.942 379.933C495.188 381.385 498.761 384.333 500.994 388.225C502.606 391.022 503.452 394.195 503.447 397.424Z" fill="#263238"></path><path d="M503.447 397.424C503.452 400.961 502.442 404.425 500.537 407.406C498.632 410.386 495.913 412.758 492.7 414.239C489.488 415.72 485.918 416.249 482.415 415.762C478.911 415.275 475.621 413.794 472.934 411.494L484.936 397.424V378.936C487.365 378.934 489.77 379.411 492.015 380.34C494.259 381.268 496.299 382.63 498.017 384.347C499.735 386.064 501.098 388.102 502.027 390.346C502.957 392.59 503.436 394.995 503.436 397.424H503.447Z" fill="#FFC727"></path><path d="M484.947 410.228C492.013 410.228 497.741 404.501 497.741 397.435C497.741 390.37 492.013 384.643 484.947 384.643C477.882 384.643 472.154 390.37 472.154 397.435C472.154 404.501 477.882 410.228 484.947 410.228Z" fill="white"></path><path d="M490.269 394.587H479.623V396.09H490.269V394.587Z" fill="#263238"></path><path d="M492.902 398.769H476.979V400.272H492.902V398.769Z" fill="#A6A6A6"></path><path d="M473.09 93.4415H280.695V232.397H473.09V93.4415Z" fill="white"></path><path d="M473.655 232.962H280.131V92.8313H473.655V232.962ZM281.261 231.832H472.525V93.9614H281.261V231.832Z" fill="#EBEBEB"></path><path d="M321.268 116.495H306.316V222.882H321.268V116.495Z" fill="#FFC727"></path><path opacity="0.1" d="M321.268 116.495H316.838V222.882H321.268V116.495Z" fill="#263238"></path><path d="M346.967 142.239H332.016V222.871H346.967V142.239Z" fill="#FFC727"></path><path opacity="0.1" d="M346.967 142.239H342.537V222.871H346.967V142.239Z" fill="#263238"></path><path d="M372.667 182.56H357.715V222.882H372.667V182.56Z" fill="#FFC727"></path><path opacity="0.1" d="M372.655 182.56H368.225V222.882H372.655V182.56Z" fill="#263238"></path><path d="M398.354 159.529H383.402V222.871H398.354V159.529Z" fill="#FFC727"></path><path opacity="0.1" d="M398.354 159.529H393.924V222.871H398.354V159.529Z" fill="#263238"></path><path d="M424.053 135.345H409.102V222.871H424.053V135.345Z" fill="#FFC727"></path><path opacity="0.1" d="M424.053 135.345H419.623V222.871H424.053V135.345Z" fill="#263238"></path><path d="M449.753 121.129H434.801V222.871H449.753V121.129Z" fill="#FFC727"></path><path opacity="0.1" d="M449.752 121.129H445.322V222.871H449.752V121.129Z" fill="#263238"></path><path d="M297.647 102.968L297.885 132.938L297.998 162.919L298.156 222.871L297.647 222.373L318.261 222.317L338.863 222.362L380.091 222.475L421.307 222.577L462.523 222.871L421.307 223.176L380.091 223.277L338.863 223.39L318.261 223.436L297.647 223.379H297.139L297.15 222.871L297.308 162.919L297.421 132.938L297.647 102.968Z" fill="#EBEBEB"></path><path d="M294.348 108.969C296.483 108.216 298.812 108.216 300.948 108.969C298.812 109.722 296.483 109.722 294.348 108.969Z" fill="#EBEBEB"></path><path d="M294.348 118.089C296.483 117.336 298.812 117.336 300.948 118.089C298.812 118.842 296.483 118.842 294.348 118.089Z" fill="#EBEBEB"></path><path d="M294.348 127.197C295.404 126.808 296.522 126.617 297.648 126.632C298.774 126.609 299.894 126.801 300.948 127.197C299.895 127.599 298.774 127.791 297.648 127.762C296.522 127.778 295.404 127.586 294.348 127.197Z" fill="#EBEBEB"></path><path d="M294.348 136.306C296.483 135.553 298.812 135.553 300.948 136.306C298.812 137.059 296.483 137.059 294.348 136.306Z" fill="#EBEBEB"></path><path d="M294.348 145.426C295.402 145.031 296.522 144.839 297.648 144.861C298.774 144.832 299.895 145.024 300.948 145.426C299.894 145.822 298.774 146.014 297.648 145.991C296.522 146.006 295.404 145.815 294.348 145.426Z" fill="#EBEBEB"></path><path d="M294.348 154.579C296.483 153.826 298.812 153.826 300.948 154.579C298.812 155.332 296.483 155.332 294.348 154.579Z" fill="#EBEBEB"></path><path d="M294.348 163.62C296.483 162.867 298.812 162.867 300.948 163.62C298.812 164.373 296.483 164.373 294.348 163.62Z" fill="#EBEBEB"></path><path d="M294.348 172.762C295.404 172.373 296.522 172.182 297.648 172.197C298.774 172.174 299.894 172.366 300.948 172.762C299.895 173.164 298.774 173.356 297.648 173.328C296.522 173.349 295.402 173.157 294.348 172.762Z" fill="#EBEBEB"></path><path d="M294.348 181.882C296.483 181.129 298.812 181.129 300.948 181.882C298.81 182.62 296.486 182.62 294.348 181.882Z" fill="#EBEBEB"></path><path d="M294.348 190.991C295.404 190.602 296.522 190.41 297.648 190.426C298.774 190.397 299.895 190.589 300.948 190.991C299.894 191.387 298.774 191.579 297.648 191.556C296.522 191.571 295.404 191.38 294.348 190.991Z" fill="#EBEBEB"></path><path d="M294.348 200.099C296.483 199.346 298.812 199.346 300.948 200.099C298.812 200.852 296.483 200.852 294.348 200.099Z" fill="#EBEBEB"></path><path d="M294.348 209.219C296.483 208.466 298.812 208.466 300.948 209.219C298.812 209.972 296.483 209.972 294.348 209.219Z" fill="#EBEBEB"></path><path d="M365.185 191.556C351.171 191.556 344.288 173.35 337.632 155.755C333.948 146.002 330.139 135.922 325.2 129.22C314.724 115.015 297.942 118.597 297.772 118.631L297.523 117.501C297.704 117.501 315.187 113.704 326.105 128.519C331.134 135.3 334.976 145.471 338.694 155.314C345.215 172.559 351.951 190.347 365.185 190.347C375.006 190.347 385.346 176.334 396.309 161.495C410.028 142.906 425.568 121.841 444.407 121.841V122.971C426.144 122.971 410.774 143.787 397.213 162.162C385.606 177.972 375.571 191.556 365.185 191.556Z" fill="#37474F"></path><path d="M297.647 124.474C301.173 124.474 304.032 121.615 304.032 118.089C304.032 114.562 301.173 111.704 297.647 111.704C294.12 111.704 291.262 114.562 291.262 118.089C291.262 121.615 294.12 124.474 297.647 124.474Z" fill="white"></path><path d="M304.044 118.089C304.037 119.809 303.369 121.46 302.179 122.701C300.988 123.942 299.366 124.678 297.648 124.756C296.748 124.796 295.85 124.653 295.007 124.336C294.165 124.018 293.395 123.533 292.746 122.91C292.096 122.287 291.579 121.538 291.227 120.709C290.875 119.881 290.695 118.989 290.697 118.089C290.701 117.178 290.888 116.278 291.247 115.441C291.606 114.604 292.13 113.848 292.788 113.218C294.104 111.995 295.852 111.345 297.648 111.41C299.368 111.488 300.992 112.226 302.183 113.469C303.374 114.713 304.04 116.367 304.044 118.089ZM304.044 118.089C304.045 117.262 303.878 116.443 303.553 115.682C303.228 114.921 302.753 114.234 302.155 113.663C301.557 113.091 300.849 112.647 300.074 112.357C299.299 112.067 298.474 111.937 297.648 111.975C296.663 112.02 295.705 112.303 294.853 112.798C294.001 113.294 293.282 113.988 292.757 114.822C292.231 115.655 291.915 116.603 291.835 117.585C291.755 118.567 291.913 119.554 292.297 120.462C292.68 121.369 293.277 122.171 294.037 122.798C294.797 123.425 295.697 123.859 296.661 124.063C297.625 124.268 298.624 124.236 299.573 123.971C300.522 123.706 301.393 123.215 302.112 122.541C302.718 121.968 303.202 121.278 303.534 120.513C303.866 119.748 304.04 118.923 304.044 118.089Z" fill="#37474F"></path><path d="M444.407 129.265C447.933 129.265 450.792 126.407 450.792 122.88C450.792 119.354 447.933 116.495 444.407 116.495C440.88 116.495 438.021 119.354 438.021 122.88C438.021 126.407 440.88 129.265 444.407 129.265Z" fill="white"></path><path d="M450.793 122.937C450.789 124.619 450.142 126.237 448.984 127.457C447.792 128.729 446.149 129.484 444.407 129.559C442.612 129.624 440.864 128.974 439.548 127.751C438.887 127.125 438.36 126.37 438 125.534C437.641 124.698 437.455 123.797 437.455 122.886C437.455 121.975 437.641 121.074 438 120.238C438.36 119.401 438.887 118.647 439.548 118.021C440.864 116.798 442.612 116.148 444.407 116.213C446.135 116.289 447.766 117.032 448.957 118.286C450.148 119.54 450.806 121.207 450.793 122.937ZM450.793 122.937C450.795 122.11 450.63 121.292 450.306 120.531C449.982 119.77 449.508 119.083 448.911 118.511C448.314 117.94 447.606 117.495 446.832 117.205C446.058 116.915 445.233 116.785 444.407 116.823C443.242 116.879 442.117 117.268 441.165 117.943C440.213 118.618 439.474 119.551 439.036 120.632C438.597 121.714 438.477 122.898 438.69 124.045C438.903 125.192 439.44 126.255 440.237 127.107C441.318 128.276 442.817 128.97 444.407 129.039C445.232 129.078 446.056 128.948 446.83 128.658C447.603 128.369 448.31 127.925 448.907 127.355C449.503 126.784 449.978 126.099 450.303 125.339C450.627 124.58 450.794 123.763 450.793 122.937Z" fill="#37474F"></path><path d="M371.582 191.194C371.584 192.46 371.211 193.698 370.51 194.751C369.808 195.804 368.81 196.626 367.641 197.112C366.473 197.598 365.186 197.726 363.945 197.48C362.703 197.235 361.562 196.626 360.667 195.732C359.771 194.838 359.161 193.699 358.913 192.458C358.665 191.216 358.791 189.93 359.275 188.76C359.759 187.591 360.579 186.591 361.631 185.888C362.683 185.185 363.92 184.809 365.186 184.809C366.88 184.809 368.505 185.482 369.705 186.679C370.904 187.876 371.579 189.5 371.582 191.194Z" fill="white"></path><path d="M371.581 191.194C371.577 192.916 370.91 194.57 369.719 195.814C368.528 197.057 366.904 197.795 365.184 197.873C364.285 197.91 363.387 197.765 362.545 197.446C361.703 197.127 360.934 196.642 360.285 196.019C359.635 195.395 359.119 194.647 358.765 193.819C358.412 192.991 358.23 192.1 358.23 191.2C358.23 190.3 358.412 189.409 358.765 188.581C359.119 187.753 359.635 187.004 360.285 186.381C360.934 185.758 361.703 185.272 362.545 184.953C363.387 184.635 364.285 184.49 365.184 184.527C366.902 184.605 368.525 185.341 369.715 186.582C370.906 187.823 371.574 189.474 371.581 191.194ZM371.581 191.194C371.58 190.368 371.412 189.55 371.087 188.791C370.761 188.031 370.285 187.346 369.687 186.775C369.089 186.205 368.382 185.762 367.608 185.472C366.834 185.183 366.01 185.054 365.184 185.092C363.61 185.159 362.122 185.833 361.032 186.971C359.942 188.109 359.333 189.624 359.333 191.2C359.333 192.776 359.942 194.291 361.032 195.429C362.122 196.567 363.61 197.24 365.184 197.308C366.011 197.346 366.836 197.216 367.611 196.926C368.386 196.636 369.093 196.192 369.691 195.62C370.289 195.049 370.765 194.362 371.09 193.601C371.415 192.84 371.582 192.021 371.581 191.194Z" fill="#37474F"></path><path d="M171.125 143.366C172.133 158.759 172.919 174.624 171.557 190.017C170.51 202.008 165.575 211.917 153.152 214.993C141.633 217.833 125.191 217.794 115.334 210.254C110.753 206.72 109.116 201.707 109.352 196.052C109.692 188.198 115.465 145.172 117.206 131.755C118.24 123.574 119.248 115.288 121.722 107.382C126.959 90.7708 135.114 90.8232 136.24 90.4829C137.221 89.8415 143.479 86.9748 152.445 89.7237C154.787 90.4436 156.952 91.6476 158.799 93.2577C160.646 94.8677 162.134 96.8478 163.166 99.0698C169.712 112.29 170.157 128.941 171.125 143.366Z" fill="#263238"></path><path d="M133.684 92.7999C123.88 97.4991 121.654 108.285 119.363 117.945C116.182 131.389 113.237 144.897 110.946 158.524C109.847 165.068 108.891 171.613 108.132 178.263C107.399 184.585 106.234 191.353 106.731 197.701C107.543 208.239 117.203 212.938 126.602 214.338C126.696 214.356 126.793 214.335 126.871 214.281C126.95 214.227 127.004 214.144 127.021 214.05C127.039 213.957 127.018 213.86 126.964 213.781C126.91 213.703 126.827 213.649 126.733 213.632C121.392 212.637 115.947 211.21 111.941 207.296C106.81 202.296 107.333 195.672 107.87 189.088C108.773 177.87 110.305 166.718 112.255 155.644C114.206 144.57 116.536 133.522 119.049 122.553C121.432 112.081 123.107 98.363 133.75 92.9439C133.841 92.9177 133.789 92.7475 133.684 92.7999Z" fill="#263238"></path><path d="M167.785 110.301C165.835 102.264 161.567 94.4492 153.059 92.1978C164.054 95.5749 166.856 107.526 168.414 117.526C170.063 127.998 171.32 138.566 172.184 149.23C173.021 159.427 173.65 169.715 173.493 179.965C173.401 191.026 171.503 201.393 165.062 210.569C165.047 210.587 165.035 210.609 165.028 210.633C165.021 210.656 165.019 210.681 165.021 210.705C165.024 210.729 165.031 210.753 165.042 210.774C165.054 210.796 165.07 210.815 165.089 210.83C165.107 210.846 165.129 210.857 165.153 210.864C165.176 210.872 165.201 210.874 165.225 210.871C165.249 210.869 165.273 210.862 165.294 210.85C165.316 210.839 165.335 210.823 165.35 210.804C171.699 203.369 173.728 193.198 174.134 183.682C174.463 171.092 173.961 158.494 172.629 145.971C171.647 134.137 170.639 121.859 167.785 110.301Z" fill="#263238"></path><path d="M155.128 166.718C164.631 179.808 203.287 207.702 219.27 205.031C229.742 203.291 262.651 180.632 269.602 173.472C277.758 165.095 260.727 143.13 254.391 145.826C246.537 149.191 220.357 169.388 212.934 172.006C208.719 173.537 183.232 160.029 158.191 150.107C148.491 146.324 149.459 158.916 155.128 166.718Z" fill="#EB9481"></path><path d="M257.036 139.36C262.272 137.528 268.032 135.014 273.804 135.119C279.577 135.224 284.355 142.842 284.355 145.015C284.355 147.188 282.182 160.801 276.409 160.801C270.637 160.801 274.132 150.329 273.909 149.151C273.687 147.973 273.477 146.429 272.391 146.533C271.304 146.638 252.258 155.696 252.258 155.696L257.036 139.36Z" fill="#EB9481"></path><path d="M257.455 140.159C257.782 140.159 273.229 134.072 279.002 134.177C284.775 134.281 289.566 141.9 289.566 144.073C289.566 146.245 287.38 159.859 281.62 159.859C275.86 159.859 279.329 149.387 279.106 148.209C278.884 147.031 278.674 145.486 277.588 145.591C276.501 145.696 257.455 154.754 257.455 154.754V140.159Z" fill="#EB9481"></path><path d="M279.657 159.126C279.043 158.095 278.714 156.921 278.701 155.722C278.574 154.489 278.645 153.243 278.911 152.031C279.225 150.995 279.457 149.936 279.604 148.863C279.597 147.796 279.323 146.747 278.806 145.813C278.361 145.002 277.497 145.277 276.777 145.539C275.709 145.953 274.665 146.425 273.648 146.952C272.549 147.502 271.449 148.078 270.363 148.641C269.207 149.179 268.088 149.791 267.011 150.473C266.933 150.473 267.011 150.67 267.011 150.63C268.013 150.251 268.992 149.814 269.944 149.321L273.242 147.803C274.277 147.345 275.285 146.834 276.319 146.389C276.698 146.232 277.431 145.84 277.85 145.944C278.269 146.049 278.505 147.122 278.596 147.476C278.839 148.511 278.771 149.595 278.4 150.591C278.101 151.622 277.9 152.678 277.798 153.746C277.696 154.756 277.781 155.776 278.047 156.756C278.38 157.632 278.82 158.462 279.356 159.23C279.552 159.348 279.735 159.23 279.657 159.126Z" fill="#263238"></path><path d="M239.154 155.303C239.154 155.303 255.138 140.735 258.476 137.789C265.152 131.978 293.257 120.498 297.171 120.079C301.085 119.66 302.511 127.697 283.426 136.048C273.372 140.447 271.579 146.206 271.775 149.4C271.972 152.594 275.009 158.563 280.376 158.393C285.743 158.223 289.238 150.408 294.16 149.544C299.082 148.68 295.835 157.712 292.353 162.935C288.716 167.977 283.723 171.885 277.954 174.205C273.307 175.946 258.934 182.138 258.934 182.138L239.154 155.303Z" fill="#EB9481"></path><path d="M287.039 154.662C285.023 156.233 282.732 158.262 280.075 158.366C277.417 158.471 275.532 156.678 274.263 154.44C272.852 152.24 272.345 149.581 272.849 147.018C273.468 144.697 274.745 142.606 276.527 140.996C278.703 139.034 281.155 137.402 283.805 136.153C283.91 136.153 283.805 135.931 283.688 135.983C281.227 137.082 273.543 140.224 271.998 147.018C271.515 149.638 272.048 152.343 273.49 154.584C274.681 156.717 276.422 158.772 279.014 158.995C282.195 159.243 284.918 156.665 287.196 154.741C287.3 154.662 287.143 154.584 287.039 154.662Z" fill="#263238"></path><path d="M195.354 163.812C195.354 163.812 190.733 172.647 186.544 180.685C183.258 187.046 180.221 192.91 179.999 193.552C170.677 186.08 162.006 177.83 154.08 168.891C143.425 156.665 146.226 148.444 153.596 148.392C154.729 148.398 155.856 148.557 156.947 148.863C166.712 151.494 195.354 163.812 195.354 163.812Z" fill="#FFC727"></path><path d="M155.534 154.767C155.961 154.767 156.306 154.421 156.306 153.995C156.306 153.568 155.961 153.222 155.534 153.222C155.107 153.222 154.762 153.568 154.762 153.995C154.762 154.421 155.107 154.767 155.534 154.767Z" fill="white"></path><path d="M168.911 154.767C169.338 154.767 169.683 154.421 169.683 153.995C169.683 153.568 169.338 153.222 168.911 153.222C168.484 153.222 168.139 153.568 168.139 153.995C168.139 154.421 168.484 154.767 168.911 154.767Z" fill="white"></path><path d="M168.911 177.674C169.338 177.674 169.683 177.328 169.683 176.902C169.683 176.475 169.338 176.129 168.911 176.129C168.484 176.129 168.139 176.475 168.139 176.902C168.139 177.328 168.484 177.674 168.911 177.674Z" fill="white"></path><path d="M182.29 177.674C182.716 177.674 183.062 177.328 183.062 176.902C183.062 176.475 182.716 176.129 182.29 176.129C181.863 176.129 181.518 176.475 181.518 176.902C181.518 177.328 181.863 177.674 182.29 177.674Z" fill="white"></path><path d="M162.223 166.744C162.65 166.744 162.996 166.398 162.996 165.972C162.996 165.545 162.65 165.199 162.223 165.199C161.797 165.199 161.451 165.545 161.451 165.972C161.451 166.398 161.797 166.744 162.223 166.744Z" fill="white"></path><path d="M175.602 166.744C176.029 166.744 176.375 166.398 176.375 165.972C176.375 165.545 176.029 165.199 175.602 165.199C175.176 165.199 174.83 165.545 174.83 165.972C174.83 166.398 175.176 166.744 175.602 166.744Z" fill="white"></path><path d="M188.979 166.744C189.406 166.744 189.752 166.398 189.752 165.972C189.752 165.545 189.406 165.199 188.979 165.199C188.553 165.199 188.207 165.545 188.207 165.972C188.207 166.398 188.553 166.744 188.979 166.744Z" fill="white"></path><path d="M175.602 189.651C176.029 189.651 176.375 189.305 176.375 188.879C176.375 188.452 176.029 188.107 175.602 188.107C175.176 188.107 174.83 188.452 174.83 188.879C174.83 189.305 175.176 189.651 175.602 189.651Z" fill="white"></path><path d="M186.544 180.685C183.258 187.046 180.221 192.91 179.999 193.552C170.677 186.08 162.006 177.83 154.08 168.891C143.425 156.665 146.226 148.444 153.596 148.392L186.544 180.685Z" fill="#263238"></path><path d="M197.095 341.27H81.1543C81.1543 341.27 83.9425 320.195 88.4587 292.196L88.6943 290.665C90.5662 279.08 92.7261 266.37 95.0955 253.529C99.2713 230.818 104.115 207.715 109.181 189.494C109.272 189.193 109.351 188.892 109.429 188.591C111.157 182.478 112.911 176.954 114.666 172.216C120.36 156.887 131.604 147.41 139.668 146.232C145.048 145.447 152.536 146.154 158.112 151.35C160.075 153.322 161.874 155.449 163.492 157.712C168.519 164.427 174.514 174.179 176.583 180.868C176.714 181.3 176.818 181.693 176.91 182.085C177.156 182.964 177.297 183.869 177.329 184.782C177.268 190.74 176.441 196.666 174.868 202.414L181.714 245.126L181.91 246.317L196.428 337.134L197.095 341.27Z" fill="#FFC727"></path><path d="M128.776 154.767C129.203 154.767 129.549 154.421 129.549 153.995C129.549 153.568 129.203 153.222 128.776 153.222C128.35 153.222 128.004 153.568 128.004 153.995C128.004 154.421 128.35 154.767 128.776 154.767Z" fill="white"></path><path d="M142.155 154.767C142.582 154.767 142.927 154.421 142.927 153.995C142.927 153.568 142.582 153.222 142.155 153.222C141.729 153.222 141.383 153.568 141.383 153.995C141.383 154.421 141.729 154.767 142.155 154.767Z" fill="white"></path><path d="M155.534 154.767C155.961 154.767 156.306 154.421 156.306 153.995C156.306 153.568 155.961 153.222 155.534 153.222C155.107 153.222 154.762 153.568 154.762 153.995C154.762 154.421 155.107 154.767 155.534 154.767Z" fill="white"></path><path d="M115.399 177.674C115.826 177.674 116.172 177.328 116.172 176.902C116.172 176.475 115.826 176.129 115.399 176.129C114.973 176.129 114.627 176.475 114.627 176.902C114.627 177.328 114.973 177.674 115.399 177.674Z" fill="white"></path><path d="M128.776 177.674C129.203 177.674 129.549 177.328 129.549 176.902C129.549 176.475 129.203 176.129 128.776 176.129C128.35 176.129 128.004 176.475 128.004 176.902C128.004 177.328 128.35 177.674 128.776 177.674Z" fill="white"></path><path d="M142.155 177.674C142.582 177.674 142.927 177.328 142.927 176.902C142.927 176.475 142.582 176.129 142.155 176.129C141.729 176.129 141.383 176.475 141.383 176.902C141.383 177.328 141.729 177.674 142.155 177.674Z" fill="white"></path><path d="M155.534 177.674C155.961 177.674 156.306 177.328 156.306 176.902C156.306 176.475 155.961 176.129 155.534 176.129C155.107 176.129 154.762 176.475 154.762 176.902C154.762 177.328 155.107 177.674 155.534 177.674Z" fill="white"></path><path d="M168.911 177.674C169.338 177.674 169.683 177.328 169.683 176.902C169.683 176.475 169.338 176.129 168.911 176.129C168.484 176.129 168.139 176.475 168.139 176.902C168.139 177.328 168.484 177.674 168.911 177.674Z" fill="white"></path><path d="M122.087 166.744C122.513 166.744 122.859 166.398 122.859 165.972C122.859 165.545 122.513 165.199 122.087 165.199C121.66 165.199 121.314 165.545 121.314 165.972C121.314 166.398 121.66 166.744 122.087 166.744Z" fill="white"></path><path d="M135.468 166.744C135.894 166.744 136.24 166.398 136.24 165.972C136.24 165.545 135.894 165.199 135.468 165.199C135.041 165.199 134.695 165.545 134.695 165.972C134.695 166.398 135.041 166.744 135.468 166.744Z" fill="white"></path><path d="M149.616 165.972C149.616 166.176 149.534 166.373 149.389 166.518C149.245 166.663 149.048 166.744 148.843 166.744C148.687 166.746 148.533 166.702 148.402 166.617C148.271 166.532 148.168 166.409 148.107 166.265C148.046 166.121 148.029 165.962 148.059 165.809C148.089 165.655 148.164 165.514 148.275 165.403C148.386 165.293 148.527 165.218 148.68 165.188C148.834 165.158 148.993 165.174 149.137 165.236C149.281 165.297 149.403 165.399 149.489 165.53C149.574 165.662 149.618 165.815 149.616 165.972Z" fill="white"></path><path d="M162.223 166.744C162.65 166.744 162.996 166.398 162.996 165.972C162.996 165.545 162.65 165.199 162.223 165.199C161.797 165.199 161.451 165.545 161.451 165.972C161.451 166.398 161.797 166.744 162.223 166.744Z" fill="white"></path><path d="M115.399 200.581C115.826 200.581 116.172 200.235 116.172 199.809C116.172 199.382 115.826 199.036 115.399 199.036C114.973 199.036 114.627 199.382 114.627 199.809C114.627 200.235 114.973 200.581 115.399 200.581Z" fill="white"></path><path d="M128.776 200.581C129.203 200.581 129.549 200.235 129.549 199.809C129.549 199.382 129.203 199.036 128.776 199.036C128.35 199.036 128.004 199.382 128.004 199.809C128.004 200.235 128.35 200.581 128.776 200.581Z" fill="white"></path><path d="M142.155 200.581C142.582 200.581 142.927 200.235 142.927 199.809C142.927 199.382 142.582 199.036 142.155 199.036C141.729 199.036 141.383 199.382 141.383 199.809C141.383 200.235 141.729 200.581 142.155 200.581Z" fill="white"></path><path d="M155.534 200.581C155.961 200.581 156.306 200.235 156.306 199.809C156.306 199.382 155.961 199.036 155.534 199.036C155.107 199.036 154.762 199.382 154.762 199.809C154.762 200.235 155.107 200.581 155.534 200.581Z" fill="white"></path><path d="M168.911 200.581C169.338 200.581 169.683 200.235 169.683 199.809C169.683 199.382 169.338 199.036 168.911 199.036C168.484 199.036 168.139 199.382 168.139 199.809C168.139 200.235 168.484 200.581 168.911 200.581Z" fill="white"></path><path d="M109.496 188.839C109.493 188.959 109.463 189.076 109.409 189.183C109.354 189.289 109.277 189.382 109.182 189.455C109.273 189.154 109.352 188.853 109.43 188.552C109.472 188.642 109.494 188.74 109.496 188.839Z" fill="white"></path><path d="M122.087 189.651C122.513 189.651 122.859 189.305 122.859 188.879C122.859 188.452 122.513 188.107 122.087 188.107C121.66 188.107 121.314 188.452 121.314 188.879C121.314 189.305 121.66 189.651 122.087 189.651Z" fill="white"></path><path d="M135.468 189.651C135.894 189.651 136.24 189.305 136.24 188.879C136.24 188.452 135.894 188.107 135.468 188.107C135.041 188.107 134.695 188.452 134.695 188.879C134.695 189.305 135.041 189.651 135.468 189.651Z" fill="white"></path><path d="M149.616 188.84C149.616 189.044 149.534 189.241 149.389 189.386C149.245 189.53 149.048 189.612 148.843 189.612C148.687 189.614 148.533 189.57 148.402 189.485C148.271 189.4 148.168 189.277 148.107 189.133C148.046 188.989 148.029 188.83 148.059 188.676C148.089 188.523 148.164 188.382 148.275 188.271C148.386 188.161 148.527 188.085 148.68 188.056C148.834 188.026 148.993 188.042 149.137 188.103C149.281 188.164 149.403 188.267 149.489 188.398C149.574 188.529 149.618 188.683 149.616 188.84Z" fill="white"></path><path d="M162.223 189.651C162.65 189.651 162.996 189.305 162.996 188.879C162.996 188.452 162.65 188.107 162.223 188.107C161.797 188.107 161.451 188.452 161.451 188.879C161.451 189.305 161.797 189.651 162.223 189.651Z" fill="white"></path><path d="M175.602 189.651C176.029 189.651 176.375 189.305 176.375 188.879C176.375 188.452 176.029 188.107 175.602 188.107C175.176 188.107 174.83 188.452 174.83 188.879C174.83 189.305 175.176 189.651 175.602 189.651Z" fill="white"></path><path d="M102.02 223.501C102.447 223.501 102.793 223.156 102.793 222.729C102.793 222.302 102.447 221.957 102.02 221.957C101.594 221.957 101.248 222.302 101.248 222.729C101.248 223.156 101.594 223.501 102.02 223.501Z" fill="white"></path><path d="M115.399 223.501C115.826 223.501 116.172 223.156 116.172 222.729C116.172 222.302 115.826 221.957 115.399 221.957C114.973 221.957 114.627 222.302 114.627 222.729C114.627 223.156 114.973 223.501 115.399 223.501Z" fill="white"></path><path d="M128.776 223.501C129.203 223.501 129.549 223.156 129.549 222.729C129.549 222.302 129.203 221.957 128.776 221.957C128.35 221.957 128.004 222.302 128.004 222.729C128.004 223.156 128.35 223.501 128.776 223.501Z" fill="white"></path><path d="M142.155 223.501C142.582 223.501 142.927 223.156 142.927 222.729C142.927 222.302 142.582 221.957 142.155 221.957C141.729 221.957 141.383 222.302 141.383 222.729C141.383 223.156 141.729 223.501 142.155 223.501Z" fill="white"></path><path d="M155.534 223.501C155.961 223.501 156.306 223.156 156.306 222.729C156.306 222.302 155.961 221.957 155.534 221.957C155.107 221.957 154.762 222.302 154.762 222.729C154.762 223.156 155.107 223.501 155.534 223.501Z" fill="white"></path><path d="M168.911 223.501C169.338 223.501 169.683 223.156 169.683 222.729C169.683 222.302 169.338 221.957 168.911 221.957C168.484 221.957 168.139 222.302 168.139 222.729C168.139 223.156 168.484 223.501 168.911 223.501Z" fill="white"></path><path d="M108.708 212.558C109.134 212.558 109.48 212.213 109.48 211.786C109.48 211.359 109.134 211.014 108.708 211.014C108.281 211.014 107.936 211.359 107.936 211.786C107.936 212.213 108.281 212.558 108.708 212.558Z" fill="white"></path><path d="M122.087 212.558C122.513 212.558 122.859 212.213 122.859 211.786C122.859 211.359 122.513 211.014 122.087 211.014C121.66 211.014 121.314 211.359 121.314 211.786C121.314 212.213 121.66 212.558 122.087 212.558Z" fill="white"></path><path d="M135.468 212.558C135.894 212.558 136.24 212.213 136.24 211.786C136.24 211.359 135.894 211.014 135.468 211.014C135.041 211.014 134.695 211.359 134.695 211.786C134.695 212.213 135.041 212.558 135.468 212.558Z" fill="white"></path><path d="M149.615 211.786C149.615 211.991 149.534 212.187 149.389 212.332C149.244 212.477 149.047 212.558 148.843 212.558C148.639 212.555 148.444 212.472 148.3 212.328C148.156 212.184 148.074 211.99 148.07 211.786C148.07 211.581 148.152 211.385 148.297 211.24C148.441 211.095 148.638 211.014 148.843 211.014C148.945 211.012 149.046 211.031 149.14 211.069C149.235 211.107 149.321 211.164 149.393 211.236C149.465 211.308 149.522 211.394 149.56 211.488C149.598 211.583 149.617 211.684 149.615 211.786Z" fill="white"></path><path d="M162.223 212.558C162.65 212.558 162.996 212.213 162.996 211.786C162.996 211.359 162.65 211.014 162.223 211.014C161.797 211.014 161.451 211.359 161.451 211.786C161.451 212.213 161.797 212.558 162.223 212.558Z" fill="white"></path><path d="M175.602 212.558C176.029 212.558 176.375 212.213 176.375 211.786C176.375 211.359 176.029 211.014 175.602 211.014C175.176 211.014 174.83 211.359 174.83 211.786C174.83 212.213 175.176 212.558 175.602 212.558Z" fill="white"></path><path d="M102.02 246.408C102.447 246.408 102.793 246.063 102.793 245.636C102.793 245.21 102.447 244.864 102.02 244.864C101.594 244.864 101.248 245.21 101.248 245.636C101.248 246.063 101.594 246.408 102.02 246.408Z" fill="white"></path><path d="M115.399 246.408C115.826 246.408 116.172 246.063 116.172 245.636C116.172 245.21 115.826 244.864 115.399 244.864C114.973 244.864 114.627 245.21 114.627 245.636C114.627 246.063 114.973 246.408 115.399 246.408Z" fill="white"></path><path d="M128.776 246.408C129.203 246.408 129.549 246.063 129.549 245.636C129.549 245.21 129.203 244.864 128.776 244.864C128.35 244.864 128.004 245.21 128.004 245.636C128.004 246.063 128.35 246.408 128.776 246.408Z" fill="white"></path><path d="M142.155 246.408C142.582 246.408 142.927 246.063 142.927 245.636C142.927 245.21 142.582 244.864 142.155 244.864C141.729 244.864 141.383 245.21 141.383 245.636C141.383 246.063 141.729 246.408 142.155 246.408Z" fill="white"></path><path d="M155.534 246.408C155.961 246.408 156.306 246.063 156.306 245.636C156.306 245.21 155.961 244.864 155.534 244.864C155.107 244.864 154.762 245.21 154.762 245.636C154.762 246.063 155.107 246.408 155.534 246.408Z" fill="white"></path><path d="M168.911 246.408C169.338 246.408 169.683 246.063 169.683 245.636C169.683 245.21 169.338 244.864 168.911 244.864C168.484 244.864 168.139 245.21 168.139 245.636C168.139 246.063 168.484 246.408 168.911 246.408Z" fill="white"></path><path d="M181.91 246.291C181.791 246.225 181.692 246.128 181.622 246.011C181.553 245.893 181.517 245.759 181.518 245.623C181.521 245.431 181.59 245.246 181.714 245.099L181.91 246.291Z" fill="white"></path><path d="M108.708 235.465C109.134 235.465 109.48 235.12 109.48 234.693C109.48 234.267 109.134 233.921 108.708 233.921C108.281 233.921 107.936 234.267 107.936 234.693C107.936 235.12 108.281 235.465 108.708 235.465Z" fill="white"></path><path d="M122.087 235.465C122.513 235.465 122.859 235.12 122.859 234.693C122.859 234.267 122.513 233.921 122.087 233.921C121.66 233.921 121.314 234.267 121.314 234.693C121.314 235.12 121.66 235.465 122.087 235.465Z" fill="white"></path><path d="M135.468 235.465C135.894 235.465 136.24 235.12 136.24 234.693C136.24 234.267 135.894 233.921 135.468 233.921C135.041 233.921 134.695 234.267 134.695 234.693C134.695 235.12 135.041 235.465 135.468 235.465Z" fill="white"></path><path d="M149.615 234.654C149.617 234.756 149.598 234.857 149.56 234.951C149.522 235.046 149.465 235.132 149.393 235.204C149.321 235.276 149.235 235.333 149.14 235.371C149.046 235.409 148.945 235.428 148.843 235.426C148.638 235.426 148.441 235.345 148.297 235.2C148.152 235.055 148.07 234.858 148.07 234.654C148.07 234.449 148.152 234.252 148.297 234.108C148.441 233.963 148.638 233.881 148.843 233.881C148.945 233.88 149.046 233.898 149.14 233.937C149.235 233.975 149.321 234.032 149.393 234.104C149.465 234.176 149.522 234.262 149.56 234.356C149.598 234.451 149.617 234.552 149.615 234.654Z" fill="white"></path><path d="M162.223 235.465C162.65 235.465 162.996 235.12 162.996 234.693C162.996 234.267 162.65 233.921 162.223 233.921C161.797 233.921 161.451 234.267 161.451 234.693C161.451 235.12 161.797 235.465 162.223 235.465Z" fill="white"></path><path d="M175.602 235.465C176.029 235.465 176.375 235.12 176.375 234.693C176.375 234.267 176.029 233.921 175.602 233.921C175.176 233.921 174.83 234.267 174.83 234.693C174.83 235.12 175.176 235.465 175.602 235.465Z" fill="white"></path><path d="M102.02 269.315C102.447 269.315 102.793 268.97 102.793 268.543C102.793 268.117 102.447 267.771 102.02 267.771C101.594 267.771 101.248 268.117 101.248 268.543C101.248 268.97 101.594 269.315 102.02 269.315Z" fill="white"></path><path d="M115.399 269.315C115.826 269.315 116.172 268.97 116.172 268.543C116.172 268.117 115.826 267.771 115.399 267.771C114.973 267.771 114.627 268.117 114.627 268.543C114.627 268.97 114.973 269.315 115.399 269.315Z" fill="white"></path><path d="M128.776 269.315C129.203 269.315 129.549 268.97 129.549 268.543C129.549 268.117 129.203 267.771 128.776 267.771C128.35 267.771 128.004 268.117 128.004 268.543C128.004 268.97 128.35 269.315 128.776 269.315Z" fill="white"></path><path d="M142.155 269.315C142.582 269.315 142.927 268.97 142.927 268.543C142.927 268.117 142.582 267.771 142.155 267.771C141.729 267.771 141.383 268.117 141.383 268.543C141.383 268.97 141.729 269.315 142.155 269.315Z" fill="white"></path><path d="M155.534 269.315C155.961 269.315 156.306 268.97 156.306 268.543C156.306 268.117 155.961 267.771 155.534 267.771C155.107 267.771 154.762 268.117 154.762 268.543C154.762 268.97 155.107 269.315 155.534 269.315Z" fill="white"></path><path d="M168.911 269.315C169.338 269.315 169.683 268.97 169.683 268.543C169.683 268.117 169.338 267.771 168.911 267.771C168.484 267.771 168.139 268.117 168.139 268.543C168.139 268.97 168.484 269.315 168.911 269.315Z" fill="white"></path><path d="M182.29 269.315C182.716 269.315 183.062 268.97 183.062 268.543C183.062 268.117 182.716 267.771 182.29 267.771C181.863 267.771 181.518 268.117 181.518 268.543C181.518 268.97 181.863 269.315 182.29 269.315Z" fill="white"></path><path d="M95.3446 258.372C95.7711 258.372 96.1169 258.027 96.1169 257.6C96.1169 257.174 95.7711 256.828 95.3446 256.828C94.9181 256.828 94.5723 257.174 94.5723 257.6C94.5723 258.027 94.9181 258.372 95.3446 258.372Z" fill="white"></path><path d="M108.708 258.372C109.134 258.372 109.48 258.027 109.48 257.6C109.48 257.174 109.134 256.828 108.708 256.828C108.281 256.828 107.936 257.174 107.936 257.6C107.936 258.027 108.281 258.372 108.708 258.372Z" fill="white"></path><path d="M122.087 258.372C122.513 258.372 122.859 258.027 122.859 257.6C122.859 257.174 122.513 256.828 122.087 256.828C121.66 256.828 121.314 257.174 121.314 257.6C121.314 258.027 121.66 258.372 122.087 258.372Z" fill="white"></path><path d="M135.468 258.372C135.894 258.372 136.24 258.027 136.24 257.6C136.24 257.174 135.894 256.828 135.468 256.828C135.041 256.828 134.695 257.174 134.695 257.6C134.695 258.027 135.041 258.372 135.468 258.372Z" fill="white"></path><path d="M149.615 257.6C149.617 257.702 149.598 257.803 149.56 257.898C149.522 257.992 149.465 258.078 149.393 258.15C149.321 258.222 149.235 258.279 149.14 258.317C149.046 258.355 148.945 258.374 148.843 258.372C148.638 258.372 148.441 258.291 148.297 258.146C148.152 258.001 148.07 257.805 148.07 257.6C148.07 257.395 148.152 257.199 148.297 257.054C148.441 256.909 148.638 256.828 148.843 256.828C148.945 256.826 149.046 256.845 149.14 256.883C149.235 256.921 149.321 256.978 149.393 257.05C149.465 257.122 149.522 257.208 149.56 257.302C149.598 257.397 149.617 257.498 149.615 257.6Z" fill="white"></path><path d="M162.223 258.372C162.65 258.372 162.996 258.027 162.996 257.6C162.996 257.174 162.65 256.828 162.223 256.828C161.797 256.828 161.451 257.174 161.451 257.6C161.451 258.027 161.797 258.372 162.223 258.372Z" fill="white"></path><path d="M175.602 258.372C176.029 258.372 176.375 258.027 176.375 257.6C176.375 257.174 176.029 256.828 175.602 256.828C175.176 256.828 174.83 257.174 174.83 257.6C174.83 258.027 175.176 258.372 175.602 258.372Z" fill="white"></path><path d="M89.4784 291.437C89.4802 291.54 89.4615 291.642 89.4235 291.737C89.3854 291.832 89.3288 291.919 89.2569 291.992C89.185 292.065 89.0993 292.123 89.0047 292.163C88.9102 292.202 88.8087 292.223 88.7061 292.223H88.5098L88.7454 290.691C88.9389 290.701 89.1217 290.783 89.2575 290.921C89.3932 291.059 89.4721 291.244 89.4784 291.437Z" fill="white"></path><path d="M102.02 292.223C102.447 292.223 102.793 291.877 102.793 291.45C102.793 291.024 102.447 290.678 102.02 290.678C101.594 290.678 101.248 291.024 101.248 291.45C101.248 291.877 101.594 292.223 102.02 292.223Z" fill="white"></path><path d="M115.399 292.223C115.826 292.223 116.172 291.877 116.172 291.45C116.172 291.024 115.826 290.678 115.399 290.678C114.973 290.678 114.627 291.024 114.627 291.45C114.627 291.877 114.973 292.223 115.399 292.223Z" fill="white"></path><path d="M128.776 292.223C129.203 292.223 129.549 291.877 129.549 291.45C129.549 291.024 129.203 290.678 128.776 290.678C128.35 290.678 128.004 291.024 128.004 291.45C128.004 291.877 128.35 292.223 128.776 292.223Z" fill="white"></path><path d="M142.155 292.223C142.582 292.223 142.927 291.877 142.927 291.45C142.927 291.024 142.582 290.678 142.155 290.678C141.729 290.678 141.383 291.024 141.383 291.45C141.383 291.877 141.729 292.223 142.155 292.223Z" fill="white"></path><path d="M155.534 292.223C155.961 292.223 156.306 291.877 156.306 291.45C156.306 291.024 155.961 290.678 155.534 290.678C155.107 290.678 154.762 291.024 154.762 291.45C154.762 291.877 155.107 292.223 155.534 292.223Z" fill="white"></path><path d="M168.911 292.223C169.338 292.223 169.683 291.877 169.683 291.45C169.683 291.024 169.338 290.678 168.911 290.678C168.484 290.678 168.139 291.024 168.139 291.45C168.139 291.877 168.484 292.223 168.911 292.223Z" fill="white"></path><path d="M182.29 292.223C182.716 292.223 183.062 291.877 183.062 291.45C183.062 291.024 182.716 290.678 182.29 290.678C181.863 290.678 181.518 291.024 181.518 291.45C181.518 291.877 181.863 292.223 182.29 292.223Z" fill="white"></path><path d="M95.3446 281.293C95.7711 281.293 96.1169 280.947 96.1169 280.52C96.1169 280.094 95.7711 279.748 95.3446 279.748C94.9181 279.748 94.5723 280.094 94.5723 280.52C94.5723 280.947 94.9181 281.293 95.3446 281.293Z" fill="white"></path><path d="M108.708 281.293C109.134 281.293 109.48 280.947 109.48 280.52C109.48 280.094 109.134 279.748 108.708 279.748C108.281 279.748 107.936 280.094 107.936 280.52C107.936 280.947 108.281 281.293 108.708 281.293Z" fill="white"></path><path d="M122.087 281.293C122.513 281.293 122.859 280.947 122.859 280.52C122.859 280.094 122.513 279.748 122.087 279.748C121.66 279.748 121.314 280.094 121.314 280.52C121.314 280.947 121.66 281.293 122.087 281.293Z" fill="white"></path><path d="M135.468 281.293C135.894 281.293 136.24 280.947 136.24 280.52C136.24 280.094 135.894 279.748 135.468 279.748C135.041 279.748 134.695 280.094 134.695 280.52C134.695 280.947 135.041 281.293 135.468 281.293Z" fill="white"></path><path d="M149.615 280.468C149.617 280.57 149.598 280.671 149.56 280.765C149.522 280.86 149.465 280.946 149.393 281.018C149.321 281.09 149.235 281.147 149.14 281.185C149.046 281.223 148.945 281.242 148.843 281.24C148.638 281.24 148.441 281.159 148.297 281.014C148.152 280.869 148.07 280.673 148.07 280.468C148.07 280.263 148.152 280.067 148.297 279.922C148.441 279.777 148.638 279.696 148.843 279.696C148.945 279.694 149.046 279.713 149.14 279.751C149.235 279.789 149.321 279.846 149.393 279.918C149.465 279.99 149.522 280.076 149.56 280.17C149.598 280.265 149.617 280.366 149.615 280.468Z" fill="white"></path><path d="M162.223 281.293C162.65 281.293 162.996 280.947 162.996 280.52C162.996 280.094 162.65 279.748 162.223 279.748C161.797 279.748 161.451 280.094 161.451 280.52C161.451 280.947 161.797 281.293 162.223 281.293Z" fill="white"></path><path d="M175.602 281.293C176.029 281.293 176.375 280.947 176.375 280.52C176.375 280.094 176.029 279.748 175.602 279.748C175.176 279.748 174.83 280.094 174.83 280.52C174.83 280.947 175.176 281.293 175.602 281.293Z" fill="white"></path><path d="M88.6571 315.13C89.0836 315.13 89.4294 314.784 89.4294 314.357C89.4294 313.931 89.0836 313.585 88.6571 313.585C88.2306 313.585 87.8848 313.931 87.8848 314.357C87.8848 314.784 88.2306 315.13 88.6571 315.13Z" fill="white"></path><path d="M102.02 315.13C102.447 315.13 102.793 314.784 102.793 314.357C102.793 313.931 102.447 313.585 102.02 313.585C101.594 313.585 101.248 313.931 101.248 314.357C101.248 314.784 101.594 315.13 102.02 315.13Z" fill="white"></path><path d="M115.399 315.13C115.826 315.13 116.172 314.784 116.172 314.357C116.172 313.931 115.826 313.585 115.399 313.585C114.973 313.585 114.627 313.931 114.627 314.357C114.627 314.784 114.973 315.13 115.399 315.13Z" fill="white"></path><path d="M128.776 315.13C129.203 315.13 129.549 314.784 129.549 314.357C129.549 313.931 129.203 313.585 128.776 313.585C128.35 313.585 128.004 313.931 128.004 314.357C128.004 314.784 128.35 315.13 128.776 315.13Z" fill="white"></path><path d="M142.155 315.13C142.582 315.13 142.927 314.784 142.927 314.357C142.927 313.931 142.582 313.585 142.155 313.585C141.729 313.585 141.383 313.931 141.383 314.357C141.383 314.784 141.729 315.13 142.155 315.13Z" fill="white"></path><path d="M155.534 315.13C155.961 315.13 156.306 314.784 156.306 314.357C156.306 313.931 155.961 313.585 155.534 313.585C155.107 313.585 154.762 313.931 154.762 314.357C154.762 314.784 155.107 315.13 155.534 315.13Z" fill="white"></path><path d="M168.911 315.13C169.338 315.13 169.683 314.784 169.683 314.357C169.683 313.931 169.338 313.585 168.911 313.585C168.484 313.585 168.139 313.931 168.139 314.357C168.139 314.784 168.484 315.13 168.911 315.13Z" fill="white"></path><path d="M182.29 315.13C182.716 315.13 183.062 314.784 183.062 314.357C183.062 313.931 182.716 313.585 182.29 313.585C181.863 313.585 181.518 313.931 181.518 314.357C181.518 314.784 181.863 315.13 182.29 315.13Z" fill="white"></path><path d="M195.669 315.13C196.095 315.13 196.441 314.784 196.441 314.357C196.441 313.931 196.095 313.585 195.669 313.585C195.242 313.585 194.896 313.931 194.896 314.357C194.896 314.784 195.242 315.13 195.669 315.13Z" fill="white"></path><path d="M95.3446 304.2C95.7711 304.2 96.1169 303.854 96.1169 303.428C96.1169 303.001 95.7711 302.655 95.3446 302.655C94.9181 302.655 94.5723 303.001 94.5723 303.428C94.5723 303.854 94.9181 304.2 95.3446 304.2Z" fill="white"></path><path d="M108.708 304.2C109.134 304.2 109.48 303.854 109.48 303.428C109.48 303.001 109.134 302.655 108.708 302.655C108.281 302.655 107.936 303.001 107.936 303.428C107.936 303.854 108.281 304.2 108.708 304.2Z" fill="white"></path><path d="M122.087 304.2C122.513 304.2 122.859 303.854 122.859 303.428C122.859 303.001 122.513 302.655 122.087 302.655C121.66 302.655 121.314 303.001 121.314 303.428C121.314 303.854 121.66 304.2 122.087 304.2Z" fill="white"></path><path d="M135.468 304.2C135.894 304.2 136.24 303.854 136.24 303.428C136.24 303.001 135.894 302.655 135.468 302.655C135.041 302.655 134.695 303.001 134.695 303.428C134.695 303.854 135.041 304.2 135.468 304.2Z" fill="white"></path><path d="M149.615 303.414C149.617 303.516 149.598 303.617 149.56 303.712C149.522 303.806 149.465 303.892 149.393 303.964C149.321 304.036 149.235 304.093 149.14 304.131C149.046 304.17 148.945 304.188 148.843 304.187C148.638 304.187 148.441 304.105 148.297 303.96C148.152 303.816 148.07 303.619 148.07 303.414C148.07 303.209 148.152 303.013 148.297 302.868C148.441 302.723 148.638 302.642 148.843 302.642C148.945 302.64 149.046 302.659 149.14 302.697C149.235 302.735 149.321 302.792 149.393 302.864C149.465 302.936 149.522 303.022 149.56 303.117C149.598 303.211 149.617 303.312 149.615 303.414Z" fill="white"></path><path d="M162.223 304.2C162.65 304.2 162.996 303.854 162.996 303.428C162.996 303.001 162.65 302.655 162.223 302.655C161.797 302.655 161.451 303.001 161.451 303.428C161.451 303.854 161.797 304.2 162.223 304.2Z" fill="white"></path><path d="M175.602 304.2C176.029 304.2 176.375 303.854 176.375 303.428C176.375 303.001 176.029 302.655 175.602 302.655C175.176 302.655 174.83 303.001 174.83 303.428C174.83 303.854 175.176 304.2 175.602 304.2Z" fill="white"></path><path d="M188.979 304.2C189.406 304.2 189.752 303.854 189.752 303.428C189.752 303.001 189.406 302.655 188.979 302.655C188.553 302.655 188.207 303.001 188.207 303.428C188.207 303.854 188.553 304.2 188.979 304.2Z" fill="white"></path><path d="M88.6571 338.037C89.0836 338.037 89.4294 337.691 89.4294 337.264C89.4294 336.838 89.0836 336.492 88.6571 336.492C88.2306 336.492 87.8848 336.838 87.8848 337.264C87.8848 337.691 88.2306 338.037 88.6571 338.037Z" fill="white"></path><path d="M102.02 338.037C102.447 338.037 102.793 337.691 102.793 337.264C102.793 336.838 102.447 336.492 102.02 336.492C101.594 336.492 101.248 336.838 101.248 337.264C101.248 337.691 101.594 338.037 102.02 338.037Z" fill="white"></path><path d="M115.399 338.037C115.826 338.037 116.172 337.691 116.172 337.264C116.172 336.838 115.826 336.492 115.399 336.492C114.973 336.492 114.627 336.838 114.627 337.264C114.627 337.691 114.973 338.037 115.399 338.037Z" fill="white"></path><path d="M128.776 338.037C129.203 338.037 129.549 337.691 129.549 337.264C129.549 336.838 129.203 336.492 128.776 336.492C128.35 336.492 128.004 336.838 128.004 337.264C128.004 337.691 128.35 338.037 128.776 338.037Z" fill="white"></path><path d="M142.155 338.037C142.582 338.037 142.927 337.691 142.927 337.264C142.927 336.838 142.582 336.492 142.155 336.492C141.729 336.492 141.383 336.838 141.383 337.264C141.383 337.691 141.729 338.037 142.155 338.037Z" fill="white"></path><path d="M155.534 338.037C155.961 338.037 156.306 337.691 156.306 337.264C156.306 336.838 155.961 336.492 155.534 336.492C155.107 336.492 154.762 336.838 154.762 337.264C154.762 337.691 155.107 338.037 155.534 338.037Z" fill="white"></path><path d="M168.911 338.037C169.338 338.037 169.683 337.691 169.683 337.264C169.683 336.838 169.338 336.492 168.911 336.492C168.484 336.492 168.139 336.838 168.139 337.264C168.139 337.691 168.484 338.037 168.911 338.037Z" fill="white"></path><path d="M182.29 338.037C182.716 338.037 183.062 337.691 183.062 337.264C183.062 336.838 182.716 336.492 182.29 336.492C181.863 336.492 181.518 336.838 181.518 337.264C181.518 337.691 181.863 338.037 182.29 338.037Z" fill="white"></path><path d="M195.669 338.037C196.095 338.037 196.441 337.691 196.441 337.264C196.441 336.838 196.095 336.492 195.669 336.492C195.242 336.492 194.896 336.838 194.896 337.264C194.896 337.691 195.242 338.037 195.669 338.037Z" fill="white"></path><path d="M95.3446 327.107C95.7711 327.107 96.1169 326.761 96.1169 326.335C96.1169 325.908 95.7711 325.562 95.3446 325.562C94.9181 325.562 94.5723 325.908 94.5723 326.335C94.5723 326.761 94.9181 327.107 95.3446 327.107Z" fill="white"></path><path d="M108.708 327.107C109.134 327.107 109.48 326.761 109.48 326.335C109.48 325.908 109.134 325.562 108.708 325.562C108.281 325.562 107.936 325.908 107.936 326.335C107.936 326.761 108.281 327.107 108.708 327.107Z" fill="white"></path><path d="M122.087 327.107C122.513 327.107 122.859 326.761 122.859 326.335C122.859 325.908 122.513 325.562 122.087 325.562C121.66 325.562 121.314 325.908 121.314 326.335C121.314 326.761 121.66 327.107 122.087 327.107Z" fill="white"></path><path d="M135.468 327.107C135.894 327.107 136.24 326.761 136.24 326.335C136.24 325.908 135.894 325.562 135.468 325.562C135.041 325.562 134.695 325.908 134.695 326.335C134.695 326.761 135.041 327.107 135.468 327.107Z" fill="white"></path><path d="M149.615 326.282C149.617 326.384 149.598 326.485 149.56 326.58C149.522 326.674 149.465 326.76 149.393 326.832C149.321 326.904 149.235 326.961 149.14 326.999C149.046 327.037 148.945 327.056 148.843 327.054C148.638 327.054 148.441 326.973 148.297 326.828C148.152 326.683 148.07 326.487 148.07 326.282C148.074 326.078 148.156 325.884 148.3 325.74C148.444 325.596 148.639 325.513 148.843 325.51C148.944 325.51 149.045 325.53 149.138 325.569C149.232 325.607 149.317 325.664 149.389 325.736C149.46 325.808 149.517 325.893 149.556 325.987C149.595 326.08 149.615 326.181 149.615 326.282Z" fill="white"></path><path d="M162.223 327.107C162.65 327.107 162.996 326.761 162.996 326.335C162.996 325.908 162.65 325.562 162.223 325.562C161.797 325.562 161.451 325.908 161.451 326.335C161.451 326.761 161.797 327.107 162.223 327.107Z" fill="white"></path><path d="M175.602 327.107C176.029 327.107 176.375 326.761 176.375 326.335C176.375 325.908 176.029 325.562 175.602 325.562C175.176 325.562 174.83 325.908 174.83 326.335C174.83 326.761 175.176 327.107 175.602 327.107Z" fill="white"></path><path d="M188.979 327.107C189.406 327.107 189.752 326.761 189.752 326.335C189.752 325.908 189.406 325.562 188.979 325.562C188.553 325.562 188.207 325.908 188.207 326.335C188.207 326.761 188.553 327.107 188.979 327.107Z" fill="white"></path><path d="M139.694 146.219L95.0957 253.555C100.764 222.768 107.636 191.17 114.731 172.229C120.425 156.9 131.67 147.423 139.734 146.245L139.694 146.219Z" fill="#263238"></path><path d="M116.079 158.51C95.9595 175.527 57.5263 216.996 66.3361 234.693C73.7322 249.615 89.6107 234.837 130.204 245.256C134.877 246.461 147.038 213.566 142.339 211.432C132.665 207.047 107.976 206.943 107.976 206.943C106.55 206.249 120.347 185.58 133.555 162.045C142.914 145.29 132.809 144.413 116.079 158.51Z" fill="#EB9481"></path><path d="M137.062 209.705C137.062 209.705 150.703 206.576 157.536 203.16C166.097 198.932 168.623 204.246 165.233 207.898C161.736 211.363 157.632 214.154 153.124 216.132L137.062 209.705Z" fill="#EB9481"></path><path d="M134.575 209.325C137.665 209.757 155.153 212.323 161.685 215.647C167.183 218.449 178.703 227.022 177.695 231.08C176.687 235.138 172.289 233.567 172.289 233.567C172.289 233.567 177.904 237.285 176.464 241.277C175.024 245.269 168.348 242.586 168.348 242.586C168.348 242.586 173.82 246.827 172.105 250.702C170.391 254.576 164.251 250.008 164.251 250.008C164.251 250.008 169.108 255.807 165.94 258.372C162.772 260.938 150.794 252.181 149.577 251.539C148.36 250.898 136.369 247.364 131.25 245.544L122.205 243.11L134.575 209.325Z" fill="#EB9481"></path><path d="M164.095 250.008C158.414 243.463 154.801 241.618 146.633 239.183C146.476 239.183 146.515 238.882 146.633 238.921C154.841 240.583 159.723 242.272 164.383 249.746C164.671 250.113 164.383 250.361 164.095 250.008Z" fill="#263238"></path><path d="M168.493 242.652C161.948 236.408 158.021 234.34 149.722 231.159C149.604 231.159 149.722 230.91 149.8 230.949C158.257 233.384 163.087 235.177 168.755 242.285C169.017 242.599 168.781 242.94 168.493 242.652Z" fill="#263238"></path><path d="M172.132 233.345C165.404 227.742 161.228 225.294 152.706 223.252C152.664 223.252 152.624 223.236 152.595 223.206C152.565 223.177 152.549 223.137 152.549 223.095C152.549 223.054 152.565 223.014 152.595 222.984C152.624 222.955 152.664 222.938 152.706 222.938C161.581 224.182 166.83 227.193 172.224 233.122C172.656 233.567 172.564 233.737 172.132 233.345Z" fill="#263238"></path><path d="M159.341 214.862C152.012 212.38 144.437 210.699 136.747 209.849C136.537 209.849 136.852 209.692 137.061 209.705C144.844 209.707 152.531 211.423 159.576 214.731C160.074 215.019 159.864 215.019 159.341 214.862Z" fill="#263238"></path><path d="M136.041 157.49C132.69 166.456 115.895 195.293 115.895 195.293L96.5082 186.64L96.1678 186.496L83.8105 180.986C83.8105 180.986 113.997 156.678 127.283 149.924C140.57 143.169 139.824 147.397 136.041 157.49Z" fill="#FFC727"></path><path d="M128.776 154.767C129.203 154.767 129.549 154.421 129.549 153.995C129.549 153.568 129.203 153.222 128.776 153.222C128.35 153.222 128.004 153.568 128.004 153.995C128.004 154.421 128.35 154.767 128.776 154.767Z" fill="white"></path><path d="M102.02 177.674C102.447 177.674 102.793 177.328 102.793 176.902C102.793 176.475 102.447 176.129 102.02 176.129C101.594 176.129 101.248 176.475 101.248 176.902C101.248 177.328 101.594 177.674 102.02 177.674Z" fill="white"></path><path d="M115.399 177.674C115.826 177.674 116.172 177.328 116.172 176.902C116.172 176.475 115.826 176.129 115.399 176.129C114.973 176.129 114.627 176.475 114.627 176.902C114.627 177.328 114.973 177.674 115.399 177.674Z" fill="white"></path><path d="M108.708 166.744C109.134 166.744 109.48 166.398 109.48 165.972C109.48 165.545 109.134 165.199 108.708 165.199C108.281 165.199 107.936 165.545 107.936 165.972C107.936 166.398 108.281 166.744 108.708 166.744Z" fill="white"></path><path d="M122.087 166.744C122.513 166.744 122.859 166.398 122.859 165.972C122.859 165.545 122.513 165.199 122.087 165.199C121.66 165.199 121.314 165.545 121.314 165.972C121.314 166.398 121.66 166.744 122.087 166.744Z" fill="white"></path><path d="M108.708 189.651C109.134 189.651 109.48 189.305 109.48 188.879C109.48 188.452 109.134 188.107 108.708 188.107C108.281 188.107 107.936 188.452 107.936 188.879C107.936 189.305 108.281 189.651 108.708 189.651Z" fill="white"></path><path d="M132.311 149.138C132.05 148.536 149.591 170.082 156.084 169.218C161.084 168.59 157.523 149.95 156.084 149.243C146.266 144.478 140.257 143.732 132.311 149.138Z" fill="#EB9481"></path><path d="M138.293 148.732C138.804 150.041 146.54 157.895 152.692 156.743C154.708 156.351 153.072 145.316 153.072 145.316V144.465L153.988 132.684L139.393 126.009L137.285 125.145C137.285 125.145 137.285 128.391 137.285 132.423V132.999C137.285 133.234 137.285 133.444 137.285 133.666C137.285 134.268 137.285 134.883 137.285 135.499C137.285 136.114 137.285 136.415 137.285 136.912V138.365C137.385 141.84 137.722 145.304 138.293 148.732Z" fill="#EB9481"></path><path d="M137.246 132.409C138.858 135.454 141.116 138.11 143.861 140.192C146.605 142.274 149.771 143.733 153.138 144.465L154.054 132.684L139.393 126.009L137.285 125.145C137.285 125.145 137.246 128.378 137.246 132.409Z" fill="#263238"></path><path d="M166.988 112.186C171.792 132.383 160.233 137.541 155.874 138.562C151.947 139.504 138.346 142.188 131.474 122.605C124.601 103.023 132.482 94.3968 141.409 91.7789C150.337 89.1609 162.184 91.9752 166.988 112.186Z" fill="#EB9481"></path><path d="M162.524 110C162.049 110.026 161.573 110.026 161.098 110C160.589 110.049 160.079 109.929 159.645 109.659C159.525 109.548 159.446 109.4 159.42 109.239C159.393 109.078 159.422 108.913 159.501 108.769C159.695 108.506 159.957 108.3 160.259 108.174C160.561 108.047 160.891 108.004 161.215 108.049C161.883 108.041 162.531 108.279 163.035 108.717C163.126 108.826 163.185 108.957 163.207 109.096C163.23 109.236 163.214 109.379 163.161 109.51C163.109 109.642 163.022 109.756 162.91 109.843C162.798 109.929 162.665 109.983 162.524 110Z" fill="#263238"></path><path d="M148.386 112.775C148.832 112.624 149.269 112.45 149.695 112.251C150.208 112.146 150.67 111.869 151.004 111.466C151.085 111.323 151.115 111.157 151.089 110.995C151.063 110.834 150.982 110.685 150.86 110.576C150.593 110.391 150.28 110.281 149.955 110.258C149.631 110.235 149.306 110.3 149.015 110.445C148.375 110.647 147.833 111.081 147.496 111.662C147.43 111.796 147.403 111.947 147.419 112.095C147.434 112.244 147.493 112.386 147.586 112.503C147.68 112.62 147.805 112.707 147.947 112.755C148.088 112.804 148.241 112.81 148.386 112.775Z" fill="#263238"></path><path d="M152.014 117.487C152.014 117.487 151.909 117.579 151.922 117.631C152.236 119.019 152.354 120.642 151.176 121.349C151.176 121.349 151.176 121.44 151.176 121.349C152.694 120.917 152.524 118.744 152.014 117.487Z" fill="#263238"></path><path d="M150.493 116.27C148.228 116.532 148.896 121.035 150.99 120.812C153.085 120.589 152.391 116.06 150.493 116.27Z" fill="#263238"></path><path d="M149.695 116.649C149.342 116.964 149.015 117.474 148.556 117.579C148.098 117.683 147.522 117.317 147.09 116.911C147.09 116.911 147.012 116.911 147.025 116.911C147.143 117.775 147.601 118.613 148.556 118.6C149.512 118.587 149.865 117.736 149.996 116.833C149.957 116.741 149.787 116.518 149.695 116.649Z" fill="#263238"></path><path d="M160.666 115.537C160.666 115.537 160.784 115.537 160.797 115.641C160.954 117.055 161.36 118.639 162.695 118.914V118.992C161.111 119.019 160.587 116.846 160.666 115.537Z" fill="#263238"></path><path d="M161.714 113.914C163.939 113.416 164.751 117.84 162.695 118.364C160.64 118.888 159.842 114.319 161.714 113.914Z" fill="#263238"></path><path d="M162.707 114.031C163.099 114.215 163.531 114.581 164.016 114.529C164.5 114.476 164.788 113.927 165.011 113.403C165.011 113.403 165.076 113.403 165.089 113.403C165.272 114.267 165.089 115.209 164.356 115.524C163.623 115.838 162.942 115.17 162.589 114.359C162.458 114.228 162.537 113.966 162.707 114.031Z" fill="#263238"></path><path d="M159.316 122.082C159.316 122.082 159.931 124.111 160.102 125.092C160.102 125.184 159.879 125.276 159.552 125.341C158.733 125.632 157.849 125.69 156.999 125.51C156.149 125.33 155.365 124.918 154.735 124.32C154.643 124.242 154.735 124.124 154.852 124.163C156.243 124.82 157.809 125.008 159.316 124.7C159.316 124.412 158.138 121.244 158.282 121.205C159.057 121.152 159.836 121.2 160.599 121.349C159.421 117.068 157.575 113.01 156.463 108.73C156.449 108.697 156.448 108.66 156.462 108.627C156.475 108.594 156.502 108.567 156.535 108.553C156.567 108.54 156.605 108.539 156.638 108.553C156.671 108.566 156.697 108.592 156.711 108.625C158.816 112.936 160.491 117.443 161.712 122.082C161.882 122.645 159.735 122.239 159.316 122.082Z" fill="#263238"></path><path d="M159.342 124.7C158.976 125.622 158.376 126.434 157.601 127.056C157.17 127.38 156.648 127.563 156.109 127.579C154.918 127.579 154.604 126.598 154.564 125.668C154.553 125.176 154.597 124.684 154.695 124.202C156.151 124.861 157.78 125.036 159.342 124.7Z" fill="#263238"></path><path d="M157.549 127.017C157.117 127.341 156.596 127.524 156.056 127.54C154.865 127.54 154.551 126.558 154.512 125.629C155.1 125.486 155.72 125.545 156.271 125.796C156.822 126.048 157.272 126.478 157.549 127.017Z" fill="#FF9BBC"></path><path d="M131.643 122.671C133.973 122.147 139.013 114.699 137.325 103.35C137.325 103.35 138.136 113.639 137.613 115.262C137.089 116.885 140.427 111.06 139.196 101.897C142.412 103.48 145.837 104.595 149.368 105.209C153.884 105.706 156.515 105.209 156.764 104.869C157.012 104.528 150.349 103.56 148.307 101.858C148.307 101.858 160.651 105.301 166.005 104.829C166.634 104.829 165.285 92.0799 156.227 88.0875C147.168 84.0951 135.191 92.0145 132.259 95.9414C132.259 95.9414 128.266 97.2504 124.823 103.979C121.381 110.707 129.143 123.247 131.643 122.671Z" fill="#263238"></path><path d="M135.061 123.391C135.061 123.391 129.628 117.644 126.958 119.673C124.287 121.702 129.026 130.485 132.626 131.258C133.086 131.387 133.567 131.42 134.041 131.357C134.515 131.294 134.97 131.135 135.381 130.89C135.791 130.645 136.147 130.32 136.427 129.933C136.708 129.546 136.906 129.106 137.011 128.64L135.061 123.391Z" fill="#EB9481"></path><path d="M128.371 122.16C128.371 122.16 128.371 122.239 128.371 122.252C130.911 122.867 132.495 124.87 133.725 127.069C133.551 126.849 133.331 126.67 133.081 126.544C132.831 126.418 132.556 126.347 132.277 126.337C131.997 126.327 131.718 126.378 131.459 126.487C131.201 126.595 130.969 126.758 130.78 126.964C130.714 126.964 130.78 127.108 130.858 127.095C131.257 126.892 131.71 126.821 132.153 126.892C132.595 126.962 133.003 127.171 133.319 127.488C133.85 128.012 134.324 128.591 134.733 129.216C134.877 129.412 135.243 129.216 135.126 129.006C134.707 125.904 131.696 121.977 128.371 122.16Z" fill="#263238"></path><path d="M269.689 324.951L263.767 324.002L175.436 328.443L223.794 402.894L229.716 403.832C242.648 395.28 253.133 383.511 260.141 369.681C267.15 355.852 270.44 340.437 269.689 324.951Z" fill="#FFC727"></path><g opacity="0.1"><path opacity="0.1" d="M263.768 324.002L269.69 324.951C270.442 340.436 267.154 355.85 260.147 369.679C253.141 383.509 242.658 395.278 229.728 403.832L223.795 402.894C236.729 394.341 247.215 382.57 254.223 368.738C261.232 354.907 264.521 339.49 263.768 324.002Z" fill="#263238"></path></g><path d="M167.492 235.042L169.12 235.121H168.453L167.492 235.042Z" fill="#455A64"></path><path d="M257.891 320.521C257.834 319.165 257.744 317.809 257.608 316.487V315.945V315.673C257.608 315.515 257.608 315.357 257.552 315.199V315.018V314.905C257.552 314.769 257.552 314.634 257.552 314.476C257.546 314.408 257.546 314.34 257.552 314.272C257.552 313.877 257.45 313.481 257.394 313.085C257.337 312.69 257.258 312.091 257.168 311.481C257.077 310.871 256.987 310.351 256.885 309.695C256.783 309.04 256.727 308.78 256.648 308.339V308.26C256.444 307.13 256.218 306.079 255.97 304.994C255.891 304.632 255.8 304.271 255.71 303.864C255.54 303.129 255.359 302.406 255.167 301.683C255.054 301.253 254.93 300.824 254.817 300.395C254.625 299.75 254.444 299.095 254.252 298.462C254.116 298.01 253.969 297.558 253.822 297.117C253.619 296.507 253.427 295.886 253.212 295.287L252.726 293.931C252.511 293.343 252.285 292.8 252.059 292.168C251.833 291.535 251.709 291.263 251.517 290.811C251.325 290.359 251.042 289.681 250.805 289.105C250.568 288.529 250.409 288.212 250.206 287.772C250.003 287.331 249.697 286.641 249.426 286.099C249.155 285.557 249.008 285.229 248.793 284.799C248.579 284.37 248.228 283.669 247.946 283.149L247.279 281.884C246.974 281.33 246.657 280.754 246.352 280.245L245.663 279.047C245.324 278.482 244.973 277.917 244.634 277.375C244.397 277.013 244.171 276.64 243.945 276.245L242.747 274.459L242.126 273.544C241.549 272.719 240.995 271.905 240.351 271.103L240.227 270.922C239.571 270.063 238.905 269.215 238.227 268.379L237.548 267.577C237.085 267.012 236.622 266.447 236.136 265.904L235.277 264.955C234.938 264.571 234.588 264.175 234.237 263.825L233.977 263.565C233.536 263.09 233.073 262.627 232.621 262.164L231.581 261.101C231.095 260.627 230.598 260.175 230.112 259.711C229.626 259.248 229.434 259.056 229.084 258.74L227.276 257.406C226.948 257.124 226.643 256.841 226.315 256.57C225.648 256.005 224.959 255.44 224.269 254.92L223.67 254.434L223.399 254.219C222.665 253.654 221.93 253.089 221.139 252.558L220.291 251.959L218.562 250.829L217.579 250.185C217.025 249.823 216.449 249.473 215.895 249.122C215.567 248.908 215.228 248.704 214.878 248.501L214.29 248.128L212.912 247.348L212.279 246.987C211.397 246.497 210.504 246.022 209.6 245.563L208.99 245.258L206.843 244.218L205.961 243.811L205.159 243.449L203.803 242.873L203.147 242.602C202.22 242.218 201.294 241.845 200.344 241.472L199.712 241.246C198.954 240.975 198.197 240.703 197.451 240.455L196.581 240.172L195.903 239.946L194.14 239.426L193.62 239.268C192.648 238.997 191.654 238.737 190.67 238.5L189.879 238.308L187.619 237.81L186.704 237.618L186.082 237.494L183.686 237.076L177.923 236.16H177.764C176.634 235.968 175.425 235.821 174.238 235.697C173.481 235.607 172.724 235.539 171.978 235.471H171.876L169.944 235.313L169.198 235.245L169.819 235.302C168.893 235.245 167.966 235.188 167.028 235.155C166.09 235.121 165.084 235.087 164.101 235.087C162.575 235.087 161.061 235.087 159.524 235.2C157.987 235.313 156.755 235.369 155.388 235.505L153.625 235.697C152.98 235.765 152.336 235.855 151.681 235.946C151.025 236.036 150.404 236.126 149.737 236.239L147.85 236.567C106.6 244.308 75.5209 281.115 75.2949 323.98C75.2949 325.505 75.2949 327.031 75.3966 328.579C75.3966 329.347 75.487 330.105 75.5436 330.839C75.5436 331.416 75.6227 331.969 75.6792 332.557C75.7357 333.145 75.7696 333.517 75.8261 333.992C75.8826 334.467 75.9504 335.122 76.0295 335.721C76.1086 336.32 76.1764 336.851 76.3007 337.665C76.3685 338.151 76.4477 338.637 76.6059 339.586C76.6737 339.97 76.7415 340.343 76.8206 340.716C76.8997 341.089 76.9901 341.632 77.0692 342.084C80.6562 359.744 89.5285 375.897 102.509 388.399C115.489 400.9 131.965 409.16 149.748 412.081C151.014 412.285 152.291 412.454 154.088 412.669L160.01 413.607L169.65 325.064L257.891 320.521ZM250.568 307.322C250.568 307.254 250.568 307.175 250.511 307.107C250.516 307.175 250.516 307.243 250.511 307.311L250.568 307.322Z" fill="#455A64"></path><path d="M167.492 235.042L169.12 235.121H168.453L167.492 235.042Z" fill="#263238"></path><path d="M257.892 320.522C257.835 319.165 257.745 317.809 257.609 316.487V315.945V315.673C257.609 315.515 257.609 315.357 257.553 315.199V315.018V314.905C257.553 314.769 257.553 314.634 257.553 314.476C257.547 314.408 257.547 314.34 257.553 314.272C257.553 313.877 257.451 313.481 257.394 313.086C257.338 312.69 257.259 312.091 257.168 311.481C257.078 310.871 256.988 310.351 256.886 309.695C256.784 309.04 256.728 308.78 256.649 308.339V308.26C256.445 307.13 256.219 306.079 255.97 304.994C255.891 304.632 255.801 304.271 255.711 303.864C255.541 303.129 255.36 302.406 255.168 301.683C255.055 301.254 254.931 300.824 254.818 300.395C254.626 299.751 254.445 299.095 254.253 298.462C254.117 298.01 253.97 297.558 253.823 297.117C253.62 296.507 253.428 295.886 253.213 295.287L252.727 293.931C252.512 293.343 252.286 292.8 252.06 292.168C251.834 291.535 251.71 291.264 251.518 290.812C251.326 290.359 251.043 289.681 250.806 289.105C250.568 288.529 250.41 288.212 250.207 287.772C250.003 287.331 249.698 286.641 249.427 286.099C249.156 285.557 249.009 285.229 248.794 284.799C248.579 284.37 248.229 283.669 247.947 283.15L247.28 281.884C246.975 281.33 246.658 280.754 246.353 280.245L245.664 279.047C245.325 278.482 244.974 277.917 244.635 277.375C244.398 277.013 244.172 276.64 243.946 276.245L242.748 274.459L242.126 273.544C241.55 272.719 240.996 271.905 240.352 271.103L240.228 270.922C239.572 270.063 238.905 269.216 238.227 268.379L237.549 267.577C237.086 267.012 236.623 266.447 236.137 265.904L235.278 264.955C234.939 264.571 234.588 264.175 234.238 263.825L233.978 263.565C233.537 263.09 233.074 262.627 232.622 262.164L231.582 261.101C231.096 260.627 230.599 260.175 230.113 259.711C229.627 259.248 229.435 259.056 229.085 258.74L227.276 257.406C226.949 257.124 226.643 256.841 226.316 256.57C225.649 256.005 224.96 255.44 224.27 254.92L223.671 254.434L223.4 254.219C222.665 253.654 221.931 253.089 221.14 252.558L220.292 251.959L218.563 250.829L217.58 250.185C217.026 249.823 216.45 249.473 215.896 249.123C215.568 248.908 215.229 248.704 214.879 248.501L214.291 248.128L212.912 247.348L212.279 246.987C211.398 246.497 210.505 246.022 209.601 245.563L208.991 245.258L206.843 244.218L205.962 243.811L205.16 243.45L203.803 242.873L203.148 242.602C202.221 242.218 201.295 241.845 200.345 241.472L199.712 241.246C198.955 240.975 198.198 240.703 197.452 240.455L196.582 240.172L195.904 239.946L194.141 239.426L193.621 239.268C192.649 238.997 191.654 238.737 190.671 238.5L189.88 238.308L187.62 237.81L186.704 237.618L186.083 237.494L183.687 237.076L177.923 236.16H177.765C175.821 235.844 173.844 235.629 171.866 235.46L169.922 235.302L169.176 235.234L169.798 235.29C167.91 235.166 166 235.087 164.079 235.076C169.84 235.188 175.582 235.778 181.246 236.838C182.139 237.008 183.032 237.223 183.924 237.426L184.399 237.539C185.439 237.799 186.478 238.07 187.507 238.353L187.778 238.443C188.682 238.703 189.586 238.974 190.479 239.268L191.18 239.494C192.039 239.777 192.886 240.071 193.734 240.387L194.129 240.523C195.101 240.884 196.073 241.268 197.034 241.653L197.576 241.89C198.345 242.206 199.102 242.545 199.837 242.884L200.628 243.246C201.408 243.608 202.187 243.992 202.956 244.376L203.408 244.602C204.335 245.066 205.25 245.563 206.154 246.06L206.674 246.365C207.386 246.761 208.075 247.167 208.776 247.586C209.092 247.766 209.398 247.959 209.714 248.162C210.313 248.524 210.912 248.908 211.5 249.292L212.404 249.88L214.246 251.145L215.003 251.677C215.794 252.253 216.574 252.807 217.342 253.428L217.523 253.564L218.766 254.57C219.252 254.954 219.738 255.338 220.213 255.7C220.688 256.061 221.072 256.434 221.501 256.83C221.931 257.225 222.383 257.598 222.812 257.96C223.242 258.321 223.671 258.751 224.089 259.146L225.332 260.277L226.576 261.542C226.971 261.938 227.367 262.333 227.706 262.751C228.045 263.17 228.678 263.802 229.164 264.334L229.864 265.102C230.407 265.724 230.994 266.345 231.458 266.978L231.966 267.577C233.353 269.28 234.686 271.035 235.967 272.843V272.911C236.577 273.781 237.176 274.663 237.753 275.555L238.16 276.211C238.612 276.911 239.052 277.612 239.482 278.324L239.99 279.205C240.363 279.861 240.748 280.505 241.12 281.172L241.652 282.166C241.991 282.799 242.318 283.443 242.646 284.076C242.827 284.438 242.997 284.799 243.166 285.206C243.471 285.839 243.776 286.472 244.07 287.116C244.24 287.489 244.409 287.862 244.567 288.246C244.85 288.89 245.121 289.535 245.392 290.179L245.856 291.309C246.116 291.964 246.364 292.62 246.602 293.286C246.737 293.671 246.884 294.044 247.02 294.416C247.257 295.106 247.483 295.784 247.709 296.473C247.833 296.846 247.958 297.219 248.071 297.603C248.297 298.327 248.512 299.072 248.715 299.807C248.817 300.146 248.918 300.474 249.009 300.824C249.235 301.66 249.438 302.508 249.642 303.367C249.698 303.604 249.766 303.841 249.823 304.079C250.071 305.209 250.308 306.339 250.512 307.469C250.512 307.311 250.444 307.153 250.422 306.994C250.422 307.141 250.478 307.277 250.501 307.413C250.506 307.435 250.506 307.458 250.501 307.48C250.576 307.925 250.655 308.377 250.738 308.836C250.84 309.447 250.93 310.034 251.02 310.622C251.111 311.21 251.19 311.752 251.247 312.227C251.303 312.701 251.371 313.165 251.416 313.639C251.416 313.798 251.416 313.944 251.473 314.08V314.148C251.473 314.317 251.473 314.464 251.473 314.6C251.473 314.735 251.473 314.848 251.473 314.961V315.018C251.478 315.112 251.478 315.206 251.473 315.301V315.357C251.467 315.436 251.467 315.515 251.473 315.594C251.608 316.928 251.687 318.284 251.755 319.64L163.435 324.07L153.795 412.624L159.717 413.562L169.357 325.019L257.892 320.522Z" fill="#263238"></path><path d="M175.753 335.066L169.831 334.116L160.191 422.67L166.079 423.608C167.684 423.789 169.3 423.913 170.916 423.992C172.532 424.071 173.877 424.117 175.369 424.117C176.861 424.117 178.398 424.117 179.89 424.004L182.026 423.879H182.286L176.364 422.941H176.115H176.375L182.297 423.879L184.297 423.721L186.026 423.506L187.156 423.382C188.287 423.224 189.417 423.043 190.547 422.862L191.609 422.67C203.225 420.527 214.285 416.052 224.123 409.516L175.753 335.066Z" fill="#37474F"></path><path d="M176.216 422.93L174.068 423.066C172.543 423.145 171.028 423.179 169.548 423.179C168.067 423.179 166.576 423.179 165.107 423.054C164.293 423.054 163.49 422.964 162.677 422.896L160.27 422.67L166.191 423.608C167.796 423.789 169.412 423.913 171.028 423.992C172.645 424.071 173.989 424.117 175.481 424.117C176.973 424.117 178.51 424.117 180.002 424.004L182.138 423.879H182.398L176.476 422.941L176.216 422.93Z" fill="#263238"></path><path d="M175.752 335.066L169.83 334.116L218.177 408.578C208.35 415.097 197.306 419.56 185.708 421.698L184.646 421.879C183.516 422.071 182.386 422.252 181.256 422.41L180.182 422.535L178.442 422.749L176.453 422.907L182.375 423.845L184.375 423.687L186.104 423.473L187.234 423.348C188.364 423.19 189.494 423.009 190.625 422.828L191.687 422.636C203.272 420.493 214.305 416.03 224.122 409.516L175.752 335.066Z" fill="#263238"></path><path d="M186.382 305.341L185.184 306.54L185.983 307.339L187.181 306.14L186.382 305.341Z" fill="#263238"></path><path d="M189.541 303.74L188.738 302.937L191.089 300.587L191.891 301.389L189.541 303.74ZM194.242 299.027L193.44 298.236L195.79 295.886L196.593 296.677L194.242 299.027ZM198.943 294.326L198.141 293.524L200.492 291.173L201.294 291.976L198.943 294.326ZM203.645 289.625L202.854 288.823L205.204 286.472L205.995 287.274L203.645 289.625ZM208.357 284.924L207.555 284.121L209.906 281.771L210.708 282.573L208.357 284.924ZM213.059 280.223L212.256 279.42L214.607 277.07L215.409 277.861L213.059 280.223ZM217.76 275.51L216.958 274.719L219.308 272.357L220.111 273.16L217.76 275.51ZM222.462 270.809L221.659 270.007L224.021 267.656L224.812 268.458L222.462 270.809ZM227.163 266.108L226.372 265.305L228.722 262.955L229.525 263.757L227.163 266.108Z" fill="#263238"></path><path d="M231.863 261.452L231.072 260.649L232.428 259.293H234.361V260.423H232.903L231.863 261.452Z" fill="#263238"></path><path d="M270.13 260.412H266.548V259.282H270.13V260.412ZM262.977 260.412H259.383V259.282H262.965L262.977 260.412ZM255.823 260.412H252.24V259.282H255.823V260.412ZM248.669 260.412H245.098V259.282H248.669V260.412ZM241.515 260.412H237.91V259.282H241.481L241.515 260.412Z" fill="#263238"></path><path d="M275.396 259.293H273.701V260.423H275.396V259.293Z" fill="#263238"></path><path d="M183.664 313.741C182.834 313.741 182.024 313.495 181.334 313.034C180.645 312.574 180.107 311.919 179.79 311.153C179.473 310.387 179.389 309.544 179.551 308.73C179.713 307.917 180.112 307.17 180.699 306.584C181.285 305.997 182.032 305.598 182.846 305.436C183.659 305.275 184.502 305.358 185.268 305.675C186.034 305.992 186.689 306.53 187.15 307.219C187.61 307.909 187.856 308.719 187.856 309.548C187.856 310.66 187.415 311.727 186.628 312.513C185.842 313.299 184.776 313.741 183.664 313.741ZM183.664 306.497C183.057 306.497 182.465 306.677 181.961 307.014C181.457 307.351 181.064 307.83 180.833 308.39C180.601 308.951 180.541 309.567 180.661 310.161C180.78 310.756 181.072 311.301 181.502 311.729C181.931 312.157 182.478 312.448 183.073 312.565C183.668 312.682 184.284 312.619 184.843 312.386C185.403 312.152 185.88 311.758 186.216 311.253C186.551 310.748 186.728 310.155 186.726 309.548C186.726 309.147 186.647 308.749 186.493 308.378C186.339 308.007 186.113 307.67 185.828 307.387C185.544 307.103 185.206 306.879 184.835 306.726C184.463 306.573 184.065 306.496 183.664 306.497Z" fill="#263238"></path><path d="M292.88 259.858H281.59V271.148H292.88V259.858Z" fill="#455A64"></path><path d="M337.792 278.234H281.082V280.042H337.792V278.234Z" fill="#263238"></path><path d="M321.722 282.969H281.082V284.777H321.722V282.969Z" fill="#A6A6A6"></path><path d="M329.079 287.715H281.082V289.523H329.079V287.715Z" fill="#A6A6A6"></path><path d="M274.166 348.288H270.775V347.158H274.166V348.288ZM267.385 348.288H263.995V347.158H267.385V348.288ZM260.604 348.288H257.214V347.158H260.604V348.288ZM253.823 348.288H250.433V347.158H253.823V348.288ZM247.043 348.288H243.652V347.158H247.043V348.288ZM240.262 348.288H236.871V347.158H240.262V348.288ZM233.481 348.288H230.09V347.158H233.481V348.288ZM226.7 348.288H223.31V347.158H226.7V348.288ZM219.919 348.288H216.529V347.158H219.919V348.288ZM213.138 348.288H209.748V347.158H213.138V348.288Z" fill="#263238"></path><path d="M206.131 351.904C205.304 351.904 204.495 351.659 203.808 351.199C203.12 350.74 202.584 350.087 202.268 349.323C201.951 348.559 201.868 347.718 202.03 346.907C202.191 346.096 202.589 345.351 203.174 344.766C203.759 344.181 204.504 343.783 205.315 343.622C206.126 343.461 206.967 343.543 207.731 343.86C208.495 344.176 209.148 344.712 209.608 345.4C210.067 346.087 210.312 346.896 210.312 347.723C210.312 348.832 209.872 349.895 209.087 350.679C208.303 351.464 207.24 351.904 206.131 351.904ZM206.131 344.672C205.527 344.672 204.937 344.851 204.435 345.186C203.934 345.521 203.543 345.998 203.312 346.555C203.081 347.113 203.02 347.726 203.138 348.318C203.256 348.91 203.546 349.454 203.973 349.88C204.4 350.307 204.944 350.598 205.535 350.715C206.127 350.833 206.741 350.773 207.298 350.542C207.856 350.311 208.333 349.92 208.668 349.418C209.003 348.916 209.182 348.326 209.182 347.723C209.182 346.914 208.861 346.137 208.288 345.565C207.716 344.993 206.94 344.672 206.131 344.672Z" fill="#263238"></path><path d="M292.88 347.734H281.59V359.024H292.88V347.734Z" fill="#FFC727"></path><path d="M320.637 366.211H281.082V368.019H320.637V366.211Z" fill="#263238"></path><path d="M333.464 370.957H281.082V372.765H333.464V370.957Z" fill="#A6A6A6"></path><path d="M306.962 375.692H281.082V377.5H306.962V375.692Z" fill="#A6A6A6"></path><path d="M274.674 423.812H271.283V422.681H274.674V423.812ZM267.893 423.812H264.502V422.681H267.893V423.812ZM261.112 423.812H257.722V422.681H261.112V423.812ZM254.331 423.812H250.941V422.681H254.331V423.812ZM247.55 423.812H244.16V422.681H247.55V423.812ZM240.77 423.812H237.379V422.681H240.77V423.812ZM233.989 423.812H230.598V422.681H233.989V423.812ZM227.208 423.812H223.818V422.681H227.208V423.812ZM220.427 423.812H217.037V422.681H220.427V423.812ZM213.646 423.812H210.256V422.681H213.646V423.812ZM206.764 422.941L204.368 420.546L205.159 419.743L207.566 422.139L206.764 422.941ZM201.972 418.15L199.565 415.754L200.367 414.952L202.763 417.347L201.972 418.15ZM197.226 413.358L194.83 410.962L195.632 410.171L198.028 412.567L197.226 413.358ZM192.434 408.567L190.038 406.171L190.84 405.368L193.236 407.764L192.434 408.567ZM187.642 403.775L185.246 401.379L186.037 400.577L188.444 402.973L187.642 403.775Z" fill="#263238"></path><path d="M183.664 402.588C182.838 402.586 182.03 402.339 181.344 401.878C180.658 401.417 180.124 400.764 179.809 399.999C179.494 399.235 179.413 398.395 179.576 397.584C179.738 396.774 180.138 396.03 180.723 395.447C181.308 394.863 182.053 394.466 182.864 394.305C183.675 394.145 184.515 394.228 185.278 394.545C186.042 394.862 186.694 395.398 187.153 396.085C187.612 396.773 187.857 397.581 187.857 398.407C187.857 398.957 187.749 399.502 187.538 400.01C187.327 400.518 187.018 400.979 186.628 401.368C186.239 401.756 185.777 402.064 185.268 402.273C184.759 402.483 184.214 402.59 183.664 402.588ZM183.664 395.356C183.061 395.358 182.472 395.539 181.972 395.876C181.472 396.212 181.083 396.69 180.853 397.247C180.624 397.805 180.565 398.418 180.684 399.009C180.803 399.6 181.095 400.143 181.522 400.569C181.949 400.994 182.493 401.284 183.084 401.401C183.676 401.517 184.289 401.456 184.846 401.225C185.403 400.994 185.879 400.603 186.214 400.101C186.548 399.6 186.727 399.01 186.727 398.407C186.727 398.005 186.648 397.608 186.494 397.237C186.34 396.866 186.114 396.529 185.829 396.246C185.545 395.962 185.207 395.738 184.836 395.585C184.464 395.432 184.066 395.354 183.664 395.356Z" fill="#263238"></path><path d="M292.88 423.247H281.59V434.536H292.88V423.247Z" fill="#263238"></path></g><defs><clipPath id="clip0_684_203"><rect width="466" height="352" fill="white" transform="translate(38 87)"></rect></clipPath></defs></svg>