<svg xmlns="http://www.w3.org/2000/svg" width="559" height="478" viewBox="0 0 559 478" fill="none"><path d="M166.182 96.6184C174.315 60.9569 218.121 47.3439 245.034 72.115L479.979 288.367C506.891 313.138 496.725 357.715 461.68 368.605L155.735 463.678C120.69 474.568 87.0492 443.605 95.182 407.943L166.182 96.6184Z" fill="#E3FFE6"></path><g clip-path="url(#clip0_684_202)"><path d="M528.245 206.987C528.245 205.725 527.997 204.476 527.514 203.31C527.031 202.144 526.323 201.085 525.43 200.192C524.538 199.3 523.478 198.592 522.311 198.11C521.145 197.627 519.894 197.379 518.632 197.38H198.648C196.099 197.38 193.654 198.392 191.851 200.194C190.048 201.995 189.035 204.439 189.035 206.987V214.865H528.245V206.987Z" fill="white"></path><path d="M528.754 215.37H188.529V206.987C188.531 204.305 189.598 201.734 191.495 199.837C193.392 197.94 195.965 196.873 198.648 196.87H518.632C521.316 196.872 523.889 197.939 525.787 199.836C527.685 201.733 528.752 204.305 528.754 206.987V215.37ZM189.545 214.355H527.739V206.987C527.736 204.574 526.775 202.261 525.068 200.555C523.36 198.848 521.046 197.888 518.632 197.885H198.648C196.234 197.888 193.92 198.848 192.213 200.555C190.507 202.261 189.547 204.575 189.545 206.987V214.355Z" fill="#5254CF"></path><path d="M189.035 214.865V418.883C189.037 421.429 190.051 423.871 191.854 425.671C193.656 427.471 196.1 428.482 198.648 428.482H518.632C519.894 428.483 521.145 428.235 522.311 427.752C523.478 427.269 524.538 426.562 525.43 425.669C526.323 424.777 527.031 423.718 527.514 422.552C527.997 421.386 528.245 420.136 528.245 418.874V214.865H189.035Z" fill="white"></path><path d="M518.632 429H198.648C195.965 428.997 193.392 427.93 191.495 426.033C189.598 424.136 188.531 421.565 188.529 418.883V214.355H528.754V418.883C528.752 421.565 527.685 424.137 525.787 426.034C523.889 427.931 521.316 428.998 518.632 429ZM189.545 215.37V418.883C189.547 421.295 190.507 423.609 192.213 425.315C193.92 427.022 196.234 427.982 198.648 427.985H518.632C521.046 427.982 523.36 427.022 525.068 425.315C526.775 423.609 527.736 421.296 527.739 418.883V215.37H189.545Z" fill="#5254CF"></path><path d="M205.784 209.541C207.668 209.371 209.057 207.707 208.888 205.824C208.718 203.941 207.053 202.553 205.169 202.722C203.285 202.892 201.895 204.556 202.065 206.439C202.235 208.322 203.9 209.711 205.784 209.541Z" fill="white"></path><path d="M205.482 210.057C204.703 210.056 203.942 209.825 203.294 209.392C202.647 208.958 202.143 208.343 201.846 207.624C201.548 206.905 201.471 206.113 201.623 205.35C201.776 204.586 202.151 203.885 202.702 203.335C203.253 202.785 203.955 202.41 204.719 202.259C205.483 202.107 206.275 202.185 206.994 202.484C207.714 202.782 208.329 203.286 208.761 203.934C209.194 204.581 209.425 205.342 209.425 206.12C209.424 207.165 209.008 208.166 208.268 208.904C207.529 209.642 206.527 210.057 205.482 210.057ZM205.482 203.211C204.906 203.212 204.344 203.383 203.866 203.703C203.387 204.023 203.015 204.478 202.795 205.01C202.575 205.541 202.518 206.126 202.631 206.69C202.744 207.254 203.022 207.772 203.429 208.179C203.836 208.585 204.355 208.862 204.919 208.974C205.484 209.086 206.069 209.028 206.601 208.808C207.132 208.587 207.587 208.215 207.907 207.736C208.226 207.258 208.397 206.696 208.397 206.12C208.396 205.348 208.088 204.608 207.542 204.063C206.995 203.517 206.254 203.211 205.482 203.211Z" fill="#5254CF"></path><path d="M219.145 209.542C221.029 209.372 222.419 207.708 222.249 205.825C222.079 203.942 220.414 202.554 218.53 202.723C216.646 202.893 215.257 204.557 215.427 206.44C215.596 208.323 217.261 209.712 219.145 209.542Z" fill="white"></path><path d="M218.845 210.057C218.066 210.056 217.305 209.825 216.658 209.392C216.011 208.958 215.506 208.343 215.209 207.624C214.911 206.905 214.834 206.113 214.986 205.35C215.139 204.586 215.514 203.885 216.065 203.335C216.616 202.785 217.318 202.41 218.082 202.259C218.846 202.107 219.638 202.185 220.357 202.484C221.077 202.782 221.692 203.286 222.125 203.934C222.557 204.581 222.788 205.342 222.788 206.12C222.787 207.165 222.371 208.166 221.632 208.904C220.892 209.642 219.89 210.057 218.845 210.057ZM218.845 203.211C218.269 203.212 217.707 203.383 217.229 203.703C216.751 204.023 216.378 204.478 216.158 205.01C215.939 205.541 215.882 206.126 215.995 206.69C216.107 207.254 216.385 207.772 216.792 208.179C217.199 208.585 217.718 208.862 218.283 208.974C218.847 209.086 219.432 209.028 219.964 208.808C220.496 208.587 220.95 208.215 221.27 207.736C221.59 207.258 221.76 206.696 221.76 206.12C221.759 205.348 221.451 204.608 220.905 204.063C220.358 203.517 219.617 203.211 218.845 203.211Z" fill="#5254CF"></path><path d="M232.508 209.543C234.392 209.373 235.782 207.709 235.612 205.826C235.442 203.944 233.778 202.555 231.894 202.724C230.01 202.894 228.62 204.558 228.79 206.441C228.96 208.324 230.625 209.713 232.508 209.543Z" fill="white"></path><path d="M232.208 210.057C231.429 210.056 230.668 209.825 230.021 209.392C229.374 208.958 228.87 208.343 228.572 207.624C228.275 206.905 228.197 206.113 228.35 205.35C228.502 204.586 228.878 203.885 229.429 203.335C229.98 202.785 230.681 202.41 231.445 202.259C232.209 202.107 233.001 202.185 233.721 202.484C234.44 202.782 235.055 203.286 235.488 203.934C235.92 204.581 236.151 205.342 236.151 206.12C236.15 207.165 235.734 208.166 234.995 208.904C234.256 209.642 233.253 210.057 232.208 210.057ZM232.208 203.211C231.633 203.212 231.07 203.383 230.592 203.703C230.114 204.023 229.741 204.478 229.522 205.01C229.302 205.541 229.245 206.126 229.358 206.69C229.471 207.254 229.748 207.772 230.155 208.179C230.563 208.585 231.081 208.862 231.646 208.974C232.211 209.086 232.796 209.028 233.327 208.808C233.859 208.587 234.313 208.215 234.633 207.736C234.953 207.258 235.123 206.696 235.123 206.12C235.122 205.348 234.815 204.608 234.268 204.063C233.722 203.517 232.981 203.211 232.208 203.211Z" fill="#5254CF"></path><path opacity="0.4" d="M492.892 237.109H224.391V398.204H492.892V237.109Z" fill="#E0E0FF"></path><path d="M407.445 427.907H319.785C316.549 397.65 315.715 370.532 318.613 352.5C319.407 347.569 320.463 343.357 321.833 339.917L358.743 332.405L401.66 336.247C408.88 354.924 410.007 388.449 407.445 427.907Z" fill="#FFB147"></path><path d="M361.983 340.801H360.955V375.73H361.983V340.801Z" fill="#1B1B43"></path><path opacity="0.2" d="M401.66 336.247C401.66 336.247 367.102 360.493 318.605 352.5C319.399 347.569 320.456 343.357 321.825 339.917L358.735 332.405L401.66 336.247Z" fill="#1B1B43"></path><path d="M341.342 199.336C341.342 199.336 324.694 220.548 328.703 238.58L387.187 236.139C387.187 236.139 387.684 200.835 374.91 197.832L341.342 199.336Z" fill="#1B1B43"></path><path d="M391.705 234.039H390.677C390.677 210.916 378.643 200.289 378.523 200.186L379.194 199.406C379.317 199.512 391.705 210.447 391.705 234.039Z" fill="#1B1B43"></path><path d="M327.104 319.872C327.035 322.235 326.577 324.57 325.747 326.784C324.701 329.637 323.067 332.239 320.952 334.421C318.836 336.603 316.286 338.318 313.466 339.453C312.064 340.026 310.602 340.439 309.107 340.686C305.888 341.207 302.631 341.454 299.371 341.425C280.457 341.425 266.724 327.067 265.1 322.691C263.476 318.314 268.057 319.868 268.057 319.868C269.726 316.14 273.447 319.144 273.447 319.144C274.569 315.261 278.085 318.885 278.085 318.885C278.085 318.885 278.208 316.757 280.211 316.88C281.444 316.962 285.486 319.42 288.405 321.289C289.891 322.237 291.617 322.741 293.38 322.74C294.082 322.743 294.782 322.663 295.465 322.502C297.221 322.097 298.82 321.188 300.066 319.886C301.312 318.584 302.149 316.946 302.475 315.175L308.141 284.354H321.545L325.825 289.84C327.527 296.633 327.424 310.543 327.104 319.872Z" fill="#FFBC96"></path><path opacity="0.4" d="M325.748 326.784C324.702 329.637 323.068 332.239 320.953 334.421C318.837 336.603 316.287 338.318 313.467 339.453C312.98 338.28 312.729 337.024 312.727 335.754C312.726 334.494 312.974 333.246 313.456 332.082C313.939 330.917 314.646 329.859 315.537 328.968C316.429 328.077 317.488 327.37 318.653 326.888C319.818 326.406 321.066 326.158 322.327 326.159C323.496 326.161 324.654 326.372 325.748 326.784Z" fill="#FE5B52"></path><path d="M356.07 225.249L328.522 230.867C323.563 231.876 319.008 234.312 315.416 237.875C311.824 241.438 309.352 245.972 308.305 250.92L300.793 286.339L325.845 289.844L356.07 225.249Z" fill="#5254CF"></path><path d="M365.676 225.249L393.224 230.867C398.182 231.876 402.738 234.312 406.33 237.875C409.921 241.438 412.393 245.972 413.441 250.92L416.845 276.074L392.545 280.331L365.676 225.249Z" fill="#5254CF"></path><path d="M325.847 289.844C325.847 289.844 324.51 330.24 321.838 339.921C321.838 339.921 359.254 352.94 401.665 336.247L398.322 261.806L365.676 225.233H356.071L323.507 267.465L325.847 289.844Z" fill="#5254CF"></path><path d="M448.923 226.252C449.075 228.89 444.729 236.883 441.386 242.607C438.926 246.814 437.359 251.482 436.781 256.32C432.476 292.483 429.627 322.74 417.045 331.213C414.126 333.174 410.693 333.975 406.602 333.412C403.921 333.074 401.406 331.927 399.394 330.124C386.134 318.335 392.569 280.344 392.569 280.344L409.015 277.504C409.015 277.504 412.716 246.458 415.031 235.773C417.345 225.089 421.042 230.772 421.042 230.772C422.378 227.435 426.05 229.437 426.05 229.437C428.722 225.101 432.061 228.43 432.061 228.43C434.067 224.432 439.75 231.438 439.75 231.438C443.417 229.753 448.594 220.7 448.923 226.252Z" fill="#FFBC96"></path><path d="M326.931 255.916L325.314 289.804L326.341 289.853L327.958 255.965L326.931 255.916Z" fill="#1B1B43"></path><path d="M392.097 280.935L389.996 253.941L391.02 253.863L393.035 279.731L408.926 276.99L409.103 278.001L392.097 280.935Z" fill="#1B1B43"></path><path d="M412.413 248.678L404.885 305.525L405.904 305.659L413.432 248.813L412.413 248.678Z" fill="#D28572"></path><path opacity="0.4" d="M417.038 331.213C414.119 333.174 410.685 333.975 406.594 333.412C403.913 333.074 401.399 331.927 399.387 330.124C400.228 328.437 401.549 327.034 403.184 326.092C404.818 325.15 406.694 324.71 408.578 324.828C410.461 324.945 412.268 325.615 413.772 326.753C415.277 327.891 416.413 329.446 417.038 331.226V331.213Z" fill="#FE5B52"></path><path d="M421.561 230.642L420.545 230.799L421.496 236.947L422.512 236.79L421.561 230.642Z" fill="#D28572"></path><path d="M426.676 229.271L425.699 229.592L427.678 235.612L428.655 235.291L426.676 229.271Z" fill="#D28572"></path><path d="M432.566 227.806L431.598 228.151L433.832 234.427L434.801 234.082L432.566 227.806Z" fill="#D28572"></path><path d="M382.179 251.804H371.472C371.13 251.804 370.852 252.082 370.852 252.425V254.907C370.852 255.249 371.13 255.527 371.472 255.527H382.179C382.522 255.527 382.8 255.249 382.8 254.907V252.425C382.8 252.082 382.522 251.804 382.179 251.804Z" fill="#CBCBFF"></path><path d="M360.033 243.926C355.655 243.853 351.428 242.315 348.027 239.558L348.714 238.798C349.125 239.176 359.178 247.978 371.361 238.769L371.978 239.591C367.669 242.842 363.578 243.926 360.033 243.926Z" fill="#1B1B43"></path><path d="M284.318 324.326C282.131 323.475 279.75 321.651 277.439 319.054L278.208 318.368C280.412 320.833 282.653 322.576 284.688 323.369L284.318 324.326Z" fill="#D28572"></path><path d="M278.447 325.822C276.346 324.495 274.479 322.333 272.748 319.218L273.644 318.717C275.289 321.68 277.045 323.722 278.99 324.955L278.447 325.822Z" fill="#D28572"></path><path d="M274.302 327.729C271.794 325.859 269.483 323.254 267.238 319.757L268.106 319.206C270.281 322.592 272.509 325.111 274.915 326.903L274.302 327.729Z" fill="#D28572"></path><path d="M349.567 209.227H370.441V226.836C370.441 229.603 369.341 232.257 367.384 234.213C365.426 236.17 362.771 237.269 360.002 237.269C357.233 237.269 354.578 236.17 352.62 234.213C350.662 232.257 349.562 229.603 349.562 226.836V209.227H349.567Z" fill="#FFBC96"></path><path d="M349.562 211.01C356.018 221.851 362.942 222.739 370.462 211.097L349.562 211.01Z" fill="#D28572"></path><path d="M345.524 176.603H374.482V201.016C374.482 204.855 372.956 208.536 370.24 211.25C367.525 213.965 363.841 215.489 360.001 215.489C356.16 215.489 352.477 213.965 349.761 211.25C347.045 208.536 345.52 204.855 345.52 201.016V176.603H345.524Z" fill="#FFBC96"></path><path d="M359.726 201.382C358.032 199.784 357.399 198.506 357.782 197.519C358.164 196.533 359.323 196.254 360.018 196.159L359.985 193.003H361.013L361.059 197.137H360.553C360.051 197.137 358.945 197.351 358.74 197.885C358.645 198.14 358.616 198.912 360.434 200.63L359.726 201.382Z" fill="#1B1B43"></path><path d="M365.15 204.522C365.525 203.951 365.84 203.344 366.091 202.709C362.584 203.001 355.154 203.001 355.154 203.001C355.337 203.649 355.614 204.267 355.977 204.834C359.038 204.979 362.106 204.874 365.15 204.522Z" fill="white"></path><path d="M355.984 204.842C356.449 205.617 357.103 206.261 357.885 206.714C358.666 207.168 359.55 207.416 360.454 207.435C362.723 207.505 364.257 205.89 365.149 204.53C362.108 204.882 359.043 204.987 355.984 204.842Z" fill="#1B1B43"></path><path d="M374.318 191.963C374.318 192.518 374.832 180.404 355.943 177.835C355.943 177.835 345.278 183.938 346.487 192.732L340.693 191.639C338.457 185.541 339.23 169.23 352.333 170.389C352.333 170.389 355.158 166.354 359.788 166.28C383.298 165.894 379.585 191.951 379.022 192.703L374.318 191.963Z" fill="#1B1B43"></path><path d="M381.763 197.553C382.87 194.199 381.512 190.737 378.73 189.821C375.948 188.904 372.796 190.879 371.689 194.233C370.583 197.587 371.941 201.049 374.723 201.966C377.505 202.883 380.657 200.907 381.763 197.553Z" fill="#FFBC96"></path><path d="M375.986 197.733L374.967 197.606C375.144 196.188 376.163 193.467 378.745 193.315L378.807 194.343C376.431 194.482 375.986 197.7 375.986 197.733Z" fill="#1B1B43"></path><path d="M344.527 203.328C347.31 202.42 348.678 198.965 347.582 195.61C346.487 192.255 343.343 190.271 340.56 191.179C337.777 192.086 336.409 195.542 337.505 198.897C338.6 202.251 341.744 204.235 344.527 203.328Z" fill="#FFBC96"></path><path d="M343.916 197.733C343.916 197.602 343.472 194.482 341.1 194.343L341.157 193.315C343.743 193.467 344.759 196.192 344.936 197.606L343.916 197.733Z" fill="#1B1B43"></path><path d="M367.468 189.983C367.446 190.286 367.335 190.576 367.15 190.817C366.966 191.058 366.714 191.24 366.427 191.341C366.14 191.442 365.83 191.456 365.535 191.383C365.24 191.311 364.972 191.153 364.765 190.93C364.558 190.708 364.421 190.429 364.37 190.13C364.319 189.83 364.356 189.522 364.478 189.244C364.599 188.965 364.8 188.728 365.054 188.561C365.308 188.395 365.606 188.306 365.91 188.306C366.123 188.313 366.332 188.363 366.525 188.451C366.719 188.539 366.893 188.665 367.037 188.821C367.182 188.977 367.295 189.159 367.369 189.359C367.443 189.558 367.477 189.77 367.468 189.983Z" fill="#1B1B43"></path><path d="M368.946 184.415L364.129 183.835C363.674 183.781 363.26 184.105 363.205 184.56L363.177 184.793C363.123 185.248 363.447 185.661 363.903 185.716L368.72 186.295C369.175 186.35 369.589 186.026 369.644 185.57L369.672 185.338C369.726 184.883 369.402 184.469 368.946 184.415Z" fill="#1B1B43"></path><path d="M352.441 189.983C352.463 190.286 352.573 190.576 352.758 190.817C352.943 191.058 353.195 191.24 353.481 191.341C353.768 191.442 354.079 191.456 354.374 191.383C354.669 191.311 354.936 191.153 355.143 190.93C355.35 190.708 355.488 190.429 355.539 190.13C355.59 189.83 355.552 189.522 355.431 189.244C355.309 188.965 355.109 188.728 354.855 188.561C354.6 188.395 354.303 188.306 353.999 188.306C353.57 188.322 353.165 188.508 352.873 188.822C352.58 189.136 352.425 189.554 352.441 189.983Z" fill="#1B1B43"></path><path d="M351.212 186.294L356.029 185.714C356.484 185.66 356.809 185.246 356.754 184.791L356.726 184.559C356.672 184.103 356.258 183.779 355.803 183.834L350.986 184.413C350.53 184.467 350.205 184.881 350.26 185.336L350.288 185.569C350.343 186.024 350.756 186.348 351.212 186.294Z" fill="#1B1B43"></path><path opacity="0.4" d="M368.824 199.969C370.682 199.969 372.188 198.464 372.188 196.607C372.188 194.751 370.682 193.246 368.824 193.246C366.967 193.246 365.461 194.751 365.461 196.607C365.461 198.464 366.967 199.969 368.824 199.969Z" fill="#FE5B52"></path><path opacity="0.4" d="M351.088 199.969C352.945 199.969 354.451 198.464 354.451 196.607C354.451 194.751 352.945 193.246 351.088 193.246C349.23 193.246 347.725 194.751 347.725 196.607C347.725 198.464 349.23 199.969 351.088 199.969Z" fill="#FE5B52"></path><path d="M265.044 252.301H164.671C161.812 252.301 159.494 254.618 159.494 257.475V298.725C159.494 301.582 161.812 303.898 164.671 303.898H265.044C267.903 303.898 270.22 301.582 270.22 298.725V257.475C270.22 254.618 267.903 252.301 265.044 252.301Z" fill="white"></path><path d="M265.043 304.379H164.67C163.167 304.378 161.725 303.781 160.662 302.718C159.599 301.656 159.001 300.215 159 298.712V257.475C159.001 255.972 159.599 254.532 160.662 253.469C161.725 252.407 163.167 251.809 164.67 251.808H265.043C265.789 251.807 266.527 251.953 267.217 252.237C267.906 252.521 268.533 252.938 269.061 253.464C269.589 253.991 270.008 254.616 270.294 255.304C270.58 255.992 270.728 256.73 270.729 257.475V298.729C270.723 300.231 270.121 301.67 269.055 302.729C267.989 303.788 266.546 304.381 265.043 304.379ZM164.67 252.798C163.429 252.798 162.238 253.291 161.36 254.168C160.482 255.045 159.988 256.234 159.987 257.475V298.729C159.989 299.969 160.483 301.158 161.361 302.035C162.239 302.911 163.429 303.404 164.67 303.405H265.043C266.283 303.403 267.472 302.91 268.349 302.033C269.226 301.157 269.72 299.968 269.722 298.729V257.475C269.721 256.235 269.228 255.046 268.35 254.169C267.473 253.293 266.284 252.8 265.043 252.798H164.67Z" fill="#5254CF"></path><path d="M257.898 265.003H171.812V266.031H257.898V265.003Z" fill="#E0E0FF"></path><path d="M257.898 277.586H171.812V278.613H257.898V277.586Z" fill="#E0E0FF"></path><path d="M257.898 290.173H171.812V291.201H257.898V290.173Z" fill="#E0E0FF"></path><path d="M450.769 163.88L445.814 123.826C438.097 124.78 430.82 127.941 424.857 132.928C418.893 137.915 414.497 144.517 412.197 151.941C409.896 159.365 409.789 167.294 411.888 174.777C413.987 182.26 418.202 188.979 424.029 194.125C429.855 199.272 437.044 202.628 444.732 203.791C452.421 204.953 460.281 203.873 467.37 200.679C474.459 197.485 480.474 192.313 484.694 185.786C488.914 179.258 491.158 171.651 491.158 163.88C491.158 162.701 491.096 161.533 490.997 160.379L450.769 163.88Z" fill="white"></path><path d="M450.769 204.76C440.356 204.762 430.335 200.794 422.748 193.666C415.162 186.537 410.581 176.785 409.941 166.398C409.3 156.01 412.649 145.77 419.302 137.764C425.956 129.759 435.415 124.592 445.749 123.316L446.259 123.255L451.23 163.325L491.478 159.824L491.524 160.338C491.631 161.607 491.684 162.77 491.684 163.88C491.672 174.72 487.357 185.113 479.686 192.778C472.016 200.442 461.616 204.751 450.769 204.76ZM445.367 124.389C437.778 125.424 430.649 128.621 424.83 133.598C419.011 138.574 414.749 145.12 412.553 152.453C410.357 159.786 410.32 167.595 412.446 174.949C414.572 182.302 418.771 188.888 424.542 193.92C430.313 198.952 437.412 202.217 444.989 203.325C452.567 204.432 460.304 203.336 467.275 200.167C474.246 196.997 480.157 191.889 484.301 185.452C488.445 179.015 490.647 171.522 490.644 163.868C490.644 162.935 490.607 161.969 490.529 160.925L450.321 164.422L445.367 124.389Z" fill="#5254CF"></path><path d="M471.842 155.661L512.07 152.16C511.443 144.843 508.821 137.837 504.488 131.905L471.842 155.661Z" fill="#9192FF"></path><path d="M483.415 140.124C479.672 134.976 474.763 130.787 469.088 127.9C463.414 125.012 457.136 123.51 450.769 123.514C449.113 123.518 447.458 123.622 445.814 123.826L450.769 163.88L483.415 140.124Z" fill="#E0E0FF"></path><path d="M450.367 164.809L445.24 123.378L445.75 123.316C452.995 122.409 460.351 123.462 467.049 126.366C473.748 129.269 479.544 133.917 483.832 139.824L484.136 140.235L450.367 164.809ZM446.387 124.278L451.173 162.951L482.697 140.005C478.976 135.052 474.156 131.031 468.616 128.257C463.076 125.483 456.967 124.033 450.77 124.019C449.306 124.024 447.842 124.11 446.387 124.278Z" fill="#5254CF"></path><path d="M552.129 279.09H478.346C474.824 279.09 471.969 281.944 471.969 285.464V366.365C471.969 369.885 474.824 372.739 478.346 372.739H552.129C555.651 372.739 558.506 369.885 558.506 366.365V285.464C558.506 281.944 555.651 279.09 552.129 279.09Z" fill="white"></path><path d="M552.125 373.232H478.367C476.545 373.23 474.799 372.505 473.511 371.218C472.223 369.931 471.498 368.186 471.496 366.365V285.476C471.495 283.654 472.218 281.905 473.506 280.615C474.795 279.325 476.543 278.599 478.367 278.597H552.146C553.966 278.605 555.709 279.333 556.994 280.622C558.279 281.911 559 283.657 559 285.476V366.365C558.998 368.186 558.273 369.932 556.984 371.22C555.695 372.507 553.947 373.231 552.125 373.232ZM478.367 279.583C477.591 279.582 476.824 279.733 476.107 280.029C475.391 280.324 474.739 280.758 474.191 281.305C473.642 281.853 473.207 282.503 472.911 283.219C472.614 283.934 472.462 284.702 472.462 285.476V366.365C472.463 367.139 472.617 367.905 472.914 368.619C473.212 369.333 473.647 369.982 474.195 370.528C474.744 371.074 475.394 371.507 476.11 371.802C476.826 372.096 477.593 372.247 478.367 372.246H552.146C553.706 372.244 555.203 371.625 556.306 370.522C557.41 369.42 558.031 367.925 558.034 366.365V285.476C558.031 283.917 557.41 282.422 556.306 281.319C555.203 280.217 553.706 279.597 552.146 279.596L478.367 279.583Z" fill="#5254CF"></path><path d="M548.646 292.499H481.832V293.58H548.646V292.499Z" fill="#E0E0FF"></path><path d="M548.646 308.937H481.832V310.017H548.646V308.937Z" fill="#E0E0FF"></path><path d="M548.646 325.374H481.832V326.455H548.646V325.374Z" fill="#E0E0FF"></path><path d="M548.646 341.812H481.832V342.892H548.646V341.812Z" fill="#E0E0FF"></path><path d="M548.646 358.249H481.832V359.33H548.646V358.249Z" fill="#E0E0FF"></path><path d="M487.523 314.591H481.832V359.33H487.523V314.591Z" fill="#CBCBFF"></path><path d="M499.896 331.218H494.205V359.334H499.896V331.218Z" fill="#E0E0FF"></path><path d="M512.267 320.887H506.576V359.33H512.267V320.887Z" fill="#CBCBFF"></path><path d="M524.64 313.946H518.949V359.33H524.64V313.946Z" fill="#E0E0FF"></path><path d="M537.011 305.567H531.32V359.33H537.011V305.567Z" fill="#CBCBFF"></path><path d="M549.384 296.646H543.693V359.33H549.384V296.646Z" fill="#E0E0FF"></path><path d="M306.399 129.423H256.002C254.414 129.423 252.89 130.054 251.766 131.177C250.643 132.299 250.012 133.822 250.012 135.41V155.797C250.012 157.385 250.643 158.908 251.766 160.031C252.89 161.153 254.414 161.784 256.002 161.784H290.417L303.648 173.085V161.784H306.399C307.185 161.784 307.964 161.629 308.691 161.328C309.417 161.027 310.077 160.586 310.633 160.03C311.189 159.474 311.63 158.814 311.931 158.088C312.231 157.361 312.386 156.583 312.385 155.797V135.41C312.386 134.624 312.231 133.846 311.931 133.119C311.63 132.393 311.189 131.733 310.633 131.177C310.077 130.621 309.417 130.18 308.691 129.879C307.964 129.578 307.185 129.423 306.399 129.423Z" fill="white"></path><path d="M304.19 174.256L290.211 162.339H256.002C254.271 162.338 252.61 161.65 251.386 160.426C250.162 159.203 249.474 157.544 249.473 155.813V135.41C249.474 133.68 250.162 132.021 251.386 130.797C252.61 129.574 254.271 128.886 256.002 128.885H306.398C308.129 128.887 309.789 129.575 311.013 130.798C312.237 132.022 312.925 133.68 312.927 135.41V155.797C312.925 157.527 312.237 159.186 311.013 160.409C309.789 161.632 308.129 162.32 306.398 162.323H304.19V174.256ZM256.002 129.961C254.557 129.963 253.171 130.538 252.149 131.56C251.127 132.581 250.552 133.966 250.55 135.41V155.797C250.552 157.241 251.127 158.626 252.149 159.648C253.171 160.669 254.557 161.244 256.002 161.246H290.618L303.109 171.93V161.246H306.398C307.843 161.244 309.228 160.669 310.249 159.647C311.271 158.626 311.845 157.241 311.846 155.797V135.41C311.845 133.966 311.271 132.581 310.249 131.56C309.228 130.538 307.843 129.963 306.398 129.961H256.002Z" fill="#5254CF"></path><path d="M297.994 137.642H257.65V138.669H297.994V137.642Z" fill="#9192FF"></path><path d="M303.392 144.578H257.65V145.606H303.392V144.578Z" fill="#9192FF"></path><path d="M289.77 151.511H257.65V152.538H289.77V151.511Z" fill="#9192FF"></path></g><defs><clipPath id="clip0_684_202"><rect width="400" height="306" fill="white" transform="translate(159 123)"></rect></clipPath></defs></svg>