<svg xmlns="http://www.w3.org/2000/svg" width="463" height="611" viewBox="0 0 463 611" fill="none"><g clip-path="url(#clip0_683_254)"><path d="M172.618 350.328C172.618 339.726 164.054 331.132 153.49 331.132C142.925 331.132 134.361 339.726 134.361 350.328C134.361 360.931 142.925 369.525 153.49 369.525C164.054 369.525 172.618 360.931 172.618 350.328Z" stroke="#FF5252" stroke-width="2" stroke-miterlimit="10"></path><path d="M184.366 350.329C184.366 333.216 170.543 319.343 153.491 319.343C136.439 319.343 122.615 333.216 122.615 350.329C122.615 367.442 136.439 381.315 153.491 381.315C170.543 381.315 184.366 367.442 184.366 350.329Z" stroke="#FF5252" stroke-width="2" stroke-miterlimit="10"></path><path d="M196.113 350.329C196.113 326.705 177.03 307.554 153.49 307.554C129.95 307.554 110.867 326.705 110.867 350.329C110.867 373.953 129.95 393.104 153.49 393.104C177.03 393.104 196.113 373.953 196.113 350.329Z" stroke="#FF5252" stroke-width="2" stroke-miterlimit="10"></path><path d="M207.863 350.329C207.863 320.192 183.519 295.761 153.49 295.761C123.461 295.761 99.1172 320.192 99.1172 350.329C99.1172 380.465 123.461 404.896 153.49 404.896C183.519 404.896 207.863 380.465 207.863 350.329Z" stroke="#FF5252" stroke-width="2" stroke-miterlimit="10"></path><path d="M219.611 350.329C219.611 313.681 190.008 283.972 153.491 283.972C116.974 283.972 87.3711 313.681 87.3711 350.329C87.3711 386.977 116.974 416.686 153.491 416.686C190.008 416.686 219.611 386.977 219.611 350.329Z" stroke="#FF5252" stroke-width="2" stroke-miterlimit="10"></path><path d="M231.357 350.329C231.357 307.17 196.495 272.183 153.49 272.183C110.485 272.183 75.623 307.17 75.623 350.329C75.623 393.488 110.485 428.475 153.49 428.475C196.495 428.475 231.357 393.488 231.357 350.329Z" stroke="#FF5252" stroke-width="2" stroke-miterlimit="10"></path><path d="M243.104 350.329C243.104 300.659 202.982 260.393 153.489 260.393C103.997 260.393 63.875 300.659 63.875 350.329C63.875 399.999 103.997 440.264 153.489 440.264C202.982 440.264 243.104 399.999 243.104 350.329Z" stroke="#FF5252" stroke-width="2" stroke-miterlimit="10"></path><path d="M254.854 350.328C254.854 294.146 209.471 248.601 153.489 248.601C97.5074 248.601 52.125 294.146 52.125 350.328C52.125 406.511 97.5074 452.056 153.489 452.056C209.471 452.056 254.854 406.511 254.854 350.328Z" stroke="#FF5252" stroke-width="2" stroke-miterlimit="10"></path><path d="M266.602 350.329C266.602 287.635 215.96 236.812 153.491 236.812C91.0207 236.812 40.3789 287.635 40.3789 350.329C40.3789 413.022 91.0207 463.846 153.491 463.846C215.96 463.846 266.602 413.022 266.602 350.329Z" stroke="#FF5252" stroke-width="2" stroke-miterlimit="10"></path><path d="M278.349 350.329C278.349 281.124 222.447 225.023 153.49 225.023C84.5321 225.023 28.6309 281.124 28.6309 350.329C28.6309 419.533 84.5321 475.635 153.49 475.635C222.447 475.635 278.349 419.533 278.349 350.329Z" stroke="#FF5252" stroke-width="2" stroke-miterlimit="10"></path><path d="M290.097 350.329C290.097 274.613 228.936 213.233 153.491 213.233C78.0454 213.233 16.8848 274.613 16.8848 350.329C16.8848 426.044 78.0454 487.424 153.491 487.424C228.936 487.424 290.097 426.044 290.097 350.329Z" stroke="#FF5252" stroke-width="2" stroke-miterlimit="10"></path><path d="M301.843 350.329C301.843 268.102 235.423 201.444 153.49 201.444C71.5568 201.444 5.13672 268.102 5.13672 350.329C5.13672 432.555 71.5568 499.213 153.49 499.213C235.423 499.213 301.843 432.555 301.843 350.329Z" stroke="#FF5252" stroke-width="2" stroke-miterlimit="10"></path></g><path d="M170 362C170 275.844 235.59 206 316.5 206C397.41 206 463 275.844 463 362L170 362Z" fill="#2DDD7E"></path><path d="M170 208C170 121.844 235.59 52 316.5 52C397.41 52 463 121.844 463 208L170 208Z" fill="#FF5252"></path><path d="M3 362H463V611H83C38.8172 611 3 575.183 3 531V362Z" fill="#EBFAFF"></path><path d="M79.079 483V463.965H87.341C89.429 463.965 91.04 464.469 92.174 465.477C93.308 466.467 93.875 467.862 93.875 469.662C93.875 471.084 93.506 472.263 92.768 473.199C92.03 474.117 90.968 474.738 89.582 475.062C90.5 475.35 91.256 476.043 91.85 477.141L95.036 483H91.229L87.935 476.925C87.611 476.331 87.224 475.926 86.774 475.71C86.342 475.494 85.784 475.386 85.1 475.386H82.535V483H79.079ZM82.535 472.821H86.747C89.267 472.821 90.527 471.795 90.527 469.743C90.527 467.709 89.267 466.692 86.747 466.692H82.535V472.821ZM103.429 483.27C101.935 483.27 100.648 482.991 99.568 482.433C98.488 481.875 97.651 481.083 97.057 480.057C96.481 479.031 96.193 477.816 96.193 476.412C96.193 475.044 96.472 473.847 97.03 472.821C97.606 471.795 98.389 470.994 99.379 470.418C100.387 469.824 101.53 469.527 102.808 469.527C104.68 469.527 106.156 470.121 107.236 471.309C108.334 472.497 108.883 474.117 108.883 476.169V477.168H99.433C99.685 479.526 101.035 480.705 103.483 480.705C104.221 480.705 104.959 480.597 105.697 480.381C106.435 480.147 107.11 479.787 107.722 479.301L108.667 481.569C108.037 482.091 107.245 482.505 106.291 482.811C105.337 483.117 104.383 483.27 103.429 483.27ZM102.943 471.822C101.953 471.822 101.152 472.128 100.54 472.74C99.928 473.352 99.559 474.18 99.433 475.224H106.075C106.003 474.126 105.697 473.289 105.157 472.713C104.635 472.119 103.897 471.822 102.943 471.822ZM117.712 488.13C116.488 488.13 115.336 487.986 114.256 487.698C113.194 487.428 112.258 487.005 111.448 486.429L112.42 484.08C113.176 484.584 113.986 484.953 114.85 485.187C115.714 485.439 116.578 485.565 117.442 485.565C119.854 485.565 121.06 484.404 121.06 482.082V480.273C120.682 481.011 120.097 481.596 119.305 482.028C118.531 482.46 117.667 482.676 116.713 482.676C115.525 482.676 114.49 482.406 113.608 481.866C112.726 481.308 112.042 480.534 111.556 479.544C111.07 478.554 110.827 477.402 110.827 476.088C110.827 474.774 111.07 473.631 111.556 472.659C112.042 471.669 112.726 470.904 113.608 470.364C114.49 469.806 115.525 469.527 116.713 469.527C117.703 469.527 118.585 469.752 119.359 470.202C120.133 470.634 120.7 471.219 121.06 471.957V469.797H124.354V481.677C124.354 483.819 123.787 485.43 122.653 486.51C121.519 487.59 119.872 488.13 117.712 488.13ZM117.631 480.111C118.675 480.111 119.503 479.751 120.115 479.031C120.727 478.311 121.033 477.33 121.033 476.088C121.033 474.846 120.727 473.874 120.115 473.172C119.503 472.452 118.675 472.092 117.631 472.092C116.587 472.092 115.759 472.452 115.147 473.172C114.535 473.874 114.229 474.846 114.229 476.088C114.229 477.33 114.535 478.311 115.147 479.031C115.759 479.751 116.587 480.111 117.631 480.111ZM127.635 466.962V463.668H131.415V466.962H127.635ZM127.851 483V469.797H131.226V483H127.851ZM139.566 483.27C138.45 483.27 137.406 483.135 136.434 482.865C135.462 482.595 134.652 482.208 134.004 481.704L134.868 479.49C135.534 479.94 136.281 480.291 137.109 480.543C137.937 480.777 138.765 480.894 139.593 480.894C140.457 480.894 141.096 480.75 141.51 480.462C141.942 480.156 142.158 479.76 142.158 479.274C142.158 478.518 141.6 478.032 140.484 477.816L137.784 477.303C135.498 476.871 134.355 475.683 134.355 473.739C134.355 472.875 134.589 472.128 135.057 471.498C135.543 470.868 136.209 470.382 137.055 470.04C137.901 469.698 138.873 469.527 139.971 469.527C140.907 469.527 141.807 469.662 142.671 469.932C143.535 470.184 144.273 470.571 144.885 471.093L143.967 473.307C143.445 472.875 142.815 472.533 142.077 472.281C141.357 472.029 140.664 471.903 139.998 471.903C139.116 471.903 138.459 472.056 138.027 472.362C137.613 472.668 137.406 473.073 137.406 473.577C137.406 474.369 137.919 474.855 138.945 475.035L141.645 475.548C142.815 475.764 143.697 476.16 144.291 476.736C144.903 477.312 145.209 478.086 145.209 479.058C145.209 480.372 144.696 481.407 143.67 482.163C142.644 482.901 141.276 483.27 139.566 483.27ZM153.832 483.27C150.34 483.27 148.594 481.542 148.594 478.086V472.335H146.056V469.797H148.594V465.855H151.969V469.797H155.965V472.335H151.969V477.897C151.969 478.761 152.158 479.409 152.536 479.841C152.914 480.273 153.526 480.489 154.372 480.489C154.624 480.489 154.885 480.462 155.155 480.408C155.425 480.336 155.704 480.264 155.992 480.192L156.505 482.676C156.181 482.856 155.767 483 155.263 483.108C154.777 483.216 154.3 483.27 153.832 483.27ZM164.522 483.27C163.028 483.27 161.741 482.991 160.661 482.433C159.581 481.875 158.744 481.083 158.15 480.057C157.574 479.031 157.286 477.816 157.286 476.412C157.286 475.044 157.565 473.847 158.123 472.821C158.699 471.795 159.482 470.994 160.472 470.418C161.48 469.824 162.623 469.527 163.901 469.527C165.773 469.527 167.249 470.121 168.329 471.309C169.427 472.497 169.976 474.117 169.976 476.169V477.168H160.526C160.778 479.526 162.128 480.705 164.576 480.705C165.314 480.705 166.052 480.597 166.79 480.381C167.528 480.147 168.203 479.787 168.815 479.301L169.76 481.569C169.13 482.091 168.338 482.505 167.384 482.811C166.43 483.117 165.476 483.27 164.522 483.27ZM164.036 471.822C163.046 471.822 162.245 472.128 161.633 472.74C161.021 473.352 160.652 474.18 160.526 475.224H167.168C167.096 474.126 166.79 473.289 166.25 472.713C165.728 472.119 164.99 471.822 164.036 471.822ZM172.649 483V469.797H175.943V472.119C176.591 470.553 177.977 469.689 180.101 469.527L181.127 469.446L181.343 472.308L179.399 472.497C177.185 472.713 176.078 473.847 176.078 475.899V483H172.649ZM190.499 483V463.965H193.874V471.714C194.324 470.994 194.927 470.454 195.683 470.094C196.439 469.716 197.276 469.527 198.194 469.527C201.308 469.527 202.865 471.336 202.865 474.954V483H199.49V475.116C199.49 474.09 199.292 473.343 198.896 472.875C198.518 472.407 197.924 472.173 197.114 472.173C196.124 472.173 195.332 472.488 194.738 473.118C194.162 473.73 193.874 474.549 193.874 475.575V483H190.499ZM212.8 483.27C211.306 483.27 210.019 482.991 208.939 482.433C207.859 481.875 207.022 481.083 206.428 480.057C205.852 479.031 205.564 477.816 205.564 476.412C205.564 475.044 205.843 473.847 206.401 472.821C206.977 471.795 207.76 470.994 208.75 470.418C209.758 469.824 210.901 469.527 212.179 469.527C214.051 469.527 215.527 470.121 216.607 471.309C217.705 472.497 218.254 474.117 218.254 476.169V477.168H208.804C209.056 479.526 210.406 480.705 212.854 480.705C213.592 480.705 214.33 480.597 215.068 480.381C215.806 480.147 216.481 479.787 217.093 479.301L218.038 481.569C217.408 482.091 216.616 482.505 215.662 482.811C214.708 483.117 213.754 483.27 212.8 483.27ZM212.314 471.822C211.324 471.822 210.523 472.128 209.911 472.74C209.299 473.352 208.93 474.18 208.804 475.224H215.446C215.374 474.126 215.068 473.289 214.528 472.713C214.006 472.119 213.268 471.822 212.314 471.822ZM220.927 483V469.797H224.221V472.119C224.869 470.553 226.255 469.689 228.379 469.527L229.405 469.446L229.621 472.308L227.677 472.497C225.463 472.713 224.356 473.847 224.356 475.899V483H220.927ZM237.796 483.27C236.302 483.27 235.015 482.991 233.935 482.433C232.855 481.875 232.018 481.083 231.424 480.057C230.848 479.031 230.56 477.816 230.56 476.412C230.56 475.044 230.839 473.847 231.397 472.821C231.973 471.795 232.756 470.994 233.746 470.418C234.754 469.824 235.897 469.527 237.175 469.527C239.047 469.527 240.523 470.121 241.603 471.309C242.701 472.497 243.25 474.117 243.25 476.169V477.168H233.8C234.052 479.526 235.402 480.705 237.85 480.705C238.588 480.705 239.326 480.597 240.064 480.381C240.802 480.147 241.477 479.787 242.089 479.301L243.034 481.569C242.404 482.091 241.612 482.505 240.658 482.811C239.704 483.117 238.75 483.27 237.796 483.27ZM237.31 471.822C236.32 471.822 235.519 472.128 234.907 472.74C234.295 473.352 233.926 474.18 233.8 475.224H240.442C240.37 474.126 240.064 473.289 239.524 472.713C239.002 472.119 238.264 471.822 237.31 471.822ZM253.2 483V469.797H256.494V471.849C256.944 471.093 257.547 470.517 258.303 470.121C259.077 469.725 259.941 469.527 260.895 469.527C264.009 469.527 265.566 471.336 265.566 474.954V483H262.191V475.116C262.191 474.09 261.993 473.343 261.597 472.875C261.219 472.407 260.625 472.173 259.815 472.173C258.825 472.173 258.033 472.488 257.439 473.118C256.863 473.73 256.575 474.549 256.575 475.575V483H253.2ZM275.015 483.27C273.647 483.27 272.459 482.991 271.451 482.433C270.443 481.875 269.66 481.083 269.102 480.057C268.544 479.013 268.265 477.789 268.265 476.385C268.265 474.981 268.544 473.766 269.102 472.74C269.66 471.714 270.443 470.922 271.451 470.364C272.459 469.806 273.647 469.527 275.015 469.527C276.383 469.527 277.571 469.806 278.579 470.364C279.587 470.922 280.37 471.714 280.928 472.74C281.486 473.766 281.765 474.981 281.765 476.385C281.765 477.789 281.486 479.013 280.928 480.057C280.37 481.083 279.587 481.875 278.579 482.433C277.571 482.991 276.383 483.27 275.015 483.27ZM275.015 480.705C276.023 480.705 276.833 480.345 277.445 479.625C278.057 478.887 278.363 477.807 278.363 476.385C278.363 474.945 278.057 473.874 277.445 473.172C276.833 472.452 276.023 472.092 275.015 472.092C274.007 472.092 273.197 472.452 272.585 473.172C271.973 473.874 271.667 474.945 271.667 476.385C271.667 477.807 271.973 478.887 272.585 479.625C273.197 480.345 274.007 480.705 275.015 480.705ZM287.932 483L282.721 469.797H286.177L289.552 479.085L292.954 469.797H295.33L298.732 479.139L302.107 469.797H305.374L300.19 483H297.247L294.034 474.495L290.875 483H287.932ZM318.93 483.27C317.976 483.27 317.121 483.09 316.365 482.73C315.627 482.352 315.042 481.848 314.61 481.218C314.196 480.588 313.989 479.877 313.989 479.085C313.989 478.113 314.241 477.348 314.745 476.79C315.249 476.214 316.068 475.8 317.202 475.548C318.336 475.296 319.857 475.17 321.765 475.17H322.71V474.603C322.71 473.703 322.512 473.055 322.116 472.659C321.72 472.263 321.054 472.065 320.118 472.065C319.38 472.065 318.624 472.182 317.85 472.416C317.076 472.632 316.293 472.974 315.501 473.442L314.529 471.147C314.997 470.823 315.546 470.544 316.176 470.31C316.824 470.058 317.499 469.869 318.201 469.743C318.921 469.599 319.596 469.527 320.226 469.527C322.152 469.527 323.583 469.977 324.519 470.877C325.455 471.759 325.923 473.136 325.923 475.008V483H322.764V480.894C322.458 481.632 321.972 482.217 321.306 482.649C320.64 483.063 319.848 483.27 318.93 483.27ZM319.632 480.948C320.514 480.948 321.243 480.642 321.819 480.03C322.413 479.418 322.71 478.644 322.71 477.708V477.114H321.792C320.1 477.114 318.921 477.249 318.255 477.519C317.607 477.771 317.283 478.239 317.283 478.923C317.283 479.517 317.49 480.003 317.904 480.381C318.318 480.759 318.894 480.948 319.632 480.948ZM329.349 483V469.797H332.643V471.849C333.093 471.093 333.696 470.517 334.452 470.121C335.226 469.725 336.09 469.527 337.044 469.527C340.158 469.527 341.715 471.336 341.715 474.954V483H338.34V475.116C338.34 474.09 338.142 473.343 337.746 472.875C337.368 472.407 336.774 472.173 335.964 472.173C334.974 472.173 334.182 472.488 333.588 473.118C333.012 473.73 332.724 474.549 332.724 475.575V483H329.349ZM350.219 483.27C349.067 483.27 348.05 482.991 347.168 482.433C346.304 481.875 345.629 481.083 345.143 480.057C344.657 479.013 344.414 477.789 344.414 476.385C344.414 474.963 344.657 473.748 345.143 472.74C345.629 471.714 346.304 470.922 347.168 470.364C348.05 469.806 349.067 469.527 350.219 469.527C351.155 469.527 352.001 469.734 352.757 470.148C353.513 470.562 354.08 471.111 354.458 471.795V463.965H357.833V483H354.539V480.813C354.179 481.569 353.612 482.172 352.838 482.622C352.064 483.054 351.191 483.27 350.219 483.27ZM351.164 480.705C352.172 480.705 352.982 480.345 353.594 479.625C354.206 478.887 354.512 477.807 354.512 476.385C354.512 474.945 354.206 473.874 353.594 473.172C352.982 472.452 352.172 472.092 351.164 472.092C350.156 472.092 349.346 472.452 348.734 473.172C348.122 473.874 347.816 474.945 347.816 476.385C347.816 477.807 348.122 478.887 348.734 479.625C349.346 480.345 350.156 480.705 351.164 480.705ZM368.501 466.962V463.668H372.281V466.962H368.501ZM365.639 488.211L365.396 485.754L366.638 485.619C368.024 485.457 368.717 484.647 368.717 483.189V469.797H372.092V482.757C372.092 484.521 371.687 485.817 370.877 486.645C370.067 487.491 368.708 487.986 366.8 488.13L365.639 488.211ZM381.618 483.27C380.25 483.27 379.062 482.991 378.054 482.433C377.046 481.875 376.263 481.083 375.705 480.057C375.147 479.013 374.868 477.789 374.868 476.385C374.868 474.981 375.147 473.766 375.705 472.74C376.263 471.714 377.046 470.922 378.054 470.364C379.062 469.806 380.25 469.527 381.618 469.527C382.986 469.527 384.174 469.806 385.182 470.364C386.19 470.922 386.973 471.714 387.531 472.74C388.089 473.766 388.368 474.981 388.368 476.385C388.368 477.789 388.089 479.013 387.531 480.057C386.973 481.083 386.19 481.875 385.182 482.433C384.174 482.991 382.986 483.27 381.618 483.27ZM381.618 480.705C382.626 480.705 383.436 480.345 384.048 479.625C384.66 478.887 384.966 477.807 384.966 476.385C384.966 474.945 384.66 473.874 384.048 473.172C383.436 472.452 382.626 472.092 381.618 472.092C380.61 472.092 379.8 472.452 379.188 473.172C378.576 473.874 378.27 474.945 378.27 476.385C378.27 477.807 378.576 478.887 379.188 479.625C379.8 480.345 380.61 480.705 381.618 480.705ZM390.937 466.962V463.668H394.717V466.962H390.937ZM391.153 483V469.797H394.528V483H391.153ZM398.035 483V469.797H401.329V471.849C401.779 471.093 402.382 470.517 403.138 470.121C403.912 469.725 404.776 469.527 405.73 469.527C408.844 469.527 410.401 471.336 410.401 474.954V483H407.026V475.116C407.026 474.09 406.828 473.343 406.432 472.875C406.054 472.407 405.46 472.173 404.65 472.173C403.66 472.173 402.868 472.488 402.274 473.118C401.698 473.73 401.41 474.549 401.41 475.575V483H398.035ZM79.079 518V498.965H82.535V518H79.079ZM86.3488 518V504.797H89.6428V506.849C90.0928 506.093 90.6958 505.517 91.4518 505.121C92.2258 504.725 93.0898 504.527 94.0438 504.527C97.1578 504.527 98.7148 506.336 98.7148 509.954V518H95.3398V510.116C95.3398 509.09 95.1418 508.343 94.7458 507.875C94.3678 507.407 93.7738 507.173 92.9638 507.173C91.9738 507.173 91.1818 507.488 90.5878 508.118C90.0118 508.73 89.7238 509.549 89.7238 510.575V518H86.3488ZM107.219 518.27C106.067 518.27 105.05 517.991 104.168 517.433C103.304 516.875 102.629 516.083 102.143 515.057C101.657 514.013 101.414 512.789 101.414 511.385C101.414 509.963 101.657 508.748 102.143 507.74C102.629 506.714 103.304 505.922 104.168 505.364C105.05 504.806 106.067 504.527 107.219 504.527C108.155 504.527 109.001 504.734 109.757 505.148C110.513 505.562 111.08 506.111 111.458 506.795V498.965H114.833V518H111.539V515.813C111.179 516.569 110.612 517.172 109.838 517.622C109.064 518.054 108.191 518.27 107.219 518.27ZM108.164 515.705C109.172 515.705 109.982 515.345 110.594 514.625C111.206 513.887 111.512 512.807 111.512 511.385C111.512 509.945 111.206 508.874 110.594 508.172C109.982 507.452 109.172 507.092 108.164 507.092C107.156 507.092 106.346 507.452 105.734 508.172C105.122 508.874 104.816 509.945 104.816 511.385C104.816 512.807 105.122 513.887 105.734 514.625C106.346 515.345 107.156 515.705 108.164 515.705ZM118.116 501.962V498.668H121.896V501.962H118.116ZM118.332 518V504.797H121.707V518H118.332ZM129.561 518.27C128.607 518.27 127.752 518.09 126.996 517.73C126.258 517.352 125.673 516.848 125.241 516.218C124.827 515.588 124.62 514.877 124.62 514.085C124.62 513.113 124.872 512.348 125.376 511.79C125.88 511.214 126.699 510.8 127.833 510.548C128.967 510.296 130.488 510.17 132.396 510.17H133.341V509.603C133.341 508.703 133.143 508.055 132.747 507.659C132.351 507.263 131.685 507.065 130.749 507.065C130.011 507.065 129.255 507.182 128.481 507.416C127.707 507.632 126.924 507.974 126.132 508.442L125.16 506.147C125.628 505.823 126.177 505.544 126.807 505.31C127.455 505.058 128.13 504.869 128.832 504.743C129.552 504.599 130.227 504.527 130.857 504.527C132.783 504.527 134.214 504.977 135.15 505.877C136.086 506.759 136.554 508.136 136.554 510.008V518H133.395V515.894C133.089 516.632 132.603 517.217 131.937 517.649C131.271 518.063 130.479 518.27 129.561 518.27ZM130.263 515.948C131.145 515.948 131.874 515.642 132.45 515.03C133.044 514.418 133.341 513.644 133.341 512.708V512.114H132.423C130.731 512.114 129.552 512.249 128.886 512.519C128.238 512.771 127.914 513.239 127.914 513.923C127.914 514.517 128.121 515.003 128.535 515.381C128.949 515.759 129.525 515.948 130.263 515.948ZM140.855 506.309L139.478 505.229C140.306 504.365 140.792 503.528 140.936 502.718H139.208V498.965H142.988V501.422C142.988 502.358 142.826 503.213 142.502 503.987C142.196 504.743 141.647 505.517 140.855 506.309ZM150.271 518.27C149.155 518.27 148.111 518.135 147.139 517.865C146.167 517.595 145.357 517.208 144.709 516.704L145.573 514.49C146.239 514.94 146.986 515.291 147.814 515.543C148.642 515.777 149.47 515.894 150.298 515.894C151.162 515.894 151.801 515.75 152.215 515.462C152.647 515.156 152.863 514.76 152.863 514.274C152.863 513.518 152.305 513.032 151.189 512.816L148.489 512.303C146.203 511.871 145.06 510.683 145.06 508.739C145.06 507.875 145.294 507.128 145.762 506.498C146.248 505.868 146.914 505.382 147.76 505.04C148.606 504.698 149.578 504.527 150.676 504.527C151.612 504.527 152.512 504.662 153.376 504.932C154.24 505.184 154.978 505.571 155.59 506.093L154.672 508.307C154.15 507.875 153.52 507.533 152.782 507.281C152.062 507.029 151.369 506.903 150.703 506.903C149.821 506.903 149.164 507.056 148.732 507.362C148.318 507.668 148.111 508.073 148.111 508.577C148.111 509.369 148.624 509.855 149.65 510.035L152.35 510.548C153.52 510.764 154.402 511.16 154.996 511.736C155.608 512.312 155.914 513.086 155.914 514.058C155.914 515.372 155.401 516.407 154.375 517.163C153.349 517.901 151.981 518.27 150.271 518.27ZM166.79 518V507.335H164.252V504.797H166.79V504.77C166.79 502.898 167.276 501.485 168.248 500.531C169.238 499.577 170.768 499.037 172.838 498.911L174.161 498.83L174.377 501.314L173.135 501.395C172.055 501.467 171.29 501.737 170.84 502.205C170.39 502.655 170.165 503.33 170.165 504.23V504.797H173.756V507.335H170.165V518H166.79ZM179.949 518.27C178.995 518.27 178.14 518.09 177.384 517.73C176.646 517.352 176.061 516.848 175.629 516.218C175.215 515.588 175.008 514.877 175.008 514.085C175.008 513.113 175.26 512.348 175.764 511.79C176.268 511.214 177.087 510.8 178.221 510.548C179.355 510.296 180.876 510.17 182.784 510.17H183.729V509.603C183.729 508.703 183.531 508.055 183.135 507.659C182.739 507.263 182.073 507.065 181.137 507.065C180.399 507.065 179.643 507.182 178.869 507.416C178.095 507.632 177.312 507.974 176.52 508.442L175.548 506.147C176.016 505.823 176.565 505.544 177.195 505.31C177.843 505.058 178.518 504.869 179.22 504.743C179.94 504.599 180.615 504.527 181.245 504.527C183.171 504.527 184.602 504.977 185.538 505.877C186.474 506.759 186.942 508.136 186.942 510.008V518H183.783V515.894C183.477 516.632 182.991 517.217 182.325 517.649C181.659 518.063 180.867 518.27 179.949 518.27ZM180.651 515.948C181.533 515.948 182.262 515.642 182.838 515.03C183.432 514.418 183.729 513.644 183.729 512.708V512.114H182.811C181.119 512.114 179.94 512.249 179.274 512.519C178.626 512.771 178.302 513.239 178.302 513.923C178.302 514.517 178.509 515.003 178.923 515.381C179.337 515.759 179.913 515.948 180.651 515.948ZM195.2 518.27C194.084 518.27 193.04 518.135 192.068 517.865C191.096 517.595 190.286 517.208 189.638 516.704L190.502 514.49C191.168 514.94 191.915 515.291 192.743 515.543C193.571 515.777 194.399 515.894 195.227 515.894C196.091 515.894 196.73 515.75 197.144 515.462C197.576 515.156 197.792 514.76 197.792 514.274C197.792 513.518 197.234 513.032 196.118 512.816L193.418 512.303C191.132 511.871 189.989 510.683 189.989 508.739C189.989 507.875 190.223 507.128 190.691 506.498C191.177 505.868 191.843 505.382 192.689 505.04C193.535 504.698 194.507 504.527 195.605 504.527C196.541 504.527 197.441 504.662 198.305 504.932C199.169 505.184 199.907 505.571 200.519 506.093L199.601 508.307C199.079 507.875 198.449 507.533 197.711 507.281C196.991 507.029 196.298 506.903 195.632 506.903C194.75 506.903 194.093 507.056 193.661 507.362C193.247 507.668 193.04 508.073 193.04 508.577C193.04 509.369 193.553 509.855 194.579 510.035L197.279 510.548C198.449 510.764 199.331 511.16 199.925 511.736C200.537 512.312 200.843 513.086 200.843 514.058C200.843 515.372 200.33 516.407 199.304 517.163C198.278 517.901 196.91 518.27 195.2 518.27ZM209.467 518.27C205.975 518.27 204.229 516.542 204.229 513.086V507.335H201.691V504.797H204.229V500.855H207.604V504.797H211.6V507.335H207.604V512.897C207.604 513.761 207.793 514.409 208.171 514.841C208.549 515.273 209.161 515.489 210.007 515.489C210.259 515.489 210.52 515.462 210.79 515.408C211.06 515.336 211.339 515.264 211.627 515.192L212.14 517.676C211.816 517.856 211.402 518 210.898 518.108C210.412 518.216 209.935 518.27 209.467 518.27ZM220.157 518.27C218.663 518.27 217.376 517.991 216.296 517.433C215.216 516.875 214.379 516.083 213.785 515.057C213.209 514.031 212.921 512.816 212.921 511.412C212.921 510.044 213.2 508.847 213.758 507.821C214.334 506.795 215.117 505.994 216.107 505.418C217.115 504.824 218.258 504.527 219.536 504.527C221.408 504.527 222.884 505.121 223.964 506.309C225.062 507.497 225.611 509.117 225.611 511.169V512.168H216.161C216.413 514.526 217.763 515.705 220.211 515.705C220.949 515.705 221.687 515.597 222.425 515.381C223.163 515.147 223.838 514.787 224.45 514.301L225.395 516.569C224.765 517.091 223.973 517.505 223.019 517.811C222.065 518.117 221.111 518.27 220.157 518.27ZM219.671 506.822C218.681 506.822 217.88 507.128 217.268 507.74C216.656 508.352 216.287 509.18 216.161 510.224H222.803C222.731 509.126 222.425 508.289 221.885 507.713C221.363 507.119 220.625 506.822 219.671 506.822ZM233.116 518.27C232 518.27 230.956 518.135 229.984 517.865C229.012 517.595 228.202 517.208 227.554 516.704L228.418 514.49C229.084 514.94 229.831 515.291 230.659 515.543C231.487 515.777 232.315 515.894 233.143 515.894C234.007 515.894 234.646 515.75 235.06 515.462C235.492 515.156 235.708 514.76 235.708 514.274C235.708 513.518 235.15 513.032 234.034 512.816L231.334 512.303C229.048 511.871 227.905 510.683 227.905 508.739C227.905 507.875 228.139 507.128 228.607 506.498C229.093 505.868 229.759 505.382 230.605 505.04C231.451 504.698 232.423 504.527 233.521 504.527C234.457 504.527 235.357 504.662 236.221 504.932C237.085 505.184 237.823 505.571 238.435 506.093L237.517 508.307C236.995 507.875 236.365 507.533 235.627 507.281C234.907 507.029 234.214 506.903 233.548 506.903C232.666 506.903 232.009 507.056 231.577 507.362C231.163 507.668 230.956 508.073 230.956 508.577C230.956 509.369 231.469 509.855 232.495 510.035L235.195 510.548C236.365 510.764 237.247 511.16 237.841 511.736C238.453 512.312 238.759 513.086 238.759 514.058C238.759 515.372 238.246 516.407 237.22 517.163C236.194 517.901 234.826 518.27 233.116 518.27ZM247.383 518.27C243.891 518.27 242.145 516.542 242.145 513.086V507.335H239.607V504.797H242.145V500.855H245.52V504.797H249.516V507.335H245.52V512.897C245.52 513.761 245.709 514.409 246.087 514.841C246.465 515.273 247.077 515.489 247.923 515.489C248.175 515.489 248.436 515.462 248.706 515.408C248.976 515.336 249.255 515.264 249.543 515.192L250.056 517.676C249.732 517.856 249.318 518 248.814 518.108C248.328 518.216 247.851 518.27 247.383 518.27ZM251.647 512.114V509.414H259.693V512.114H251.647ZM269.824 523.13C268.6 523.13 267.448 522.986 266.368 522.698C265.306 522.428 264.37 522.005 263.56 521.429L264.532 519.08C265.288 519.584 266.098 519.953 266.962 520.187C267.826 520.439 268.69 520.565 269.554 520.565C271.966 520.565 273.172 519.404 273.172 517.082V515.273C272.794 516.011 272.209 516.596 271.417 517.028C270.643 517.46 269.779 517.676 268.825 517.676C267.637 517.676 266.602 517.406 265.72 516.866C264.838 516.308 264.154 515.534 263.668 514.544C263.182 513.554 262.939 512.402 262.939 511.088C262.939 509.774 263.182 508.631 263.668 507.659C264.154 506.669 264.838 505.904 265.72 505.364C266.602 504.806 267.637 504.527 268.825 504.527C269.815 504.527 270.697 504.752 271.471 505.202C272.245 505.634 272.812 506.219 273.172 506.957V504.797H276.466V516.677C276.466 518.819 275.899 520.43 274.765 521.51C273.631 522.59 271.984 523.13 269.824 523.13ZM269.743 515.111C270.787 515.111 271.615 514.751 272.227 514.031C272.839 513.311 273.145 512.33 273.145 511.088C273.145 509.846 272.839 508.874 272.227 508.172C271.615 507.452 270.787 507.092 269.743 507.092C268.699 507.092 267.871 507.452 267.259 508.172C266.647 508.874 266.341 509.846 266.341 511.088C266.341 512.33 266.647 513.311 267.259 514.031C267.871 514.751 268.699 515.111 269.743 515.111ZM279.963 518V504.797H283.257V507.119C283.905 505.553 285.291 504.689 287.415 504.527L288.441 504.446L288.657 507.308L286.713 507.497C284.499 507.713 283.392 508.847 283.392 510.899V518H279.963ZM296.346 518.27C294.978 518.27 293.79 517.991 292.782 517.433C291.774 516.875 290.991 516.083 290.433 515.057C289.875 514.013 289.596 512.789 289.596 511.385C289.596 509.981 289.875 508.766 290.433 507.74C290.991 506.714 291.774 505.922 292.782 505.364C293.79 504.806 294.978 504.527 296.346 504.527C297.714 504.527 298.902 504.806 299.91 505.364C300.918 505.922 301.701 506.714 302.259 507.74C302.817 508.766 303.096 509.981 303.096 511.385C303.096 512.789 302.817 514.013 302.259 515.057C301.701 516.083 300.918 516.875 299.91 517.433C298.902 517.991 297.714 518.27 296.346 518.27ZM296.346 515.705C297.354 515.705 298.164 515.345 298.776 514.625C299.388 513.887 299.694 512.807 299.694 511.385C299.694 509.945 299.388 508.874 298.776 508.172C298.164 507.452 297.354 507.092 296.346 507.092C295.338 507.092 294.528 507.452 293.916 508.172C293.304 508.874 292.998 509.945 292.998 511.385C292.998 512.807 293.304 513.887 293.916 514.625C294.528 515.345 295.338 515.705 296.346 515.705ZM309.263 518L304.052 504.797H307.508L310.883 514.085L314.285 504.797H316.661L320.063 514.139L323.438 504.797H326.705L321.521 518H318.578L315.365 509.495L312.206 518H309.263ZM328.421 501.962V498.668H332.201V501.962H328.421ZM328.637 518V504.797H332.012V518H328.637ZM335.519 518V504.797H338.813V506.849C339.263 506.093 339.866 505.517 340.622 505.121C341.396 504.725 342.26 504.527 343.214 504.527C346.328 504.527 347.885 506.336 347.885 509.954V518H344.51V510.116C344.51 509.09 344.312 508.343 343.916 507.875C343.538 507.407 342.944 507.173 342.134 507.173C341.144 507.173 340.352 507.488 339.758 508.118C339.182 508.73 338.894 509.549 338.894 510.575V518H335.519ZM357.469 523.13C356.245 523.13 355.093 522.986 354.013 522.698C352.951 522.428 352.015 522.005 351.205 521.429L352.177 519.08C352.933 519.584 353.743 519.953 354.607 520.187C355.471 520.439 356.335 520.565 357.199 520.565C359.611 520.565 360.817 519.404 360.817 517.082V515.273C360.439 516.011 359.854 516.596 359.062 517.028C358.288 517.46 357.424 517.676 356.47 517.676C355.282 517.676 354.247 517.406 353.365 516.866C352.483 516.308 351.799 515.534 351.313 514.544C350.827 513.554 350.584 512.402 350.584 511.088C350.584 509.774 350.827 508.631 351.313 507.659C351.799 506.669 352.483 505.904 353.365 505.364C354.247 504.806 355.282 504.527 356.47 504.527C357.46 504.527 358.342 504.752 359.116 505.202C359.89 505.634 360.457 506.219 360.817 506.957V504.797H364.111V516.677C364.111 518.819 363.544 520.43 362.41 521.51C361.276 522.59 359.629 523.13 357.469 523.13ZM357.388 515.111C358.432 515.111 359.26 514.751 359.872 514.031C360.484 513.311 360.79 512.33 360.79 511.088C360.79 509.846 360.484 508.874 359.872 508.172C359.26 507.452 358.432 507.092 357.388 507.092C356.344 507.092 355.516 507.452 354.904 508.172C354.292 508.874 353.986 509.846 353.986 511.088C353.986 512.33 354.292 513.311 354.904 514.031C355.516 514.751 356.344 515.111 357.388 515.111ZM79.079 553V533.965H91.742V536.719H82.4V541.957H91.148V544.711H82.4V550.246H91.742V553H79.079ZM99.8623 553.27C98.7103 553.27 97.6933 552.991 96.8113 552.433C95.9473 551.875 95.2723 551.083 94.7863 550.057C94.3003 549.013 94.0573 547.789 94.0573 546.385C94.0573 544.963 94.3003 543.748 94.7863 542.74C95.2723 541.714 95.9473 540.922 96.8113 540.364C97.6933 539.806 98.7103 539.527 99.8623 539.527C100.798 539.527 101.644 539.734 102.4 540.148C103.156 540.562 103.723 541.111 104.101 541.795V533.965H107.476V553H104.182V550.813C103.822 551.569 103.255 552.172 102.481 552.622C101.707 553.054 100.834 553.27 99.8623 553.27ZM100.807 550.705C101.815 550.705 102.625 550.345 103.237 549.625C103.849 548.887 104.155 547.807 104.155 546.385C104.155 544.945 103.849 543.874 103.237 543.172C102.625 542.452 101.815 542.092 100.807 542.092C99.7993 542.092 98.9893 542.452 98.3773 543.172C97.7653 543.874 97.4593 544.945 97.4593 546.385C97.4593 547.807 97.7653 548.887 98.3773 549.625C98.9893 550.345 99.7993 550.705 100.807 550.705ZM115.755 553.27C112.515 553.27 110.895 551.452 110.895 547.816V539.797H114.27V547.87C114.27 548.806 114.459 549.499 114.837 549.949C115.215 550.399 115.818 550.624 116.646 550.624C117.546 550.624 118.284 550.318 118.86 549.706C119.436 549.076 119.724 548.248 119.724 547.222V539.797H123.099V553H119.805V551.029C118.923 552.523 117.573 553.27 115.755 553.27ZM126.692 547.114V544.414H134.738V547.114H126.692ZM141.94 553V536.854H135.406V533.965H151.93V536.854H145.396V553H141.94ZM158.194 553.27C156.7 553.27 155.413 552.991 154.333 552.433C153.253 551.875 152.416 551.083 151.822 550.057C151.246 549.031 150.958 547.816 150.958 546.412C150.958 545.044 151.237 543.847 151.795 542.821C152.371 541.795 153.154 540.994 154.144 540.418C155.152 539.824 156.295 539.527 157.573 539.527C159.445 539.527 160.921 540.121 162.001 541.309C163.099 542.497 163.648 544.117 163.648 546.169V547.168H154.198C154.45 549.526 155.8 550.705 158.248 550.705C158.986 550.705 159.724 550.597 160.462 550.381C161.2 550.147 161.875 549.787 162.487 549.301L163.432 551.569C162.802 552.091 162.01 552.505 161.056 552.811C160.102 553.117 159.148 553.27 158.194 553.27ZM157.708 541.822C156.718 541.822 155.917 542.128 155.305 542.74C154.693 543.352 154.324 544.18 154.198 545.224H160.84C160.768 544.126 160.462 543.289 159.922 542.713C159.4 542.119 158.662 541.822 157.708 541.822ZM172.422 553.27C171.036 553.27 169.83 552.991 168.804 552.433C167.778 551.857 166.986 551.047 166.428 550.003C165.87 548.959 165.591 547.735 165.591 546.331C165.591 544.927 165.87 543.721 166.428 542.713C166.986 541.687 167.778 540.904 168.804 540.364C169.83 539.806 171.036 539.527 172.422 539.527C173.268 539.527 174.105 539.662 174.933 539.932C175.761 540.202 176.445 540.58 176.985 541.066L175.986 543.415C175.518 543.001 174.987 542.686 174.393 542.47C173.817 542.254 173.259 542.146 172.719 542.146C171.549 542.146 170.64 542.515 169.992 543.253C169.362 543.973 169.047 545.008 169.047 546.358C169.047 547.69 169.362 548.743 169.992 549.517C170.64 550.273 171.549 550.651 172.719 550.651C173.241 550.651 173.799 550.543 174.393 550.327C174.987 550.111 175.518 549.787 175.986 549.355L176.985 551.731C176.445 552.199 175.752 552.577 174.906 552.865C174.078 553.135 173.25 553.27 172.422 553.27ZM179.056 553V533.965H182.431V541.714C182.881 540.994 183.484 540.454 184.24 540.094C184.996 539.716 185.833 539.527 186.751 539.527C189.865 539.527 191.422 541.336 191.422 544.954V553H188.047V545.116C188.047 544.09 187.849 543.343 187.453 542.875C187.075 542.407 186.481 542.173 185.671 542.173C184.681 542.173 183.889 542.488 183.295 543.118C182.719 543.73 182.431 544.549 182.431 545.575V553H179.056ZM202.127 553V539.797H205.421V541.849C205.871 541.093 206.474 540.517 207.23 540.121C208.004 539.725 208.868 539.527 209.822 539.527C212.936 539.527 214.493 541.336 214.493 544.954V553H211.118V545.116C211.118 544.09 210.92 543.343 210.524 542.875C210.146 542.407 209.552 542.173 208.742 542.173C207.752 542.173 206.96 542.488 206.366 543.118C205.79 543.73 205.502 544.549 205.502 545.575V553H202.127ZM224.428 553.27C222.934 553.27 221.647 552.991 220.567 552.433C219.487 551.875 218.65 551.083 218.056 550.057C217.48 549.031 217.192 547.816 217.192 546.412C217.192 545.044 217.471 543.847 218.029 542.821C218.605 541.795 219.388 540.994 220.378 540.418C221.386 539.824 222.529 539.527 223.807 539.527C225.679 539.527 227.155 540.121 228.235 541.309C229.333 542.497 229.882 544.117 229.882 546.169V547.168H220.432C220.684 549.526 222.034 550.705 224.482 550.705C225.22 550.705 225.958 550.597 226.696 550.381C227.434 550.147 228.109 549.787 228.721 549.301L229.666 551.569C229.036 552.091 228.244 552.505 227.29 552.811C226.336 553.117 225.382 553.27 224.428 553.27ZM223.942 541.822C222.952 541.822 222.151 542.128 221.539 542.74C220.927 543.352 220.558 544.18 220.432 545.224H227.074C227.002 544.126 226.696 543.289 226.156 542.713C225.634 542.119 224.896 541.822 223.942 541.822ZM238.55 553.27C235.058 553.27 233.312 551.542 233.312 548.086V542.335H230.774V539.797H233.312V535.855H236.687V539.797H240.683V542.335H236.687V547.897C236.687 548.761 236.876 549.409 237.254 549.841C237.632 550.273 238.244 550.489 239.09 550.489C239.342 550.489 239.603 550.462 239.873 550.408C240.143 550.336 240.422 550.264 240.71 550.192L241.223 552.676C240.899 552.856 240.485 553 239.981 553.108C239.495 553.216 239.018 553.27 238.55 553.27ZM246.72 553L241.509 539.797H244.965L248.34 549.085L251.742 539.797H254.118L257.52 549.139L260.895 539.797H264.162L258.978 553H256.035L252.822 544.495L249.663 553H246.72ZM271.851 553.27C270.483 553.27 269.295 552.991 268.287 552.433C267.279 551.875 266.496 551.083 265.938 550.057C265.38 549.013 265.101 547.789 265.101 546.385C265.101 544.981 265.38 543.766 265.938 542.74C266.496 541.714 267.279 540.922 268.287 540.364C269.295 539.806 270.483 539.527 271.851 539.527C273.219 539.527 274.407 539.806 275.415 540.364C276.423 540.922 277.206 541.714 277.764 542.74C278.322 543.766 278.601 544.981 278.601 546.385C278.601 547.789 278.322 549.013 277.764 550.057C277.206 551.083 276.423 551.875 275.415 552.433C274.407 552.991 273.219 553.27 271.851 553.27ZM271.851 550.705C272.859 550.705 273.669 550.345 274.281 549.625C274.893 548.887 275.199 547.807 275.199 546.385C275.199 544.945 274.893 543.874 274.281 543.172C273.669 542.452 272.859 542.092 271.851 542.092C270.843 542.092 270.033 542.452 269.421 543.172C268.809 543.874 268.503 544.945 268.503 546.385C268.503 547.807 268.809 548.887 269.421 549.625C270.033 550.345 270.843 550.705 271.851 550.705ZM281.387 553V539.797H284.681V542.119C285.329 540.553 286.715 539.689 288.839 539.527L289.865 539.446L290.081 542.308L288.137 542.497C285.923 542.713 284.816 543.847 284.816 545.899V553H281.387ZM291.96 553V533.965H295.335V545.413H295.389L300.708 539.797H304.785L298.791 546.115L305.163 553H301.032L295.389 547.114H295.335V553H291.96ZM311.058 553.27C309.942 553.27 308.898 553.135 307.926 552.865C306.954 552.595 306.144 552.208 305.496 551.704L306.36 549.49C307.026 549.94 307.773 550.291 308.601 550.543C309.429 550.777 310.257 550.894 311.085 550.894C311.949 550.894 312.588 550.75 313.002 550.462C313.434 550.156 313.65 549.76 313.65 549.274C313.65 548.518 313.092 548.032 311.976 547.816L309.276 547.303C306.99 546.871 305.847 545.683 305.847 543.739C305.847 542.875 306.081 542.128 306.549 541.498C307.035 540.868 307.701 540.382 308.547 540.04C309.393 539.698 310.365 539.527 311.463 539.527C312.399 539.527 313.299 539.662 314.163 539.932C315.027 540.184 315.765 540.571 316.377 541.093L315.459 543.307C314.937 542.875 314.307 542.533 313.569 542.281C312.849 542.029 312.156 541.903 311.49 541.903C310.608 541.903 309.951 542.056 309.519 542.362C309.105 542.668 308.898 543.073 308.898 543.577C308.898 544.369 309.411 544.855 310.437 545.035L313.137 545.548C314.307 545.764 315.189 546.16 315.783 546.736C316.395 547.312 316.701 548.086 316.701 549.058C316.701 550.372 316.188 551.407 315.162 552.163C314.136 552.901 312.768 553.27 311.058 553.27ZM319.975 547.357L318.922 533.965H323.08L322.027 547.357H319.975ZM319.111 553V549.247H322.891V553H319.111Z" fill="#2F327D"></path><g clip-path="url(#clip1_683_254)"><path d="M323.91 29.7524L91.1159 44.9144C79.2609 45.6865 70.2752 55.9397 71.046 67.8154L92.8461 403.694C93.6169 415.569 103.852 424.571 115.707 423.798L348.501 408.636C360.356 407.864 369.342 397.611 368.571 385.735L346.771 49.8572C346 37.9815 335.765 28.9803 323.91 29.7524Z" fill="#007EF3"></path><path d="M322.505 45.1769L95.5625 59.9578L116.996 390.194L343.938 375.413L322.505 45.1769Z" fill="#F6F5F5"></path><path d="M322.511 45.1841C330.94 173.952 345.168 328.991 332.96 364.317C269.762 374.668 195.417 381.511 116.789 387.002L125.521 59.0113L322.511 45.1841Z" fill="#E4E4E4"></path><path d="M322.113 354.575C224.012 376.924 157.809 382.076 103.812 381.577C105.957 306.866 100.744 183.323 95.5605 59.9797L215.034 52.4645L323.613 52.5718C333.482 180.302 341.323 298.368 322.113 354.575Z" fill="white"></path><path d="M296.332 109.966L188.482 114.437L188.827 122.789L296.677 118.318L296.332 109.966Z" fill="#708CD5"></path><path d="M262.542 129.605L189.232 132.644L189.577 140.996L262.887 137.956L262.542 129.605Z" fill="#D3DFFF"></path><path d="M154.532 116.336L129 117.394L130.057 142.971L155.589 141.913L154.532 116.336Z" fill="white" stroke="#708CD5" stroke-width="6" stroke-miterlimit="10"></path><path d="M133.593 123.835C134.574 126.801 136.849 139.349 142.942 135.403C144.346 134.493 145.44 132.257 146.45 130.947L151.897 123.875L162.789 109.735C163.718 108.526 159.098 105.948 157.929 107.465L148.247 120.034L143.405 126.316C142.285 127.766 139.778 132.388 138.01 132.898L140.997 133.655C141.724 134.177 140.181 130.245 140.146 130.138C139.538 128.302 138.931 126.465 138.326 124.629C137.822 123.113 132.849 121.579 133.593 123.823V123.835Z" fill="#EE6F57"></path><path d="M279.215 157.254L190.402 160.936L190.747 169.288L279.56 165.606L279.215 157.254Z" fill="#708CD5"></path><path d="M299.004 174.671L191.154 179.142L191.499 187.494L299.349 183.022L299.004 174.671Z" fill="#D3DFFF"></path><path d="M156.452 162.836L130.92 163.894L131.977 189.471L157.509 188.412L156.452 162.836Z" fill="white" stroke="#708CD5" stroke-width="6" stroke-miterlimit="10"></path><path d="M135.554 171.063C136.538 174.029 138.813 186.58 144.903 182.631C146.307 181.721 147.404 179.486 148.411 178.175L153.858 171.103L164.75 156.963C165.681 155.757 161.059 153.179 159.89 154.696L150.208 167.265L145.369 173.55C144.249 175 141.739 179.622 139.971 180.132L142.961 180.889C143.684 181.411 142.145 177.476 142.11 177.369L140.286 171.86C139.786 170.347 134.81 168.81 135.554 171.054V171.063Z" fill="#EE6F57"></path><path d="M300.174 202.963L192.324 207.434L192.669 215.786L300.519 211.315L300.174 202.963Z" fill="#708CD5"></path><path d="M241.371 224.721L193.096 226.655L193.429 235.014L241.704 233.08L241.371 224.721Z" fill="#D3DFFF"></path><path d="M158.384 210.289L132.83 211.313L133.852 236.911L159.407 235.888L158.384 210.289Z" fill="white" stroke="#708CD5" stroke-width="6.0048" stroke-miterlimit="10"></path><path d="M137.835 217.862C138.819 220.828 141.094 233.377 147.184 229.43C148.59 228.52 149.684 226.285 150.695 224.974L156.139 217.902L167.03 203.762C167.962 202.553 163.34 199.975 162.171 201.492L152.489 214.064L147.65 220.352C146.53 221.802 144.02 226.424 142.252 226.934L145.242 227.691C145.968 228.213 144.425 224.281 144.391 224.174L142.567 218.665C142.066 217.149 137.094 215.615 137.835 217.859V217.862Z" fill="#EE6F57"></path><path d="M302.094 249.466L194.244 253.937L194.589 262.289L302.439 257.817L302.094 249.466Z" fill="#708CD5"></path><path d="M280.196 268.612L194.998 272.144L195.343 280.496L280.541 276.963L280.196 268.612Z" fill="#D3DFFF"></path><path d="M160.294 255.835L134.762 256.894L135.818 282.471L161.351 281.412L160.294 255.835Z" fill="white" stroke="#708CD5" stroke-width="6" stroke-miterlimit="10"></path><path d="M139.744 264.055C140.728 267.021 143 279.572 149.092 275.624C150.496 274.713 151.59 272.478 152.6 271.167L158.047 264.096L168.939 249.955C169.871 248.746 165.249 246.186 164.079 247.688L154.398 260.257L149.558 266.543C148.438 267.992 145.929 272.614 144.16 273.124L147.147 273.881C147.874 274.4 146.334 270.468 146.296 270.361C145.692 268.529 145.086 266.692 144.476 264.852C143.975 263.339 139 261.802 139.744 264.046V264.055Z" fill="#EE6F57"></path><path d="M238.901 298.309L196.15 300.082L196.495 308.434L239.246 306.661L238.901 298.309Z" fill="#708CD5"></path><path d="M304.764 313.803L196.914 318.276L197.258 326.63C238.986 324.89 292.159 323.394 302.876 321.028C304.396 319.048 305.134 316.693 304.764 313.803Z" fill="#D3DFFF"></path><path d="M162.556 301.968L137.023 303.026L138.08 328.603L163.613 327.545L162.556 301.968Z" fill="white" stroke="#708CD5" stroke-width="6" stroke-miterlimit="10"></path><path d="M141.632 309.845C142.616 312.811 144.888 325.36 150.981 321.414C152.385 320.503 153.479 318.268 154.489 316.957L159.936 309.886L170.828 295.745C171.76 294.536 167.137 291.959 165.968 293.478L156.286 306.047L151.447 312.333C150.327 313.782 147.818 318.404 146.049 318.914L149.036 319.668C149.763 320.19 148.223 316.259 148.185 316.151C147.579 314.315 146.972 312.479 146.365 310.642C145.864 309.129 140.888 307.592 141.632 309.836V309.845Z" fill="#EE6F57"></path><path d="M258.775 36.3033L260.43 61.7918L158.202 68.4604L156.549 42.9719C156.423 41.0383 156.678 39.0987 157.3 37.264C157.923 35.4293 158.9 33.7353 160.176 32.2789C160.482 31.9271 160.809 31.5932 161.154 31.2786C163.64 28.9195 166.874 27.5087 170.291 27.292C172.894 27.1237 175.424 26.3695 177.695 25.0856C178.656 24.5406 179.564 23.9088 180.41 23.198C183.26 20.7866 185.256 17.5185 186.103 13.8794C186.957 10.2415 188.954 6.97434 191.8 4.55912C194.647 2.14391 198.193 0.708347 201.915 0.463918L208.297 0.0493076C212.02 -0.191217 215.721 0.772096 218.856 2.79737C221.99 4.82264 224.393 7.8028 225.71 11.2989C227.021 14.7978 229.424 17.7799 232.561 19.8029C233.492 20.3976 234.475 20.9061 235.498 21.3221C237.915 22.3008 240.521 22.7201 243.122 22.5486C247.018 22.3036 250.852 23.6145 253.786 26.1945C256.719 28.7744 258.513 32.4133 258.775 36.3149V36.3033Z" fill="#FFB147"></path><path d="M267.911 48.7359L269.141 67.6834L150.322 75.4219L149.092 56.4743L157.39 55.9322L158.2 68.4459L260.429 61.7889L259.616 49.2752L267.911 48.7359Z" fill="#E4E4E4"></path><path d="M206.564 22.6216C210.683 22.3533 213.817 18.9553 213.562 15.0321C213.308 11.1088 209.761 8.14586 205.641 8.4142C201.521 8.68253 198.388 12.0805 198.643 16.0038C198.897 19.9271 202.444 22.89 206.564 22.6216Z" fill="white"></path><path d="M368.434 96.254C368.434 96.254 374.743 80.0783 376.167 81.4004C377.591 82.7225 376.321 98.1531 376.321 98.1531L370.85 102.792L368.434 96.254Z" fill="#6F3428"></path><path d="M321.671 410.154L320.403 415.741C319.328 420.476 316.42 424.591 312.318 427.179C308.216 429.767 303.255 430.617 298.527 429.542L297.095 429.214C292.367 428.139 288.259 425.227 285.675 421.118C283.091 417.009 282.242 412.04 283.315 407.304L284.582 401.716L321.671 410.154Z" fill="#FFC1C1"></path><path d="M345.85 131.145L284.543 401.675L321.631 410.109L382.938 139.579L345.85 131.145Z" fill="#FBC343"></path><path opacity="0.3" d="M372.302 131.426L359.129 128.431L305.391 365.561L318.564 368.556L372.302 131.426Z" stroke="#6F3428" stroke-width="8" stroke-miterlimit="10"></path><path d="M321.664 410.154L284.584 401.719L287.059 390.821L288.775 383.244L294.043 359.965L331.134 368.402L325.855 391.679L324.138 399.252L321.664 410.154Z" fill="#102048"></path><path d="M288.748 383.214L287.031 390.789L324.111 399.221L325.828 391.646L288.748 383.214Z" fill="#FBC343"></path><path d="M345.908 131.189L368.898 94.2447C368.898 94.2447 371.859 96.8977 376.887 95.6654L383.002 139.626L345.908 131.189Z" fill="#FFC1C1"></path></g><defs><clipPath id="clip0_683_254"><rect width="169" height="166" fill="white" transform="translate(0 362) rotate(-90)"></rect></clipPath><clipPath id="clip1_683_254"><rect width="312" height="430" fill="white" transform="translate(71)"></rect></clipPath></defs></svg>